%TF.GenerationSoftware,KiCad,Pcbnew,8.0.5*%
%TF.CreationDate,2024-10-09T02:25:36+03:00*%
%TF.ProjectId,DC-CDI,44432d43-4449-42e6-9b69-6361645f7063,rev?*%
%TF.SameCoordinates,Original*%
%TF.FileFunction,Legend,Bot*%
%TF.FilePolarity,Positive*%
%FSLAX46Y46*%
G04 Gerber Fmt 4.6, Leading zero omitted, Abs format (unit mm)*
G04 Created by KiCad (PCBNEW 8.0.5) date 2024-10-09 02:25:36*
%MOMM*%
%LPD*%
G01*
G04 APERTURE LIST*
G04 Aperture macros list*
%AMRoundRect*
0 Rectangle with rounded corners*
0 $1 Rounding radius*
0 $2 $3 $4 $5 $6 $7 $8 $9 X,Y pos of 4 corners*
0 Add a 4 corners polygon primitive as box body*
4,1,4,$2,$3,$4,$5,$6,$7,$8,$9,$2,$3,0*
0 Add four circle primitives for the rounded corners*
1,1,$1+$1,$2,$3*
1,1,$1+$1,$4,$5*
1,1,$1+$1,$6,$7*
1,1,$1+$1,$8,$9*
0 Add four rect primitives between the rounded corners*
20,1,$1+$1,$2,$3,$4,$5,0*
20,1,$1+$1,$4,$5,$6,$7,0*
20,1,$1+$1,$6,$7,$8,$9,0*
20,1,$1+$1,$8,$9,$2,$3,0*%
G04 Aperture macros list end*
%ADD10C,0.150000*%
%ADD11C,0.120000*%
%ADD12R,1.700000X1.700000*%
%ADD13O,1.700000X1.700000*%
%ADD14R,1.600000X1.600000*%
%ADD15C,1.600000*%
%ADD16C,2.500000*%
%ADD17RoundRect,0.375000X-0.375000X-0.625000X0.375000X-0.625000X0.375000X0.625000X-0.375000X0.625000X0*%
%ADD18O,1.500000X2.000000*%
%ADD19RoundRect,0.375000X-0.625000X0.375000X-0.625000X-0.375000X0.625000X-0.375000X0.625000X0.375000X0*%
%ADD20O,2.000000X1.500000*%
%ADD21C,2.400000*%
%ADD22O,3.600000X3.600000*%
%ADD23R,2.500000X4.500000*%
%ADD24O,2.500000X4.500000*%
G04 APERTURE END LIST*
D10*
X212095238Y-128210057D02*
X212190476Y-128162438D01*
X212190476Y-128162438D02*
X212285714Y-128067200D01*
X212285714Y-128067200D02*
X212428571Y-127924342D01*
X212428571Y-127924342D02*
X212523809Y-127876723D01*
X212523809Y-127876723D02*
X212619047Y-127876723D01*
X212571428Y-128114819D02*
X212666666Y-128067200D01*
X212666666Y-128067200D02*
X212761904Y-127971961D01*
X212761904Y-127971961D02*
X212809523Y-127781485D01*
X212809523Y-127781485D02*
X212809523Y-127448152D01*
X212809523Y-127448152D02*
X212761904Y-127257676D01*
X212761904Y-127257676D02*
X212666666Y-127162438D01*
X212666666Y-127162438D02*
X212571428Y-127114819D01*
X212571428Y-127114819D02*
X212380952Y-127114819D01*
X212380952Y-127114819D02*
X212285714Y-127162438D01*
X212285714Y-127162438D02*
X212190476Y-127257676D01*
X212190476Y-127257676D02*
X212142857Y-127448152D01*
X212142857Y-127448152D02*
X212142857Y-127781485D01*
X212142857Y-127781485D02*
X212190476Y-127971961D01*
X212190476Y-127971961D02*
X212285714Y-128067200D01*
X212285714Y-128067200D02*
X212380952Y-128114819D01*
X212380952Y-128114819D02*
X212571428Y-128114819D01*
X211190476Y-128114819D02*
X211761904Y-128114819D01*
X211476190Y-128114819D02*
X211476190Y-127114819D01*
X211476190Y-127114819D02*
X211571428Y-127257676D01*
X211571428Y-127257676D02*
X211666666Y-127352914D01*
X211666666Y-127352914D02*
X211761904Y-127400533D01*
D11*
%TO.C,Q1*%
X203930000Y-105470000D02*
X203930000Y-126660000D01*
X206550000Y-102910000D02*
X206550000Y-105470000D01*
X212000000Y-102910000D02*
X212000000Y-105470000D01*
X217450000Y-102910000D02*
X217450000Y-105470000D01*
X220070000Y-105470000D02*
X203930000Y-105470000D01*
X220070000Y-105470000D02*
X220070000Y-126660000D01*
X220070000Y-126660000D02*
X203930000Y-126660000D01*
%TD*%
%LPC*%
D12*
%TO.C,J3*%
X135600000Y-68980000D03*
D13*
X135600000Y-71520000D03*
X135600000Y-74060000D03*
X135600000Y-76600000D03*
%TD*%
D14*
%TO.C,C13*%
X142452651Y-100800000D03*
D15*
X138952651Y-100800000D03*
%TD*%
D16*
%TO.C,T1*%
X167200000Y-67920000D03*
X167200000Y-73000000D03*
X167200000Y-78080000D03*
X167200000Y-88240000D03*
X167200000Y-93320000D03*
X167200000Y-98400000D03*
X192600000Y-98400000D03*
X192600000Y-93320000D03*
X192600000Y-88240000D03*
X192600000Y-83160000D03*
X192600000Y-78080000D03*
X192600000Y-73000000D03*
X192600000Y-67920000D03*
%TD*%
D17*
%TO.C,J2*%
X138000000Y-126800000D03*
D18*
X140500000Y-126800000D03*
X143000000Y-126800000D03*
X145500000Y-126800000D03*
X148000000Y-126800000D03*
X150500000Y-126800000D03*
%TD*%
D19*
%TO.C,J1*%
X224800000Y-91100000D03*
D20*
X224800000Y-93600000D03*
%TD*%
D21*
%TO.C,C30*%
X211600000Y-94400000D03*
X211600000Y-66900000D03*
%TD*%
D22*
%TO.C,Q1*%
X212000000Y-120370000D03*
D23*
X206550000Y-100510000D03*
D24*
X212000000Y-100510000D03*
X217450000Y-100510000D03*
%TD*%
%LPD*%
M02*
