%TF.GenerationSoftware,KiCad,Pcbnew,8.0.5*%
%TF.CreationDate,2024-10-09T02:25:36+03:00*%
%TF.ProjectId,DC-CDI,44432d43-4449-42e6-9b69-6361645f7063,rev?*%
%TF.SameCoordinates,Original*%
%TF.FileFunction,Legend,Top*%
%TF.FilePolarity,Positive*%
%FSLAX46Y46*%
G04 Gerber Fmt 4.6, Leading zero omitted, Abs format (unit mm)*
G04 Created by KiCad (PCBNEW 8.0.5) date 2024-10-09 02:25:36*
%MOMM*%
%LPD*%
G01*
G04 APERTURE LIST*
G04 Aperture macros list*
%AMRoundRect*
0 Rectangle with rounded corners*
0 $1 Rounding radius*
0 $2 $3 $4 $5 $6 $7 $8 $9 X,Y pos of 4 corners*
0 Add a 4 corners polygon primitive as box body*
4,1,4,$2,$3,$4,$5,$6,$7,$8,$9,$2,$3,0*
0 Add four circle primitives for the rounded corners*
1,1,$1+$1,$2,$3*
1,1,$1+$1,$4,$5*
1,1,$1+$1,$6,$7*
1,1,$1+$1,$8,$9*
0 Add four rect primitives between the rounded corners*
20,1,$1+$1,$2,$3,$4,$5,0*
20,1,$1+$1,$4,$5,$6,$7,0*
20,1,$1+$1,$6,$7,$8,$9,0*
20,1,$1+$1,$8,$9,$2,$3,0*%
%AMFreePoly0*
4,1,17,2.675000,1.605000,1.875000,1.605000,1.875000,0.935000,2.675000,0.935000,2.675000,0.335000,1.875000,0.335000,1.875000,-0.335000,2.675000,-0.335000,2.675000,-0.935000,1.875000,-0.935000,1.875000,-1.605000,2.675000,-1.605000,2.675000,-2.205000,-1.875000,-2.205000,-1.875000,2.205000,2.675000,2.205000,2.675000,1.605000,2.675000,1.605000,$1*%
G04 Aperture macros list end*
%ADD10C,0.150000*%
%ADD11C,0.120000*%
%ADD12R,1.700000X1.700000*%
%ADD13O,1.700000X1.700000*%
%ADD14RoundRect,0.225000X0.225000X0.250000X-0.225000X0.250000X-0.225000X-0.250000X0.225000X-0.250000X0*%
%ADD15RoundRect,0.135000X0.185000X-0.135000X0.185000X0.135000X-0.185000X0.135000X-0.185000X-0.135000X0*%
%ADD16RoundRect,0.150000X0.150000X-0.825000X0.150000X0.825000X-0.150000X0.825000X-0.150000X-0.825000X0*%
%ADD17RoundRect,0.225000X-0.225000X-0.250000X0.225000X-0.250000X0.225000X0.250000X-0.225000X0.250000X0*%
%ADD18RoundRect,0.250000X-0.250000X-0.475000X0.250000X-0.475000X0.250000X0.475000X-0.250000X0.475000X0*%
%ADD19RoundRect,0.200000X-0.200000X-0.275000X0.200000X-0.275000X0.200000X0.275000X-0.200000X0.275000X0*%
%ADD20R,1.600000X1.600000*%
%ADD21C,1.600000*%
%ADD22C,2.500000*%
%ADD23RoundRect,0.200000X0.200000X0.275000X-0.200000X0.275000X-0.200000X-0.275000X0.200000X-0.275000X0*%
%ADD24RoundRect,0.225000X-0.250000X0.225000X-0.250000X-0.225000X0.250000X-0.225000X0.250000X0.225000X0*%
%ADD25RoundRect,0.250000X1.075000X-0.375000X1.075000X0.375000X-1.075000X0.375000X-1.075000X-0.375000X0*%
%ADD26RoundRect,0.150000X0.512500X0.150000X-0.512500X0.150000X-0.512500X-0.150000X0.512500X-0.150000X0*%
%ADD27C,1.500000*%
%ADD28RoundRect,0.250000X0.262500X0.450000X-0.262500X0.450000X-0.262500X-0.450000X0.262500X-0.450000X0*%
%ADD29RoundRect,0.250000X0.325000X0.650000X-0.325000X0.650000X-0.325000X-0.650000X0.325000X-0.650000X0*%
%ADD30RoundRect,0.375000X-0.375000X-0.625000X0.375000X-0.625000X0.375000X0.625000X-0.375000X0.625000X0*%
%ADD31O,1.500000X2.000000*%
%ADD32RoundRect,0.150000X-0.512500X-0.150000X0.512500X-0.150000X0.512500X0.150000X-0.512500X0.150000X0*%
%ADD33RoundRect,0.375000X-0.625000X0.375000X-0.625000X-0.375000X0.625000X-0.375000X0.625000X0.375000X0*%
%ADD34O,2.000000X1.500000*%
%ADD35RoundRect,0.140000X-0.140000X-0.170000X0.140000X-0.170000X0.140000X0.170000X-0.140000X0.170000X0*%
%ADD36RoundRect,0.100000X0.100000X-0.130000X0.100000X0.130000X-0.100000X0.130000X-0.100000X-0.130000X0*%
%ADD37RoundRect,0.200000X0.275000X-0.200000X0.275000X0.200000X-0.275000X0.200000X-0.275000X-0.200000X0*%
%ADD38RoundRect,0.250000X-0.312500X-0.625000X0.312500X-0.625000X0.312500X0.625000X-0.312500X0.625000X0*%
%ADD39R,2.000000X1.500000*%
%ADD40R,2.000000X3.800000*%
%ADD41RoundRect,0.250000X1.000000X0.650000X-1.000000X0.650000X-1.000000X-0.650000X1.000000X-0.650000X0*%
%ADD42RoundRect,0.135000X-0.135000X-0.185000X0.135000X-0.185000X0.135000X0.185000X-0.135000X0.185000X0*%
%ADD43RoundRect,0.125000X0.125000X-0.625000X0.125000X0.625000X-0.125000X0.625000X-0.125000X-0.625000X0*%
%ADD44RoundRect,0.125000X0.625000X-0.125000X0.625000X0.125000X-0.625000X0.125000X-0.625000X-0.125000X0*%
%ADD45RoundRect,0.250000X-0.325000X-0.650000X0.325000X-0.650000X0.325000X0.650000X-0.325000X0.650000X0*%
%ADD46R,2.000000X2.400000*%
%ADD47RoundRect,0.250000X1.000000X-1.400000X1.000000X1.400000X-1.000000X1.400000X-1.000000X-1.400000X0*%
%ADD48RoundRect,0.150000X0.825000X0.150000X-0.825000X0.150000X-0.825000X-0.150000X0.825000X-0.150000X0*%
%ADD49RoundRect,0.137500X-0.662500X-0.137500X0.662500X-0.137500X0.662500X0.137500X-0.662500X0.137500X0*%
%ADD50FreePoly0,0.000000*%
%ADD51R,0.850000X0.500000*%
%ADD52RoundRect,0.225000X0.250000X-0.225000X0.250000X0.225000X-0.250000X0.225000X-0.250000X-0.225000X0*%
%ADD53C,2.400000*%
%ADD54RoundRect,0.225000X0.225000X0.375000X-0.225000X0.375000X-0.225000X-0.375000X0.225000X-0.375000X0*%
%ADD55RoundRect,0.150000X-0.825000X-0.150000X0.825000X-0.150000X0.825000X0.150000X-0.825000X0.150000X0*%
%ADD56R,2.290000X3.000000*%
%ADD57RoundRect,0.250000X0.650000X-1.000000X0.650000X1.000000X-0.650000X1.000000X-0.650000X-1.000000X0*%
%ADD58RoundRect,0.218750X-0.256250X0.218750X-0.256250X-0.218750X0.256250X-0.218750X0.256250X0.218750X0*%
%ADD59RoundRect,0.218750X0.218750X0.256250X-0.218750X0.256250X-0.218750X-0.256250X0.218750X-0.256250X0*%
%ADD60R,1.905000X0.640000*%
%ADD61R,1.300000X1.100000*%
%ADD62RoundRect,0.200000X-0.275000X0.200000X-0.275000X-0.200000X0.275000X-0.200000X0.275000X0.200000X0*%
%ADD63RoundRect,0.100000X-0.100000X0.130000X-0.100000X-0.130000X0.100000X-0.130000X0.100000X0.130000X0*%
%ADD64R,2.500000X1.900000*%
%ADD65R,0.700000X0.450000*%
%ADD66O,3.600000X3.600000*%
%ADD67R,2.500000X4.500000*%
%ADD68O,2.500000X4.500000*%
G04 APERTURE END LIST*
D10*
X135266666Y-66104819D02*
X135266666Y-66819104D01*
X135266666Y-66819104D02*
X135219047Y-66961961D01*
X135219047Y-66961961D02*
X135123809Y-67057200D01*
X135123809Y-67057200D02*
X134980952Y-67104819D01*
X134980952Y-67104819D02*
X134885714Y-67104819D01*
X135647619Y-66104819D02*
X136266666Y-66104819D01*
X136266666Y-66104819D02*
X135933333Y-66485771D01*
X135933333Y-66485771D02*
X136076190Y-66485771D01*
X136076190Y-66485771D02*
X136171428Y-66533390D01*
X136171428Y-66533390D02*
X136219047Y-66581009D01*
X136219047Y-66581009D02*
X136266666Y-66676247D01*
X136266666Y-66676247D02*
X136266666Y-66914342D01*
X136266666Y-66914342D02*
X136219047Y-67009580D01*
X136219047Y-67009580D02*
X136171428Y-67057200D01*
X136171428Y-67057200D02*
X136076190Y-67104819D01*
X136076190Y-67104819D02*
X135790476Y-67104819D01*
X135790476Y-67104819D02*
X135695238Y-67057200D01*
X135695238Y-67057200D02*
X135647619Y-67009580D01*
X155054819Y-120442857D02*
X154578628Y-120776190D01*
X155054819Y-121014285D02*
X154054819Y-121014285D01*
X154054819Y-121014285D02*
X154054819Y-120633333D01*
X154054819Y-120633333D02*
X154102438Y-120538095D01*
X154102438Y-120538095D02*
X154150057Y-120490476D01*
X154150057Y-120490476D02*
X154245295Y-120442857D01*
X154245295Y-120442857D02*
X154388152Y-120442857D01*
X154388152Y-120442857D02*
X154483390Y-120490476D01*
X154483390Y-120490476D02*
X154531009Y-120538095D01*
X154531009Y-120538095D02*
X154578628Y-120633333D01*
X154578628Y-120633333D02*
X154578628Y-121014285D01*
X154150057Y-120061904D02*
X154102438Y-120014285D01*
X154102438Y-120014285D02*
X154054819Y-119919047D01*
X154054819Y-119919047D02*
X154054819Y-119680952D01*
X154054819Y-119680952D02*
X154102438Y-119585714D01*
X154102438Y-119585714D02*
X154150057Y-119538095D01*
X154150057Y-119538095D02*
X154245295Y-119490476D01*
X154245295Y-119490476D02*
X154340533Y-119490476D01*
X154340533Y-119490476D02*
X154483390Y-119538095D01*
X154483390Y-119538095D02*
X155054819Y-120109523D01*
X155054819Y-120109523D02*
X155054819Y-119490476D01*
X154388152Y-118633333D02*
X155054819Y-118633333D01*
X154007200Y-118871428D02*
X154721485Y-119109523D01*
X154721485Y-119109523D02*
X154721485Y-118490476D01*
X157054819Y-84761904D02*
X157864342Y-84761904D01*
X157864342Y-84761904D02*
X157959580Y-84714285D01*
X157959580Y-84714285D02*
X158007200Y-84666666D01*
X158007200Y-84666666D02*
X158054819Y-84571428D01*
X158054819Y-84571428D02*
X158054819Y-84380952D01*
X158054819Y-84380952D02*
X158007200Y-84285714D01*
X158007200Y-84285714D02*
X157959580Y-84238095D01*
X157959580Y-84238095D02*
X157864342Y-84190476D01*
X157864342Y-84190476D02*
X157054819Y-84190476D01*
X158054819Y-83666666D02*
X158054819Y-83476190D01*
X158054819Y-83476190D02*
X158007200Y-83380952D01*
X158007200Y-83380952D02*
X157959580Y-83333333D01*
X157959580Y-83333333D02*
X157816723Y-83238095D01*
X157816723Y-83238095D02*
X157626247Y-83190476D01*
X157626247Y-83190476D02*
X157245295Y-83190476D01*
X157245295Y-83190476D02*
X157150057Y-83238095D01*
X157150057Y-83238095D02*
X157102438Y-83285714D01*
X157102438Y-83285714D02*
X157054819Y-83380952D01*
X157054819Y-83380952D02*
X157054819Y-83571428D01*
X157054819Y-83571428D02*
X157102438Y-83666666D01*
X157102438Y-83666666D02*
X157150057Y-83714285D01*
X157150057Y-83714285D02*
X157245295Y-83761904D01*
X157245295Y-83761904D02*
X157483390Y-83761904D01*
X157483390Y-83761904D02*
X157578628Y-83714285D01*
X157578628Y-83714285D02*
X157626247Y-83666666D01*
X157626247Y-83666666D02*
X157673866Y-83571428D01*
X157673866Y-83571428D02*
X157673866Y-83380952D01*
X157673866Y-83380952D02*
X157626247Y-83285714D01*
X157626247Y-83285714D02*
X157578628Y-83238095D01*
X157578628Y-83238095D02*
X157483390Y-83190476D01*
X148357142Y-94959580D02*
X148309523Y-95007200D01*
X148309523Y-95007200D02*
X148166666Y-95054819D01*
X148166666Y-95054819D02*
X148071428Y-95054819D01*
X148071428Y-95054819D02*
X147928571Y-95007200D01*
X147928571Y-95007200D02*
X147833333Y-94911961D01*
X147833333Y-94911961D02*
X147785714Y-94816723D01*
X147785714Y-94816723D02*
X147738095Y-94626247D01*
X147738095Y-94626247D02*
X147738095Y-94483390D01*
X147738095Y-94483390D02*
X147785714Y-94292914D01*
X147785714Y-94292914D02*
X147833333Y-94197676D01*
X147833333Y-94197676D02*
X147928571Y-94102438D01*
X147928571Y-94102438D02*
X148071428Y-94054819D01*
X148071428Y-94054819D02*
X148166666Y-94054819D01*
X148166666Y-94054819D02*
X148309523Y-94102438D01*
X148309523Y-94102438D02*
X148357142Y-94150057D01*
X148738095Y-94150057D02*
X148785714Y-94102438D01*
X148785714Y-94102438D02*
X148880952Y-94054819D01*
X148880952Y-94054819D02*
X149119047Y-94054819D01*
X149119047Y-94054819D02*
X149214285Y-94102438D01*
X149214285Y-94102438D02*
X149261904Y-94150057D01*
X149261904Y-94150057D02*
X149309523Y-94245295D01*
X149309523Y-94245295D02*
X149309523Y-94340533D01*
X149309523Y-94340533D02*
X149261904Y-94483390D01*
X149261904Y-94483390D02*
X148690476Y-95054819D01*
X148690476Y-95054819D02*
X149309523Y-95054819D01*
X149880952Y-94483390D02*
X149785714Y-94435771D01*
X149785714Y-94435771D02*
X149738095Y-94388152D01*
X149738095Y-94388152D02*
X149690476Y-94292914D01*
X149690476Y-94292914D02*
X149690476Y-94245295D01*
X149690476Y-94245295D02*
X149738095Y-94150057D01*
X149738095Y-94150057D02*
X149785714Y-94102438D01*
X149785714Y-94102438D02*
X149880952Y-94054819D01*
X149880952Y-94054819D02*
X150071428Y-94054819D01*
X150071428Y-94054819D02*
X150166666Y-94102438D01*
X150166666Y-94102438D02*
X150214285Y-94150057D01*
X150214285Y-94150057D02*
X150261904Y-94245295D01*
X150261904Y-94245295D02*
X150261904Y-94292914D01*
X150261904Y-94292914D02*
X150214285Y-94388152D01*
X150214285Y-94388152D02*
X150166666Y-94435771D01*
X150166666Y-94435771D02*
X150071428Y-94483390D01*
X150071428Y-94483390D02*
X149880952Y-94483390D01*
X149880952Y-94483390D02*
X149785714Y-94531009D01*
X149785714Y-94531009D02*
X149738095Y-94578628D01*
X149738095Y-94578628D02*
X149690476Y-94673866D01*
X149690476Y-94673866D02*
X149690476Y-94864342D01*
X149690476Y-94864342D02*
X149738095Y-94959580D01*
X149738095Y-94959580D02*
X149785714Y-95007200D01*
X149785714Y-95007200D02*
X149880952Y-95054819D01*
X149880952Y-95054819D02*
X150071428Y-95054819D01*
X150071428Y-95054819D02*
X150166666Y-95007200D01*
X150166666Y-95007200D02*
X150214285Y-94959580D01*
X150214285Y-94959580D02*
X150261904Y-94864342D01*
X150261904Y-94864342D02*
X150261904Y-94673866D01*
X150261904Y-94673866D02*
X150214285Y-94578628D01*
X150214285Y-94578628D02*
X150166666Y-94531009D01*
X150166666Y-94531009D02*
X150071428Y-94483390D01*
X145957142Y-100559580D02*
X145909523Y-100607200D01*
X145909523Y-100607200D02*
X145766666Y-100654819D01*
X145766666Y-100654819D02*
X145671428Y-100654819D01*
X145671428Y-100654819D02*
X145528571Y-100607200D01*
X145528571Y-100607200D02*
X145433333Y-100511961D01*
X145433333Y-100511961D02*
X145385714Y-100416723D01*
X145385714Y-100416723D02*
X145338095Y-100226247D01*
X145338095Y-100226247D02*
X145338095Y-100083390D01*
X145338095Y-100083390D02*
X145385714Y-99892914D01*
X145385714Y-99892914D02*
X145433333Y-99797676D01*
X145433333Y-99797676D02*
X145528571Y-99702438D01*
X145528571Y-99702438D02*
X145671428Y-99654819D01*
X145671428Y-99654819D02*
X145766666Y-99654819D01*
X145766666Y-99654819D02*
X145909523Y-99702438D01*
X145909523Y-99702438D02*
X145957142Y-99750057D01*
X146909523Y-100654819D02*
X146338095Y-100654819D01*
X146623809Y-100654819D02*
X146623809Y-99654819D01*
X146623809Y-99654819D02*
X146528571Y-99797676D01*
X146528571Y-99797676D02*
X146433333Y-99892914D01*
X146433333Y-99892914D02*
X146338095Y-99940533D01*
X147242857Y-99654819D02*
X147861904Y-99654819D01*
X147861904Y-99654819D02*
X147528571Y-100035771D01*
X147528571Y-100035771D02*
X147671428Y-100035771D01*
X147671428Y-100035771D02*
X147766666Y-100083390D01*
X147766666Y-100083390D02*
X147814285Y-100131009D01*
X147814285Y-100131009D02*
X147861904Y-100226247D01*
X147861904Y-100226247D02*
X147861904Y-100464342D01*
X147861904Y-100464342D02*
X147814285Y-100559580D01*
X147814285Y-100559580D02*
X147766666Y-100607200D01*
X147766666Y-100607200D02*
X147671428Y-100654819D01*
X147671428Y-100654819D02*
X147385714Y-100654819D01*
X147385714Y-100654819D02*
X147290476Y-100607200D01*
X147290476Y-100607200D02*
X147242857Y-100559580D01*
X148357142Y-96359580D02*
X148309523Y-96407200D01*
X148309523Y-96407200D02*
X148166666Y-96454819D01*
X148166666Y-96454819D02*
X148071428Y-96454819D01*
X148071428Y-96454819D02*
X147928571Y-96407200D01*
X147928571Y-96407200D02*
X147833333Y-96311961D01*
X147833333Y-96311961D02*
X147785714Y-96216723D01*
X147785714Y-96216723D02*
X147738095Y-96026247D01*
X147738095Y-96026247D02*
X147738095Y-95883390D01*
X147738095Y-95883390D02*
X147785714Y-95692914D01*
X147785714Y-95692914D02*
X147833333Y-95597676D01*
X147833333Y-95597676D02*
X147928571Y-95502438D01*
X147928571Y-95502438D02*
X148071428Y-95454819D01*
X148071428Y-95454819D02*
X148166666Y-95454819D01*
X148166666Y-95454819D02*
X148309523Y-95502438D01*
X148309523Y-95502438D02*
X148357142Y-95550057D01*
X148738095Y-95550057D02*
X148785714Y-95502438D01*
X148785714Y-95502438D02*
X148880952Y-95454819D01*
X148880952Y-95454819D02*
X149119047Y-95454819D01*
X149119047Y-95454819D02*
X149214285Y-95502438D01*
X149214285Y-95502438D02*
X149261904Y-95550057D01*
X149261904Y-95550057D02*
X149309523Y-95645295D01*
X149309523Y-95645295D02*
X149309523Y-95740533D01*
X149309523Y-95740533D02*
X149261904Y-95883390D01*
X149261904Y-95883390D02*
X148690476Y-96454819D01*
X148690476Y-96454819D02*
X149309523Y-96454819D01*
X149785714Y-96454819D02*
X149976190Y-96454819D01*
X149976190Y-96454819D02*
X150071428Y-96407200D01*
X150071428Y-96407200D02*
X150119047Y-96359580D01*
X150119047Y-96359580D02*
X150214285Y-96216723D01*
X150214285Y-96216723D02*
X150261904Y-96026247D01*
X150261904Y-96026247D02*
X150261904Y-95645295D01*
X150261904Y-95645295D02*
X150214285Y-95550057D01*
X150214285Y-95550057D02*
X150166666Y-95502438D01*
X150166666Y-95502438D02*
X150071428Y-95454819D01*
X150071428Y-95454819D02*
X149880952Y-95454819D01*
X149880952Y-95454819D02*
X149785714Y-95502438D01*
X149785714Y-95502438D02*
X149738095Y-95550057D01*
X149738095Y-95550057D02*
X149690476Y-95645295D01*
X149690476Y-95645295D02*
X149690476Y-95883390D01*
X149690476Y-95883390D02*
X149738095Y-95978628D01*
X149738095Y-95978628D02*
X149785714Y-96026247D01*
X149785714Y-96026247D02*
X149880952Y-96073866D01*
X149880952Y-96073866D02*
X150071428Y-96073866D01*
X150071428Y-96073866D02*
X150166666Y-96026247D01*
X150166666Y-96026247D02*
X150214285Y-95978628D01*
X150214285Y-95978628D02*
X150261904Y-95883390D01*
X199674819Y-83921904D02*
X199674819Y-83350476D01*
X200674819Y-83636190D02*
X199674819Y-83636190D01*
X200674819Y-82493333D02*
X200674819Y-83064761D01*
X200674819Y-82779047D02*
X199674819Y-82779047D01*
X199674819Y-82779047D02*
X199817676Y-82874285D01*
X199817676Y-82874285D02*
X199912914Y-82969523D01*
X199912914Y-82969523D02*
X199960533Y-83064761D01*
X163844819Y-67634285D02*
X163844819Y-68205713D01*
X163844819Y-67919999D02*
X162844819Y-67919999D01*
X162844819Y-67919999D02*
X162987676Y-68015237D01*
X162987676Y-68015237D02*
X163082914Y-68110475D01*
X163082914Y-68110475D02*
X163130533Y-68205713D01*
X163779642Y-129449819D02*
X163446309Y-128973628D01*
X163208214Y-129449819D02*
X163208214Y-128449819D01*
X163208214Y-128449819D02*
X163589166Y-128449819D01*
X163589166Y-128449819D02*
X163684404Y-128497438D01*
X163684404Y-128497438D02*
X163732023Y-128545057D01*
X163732023Y-128545057D02*
X163779642Y-128640295D01*
X163779642Y-128640295D02*
X163779642Y-128783152D01*
X163779642Y-128783152D02*
X163732023Y-128878390D01*
X163732023Y-128878390D02*
X163684404Y-128926009D01*
X163684404Y-128926009D02*
X163589166Y-128973628D01*
X163589166Y-128973628D02*
X163208214Y-128973628D01*
X164732023Y-129449819D02*
X164160595Y-129449819D01*
X164446309Y-129449819D02*
X164446309Y-128449819D01*
X164446309Y-128449819D02*
X164351071Y-128592676D01*
X164351071Y-128592676D02*
X164255833Y-128687914D01*
X164255833Y-128687914D02*
X164160595Y-128735533D01*
X165303452Y-128878390D02*
X165208214Y-128830771D01*
X165208214Y-128830771D02*
X165160595Y-128783152D01*
X165160595Y-128783152D02*
X165112976Y-128687914D01*
X165112976Y-128687914D02*
X165112976Y-128640295D01*
X165112976Y-128640295D02*
X165160595Y-128545057D01*
X165160595Y-128545057D02*
X165208214Y-128497438D01*
X165208214Y-128497438D02*
X165303452Y-128449819D01*
X165303452Y-128449819D02*
X165493928Y-128449819D01*
X165493928Y-128449819D02*
X165589166Y-128497438D01*
X165589166Y-128497438D02*
X165636785Y-128545057D01*
X165636785Y-128545057D02*
X165684404Y-128640295D01*
X165684404Y-128640295D02*
X165684404Y-128687914D01*
X165684404Y-128687914D02*
X165636785Y-128783152D01*
X165636785Y-128783152D02*
X165589166Y-128830771D01*
X165589166Y-128830771D02*
X165493928Y-128878390D01*
X165493928Y-128878390D02*
X165303452Y-128878390D01*
X165303452Y-128878390D02*
X165208214Y-128926009D01*
X165208214Y-128926009D02*
X165160595Y-128973628D01*
X165160595Y-128973628D02*
X165112976Y-129068866D01*
X165112976Y-129068866D02*
X165112976Y-129259342D01*
X165112976Y-129259342D02*
X165160595Y-129354580D01*
X165160595Y-129354580D02*
X165208214Y-129402200D01*
X165208214Y-129402200D02*
X165303452Y-129449819D01*
X165303452Y-129449819D02*
X165493928Y-129449819D01*
X165493928Y-129449819D02*
X165589166Y-129402200D01*
X165589166Y-129402200D02*
X165636785Y-129354580D01*
X165636785Y-129354580D02*
X165684404Y-129259342D01*
X165684404Y-129259342D02*
X165684404Y-129068866D01*
X165684404Y-129068866D02*
X165636785Y-128973628D01*
X165636785Y-128973628D02*
X165589166Y-128926009D01*
X165589166Y-128926009D02*
X165493928Y-128878390D01*
X144559580Y-116442857D02*
X144607200Y-116490476D01*
X144607200Y-116490476D02*
X144654819Y-116633333D01*
X144654819Y-116633333D02*
X144654819Y-116728571D01*
X144654819Y-116728571D02*
X144607200Y-116871428D01*
X144607200Y-116871428D02*
X144511961Y-116966666D01*
X144511961Y-116966666D02*
X144416723Y-117014285D01*
X144416723Y-117014285D02*
X144226247Y-117061904D01*
X144226247Y-117061904D02*
X144083390Y-117061904D01*
X144083390Y-117061904D02*
X143892914Y-117014285D01*
X143892914Y-117014285D02*
X143797676Y-116966666D01*
X143797676Y-116966666D02*
X143702438Y-116871428D01*
X143702438Y-116871428D02*
X143654819Y-116728571D01*
X143654819Y-116728571D02*
X143654819Y-116633333D01*
X143654819Y-116633333D02*
X143702438Y-116490476D01*
X143702438Y-116490476D02*
X143750057Y-116442857D01*
X144654819Y-115490476D02*
X144654819Y-116061904D01*
X144654819Y-115776190D02*
X143654819Y-115776190D01*
X143654819Y-115776190D02*
X143797676Y-115871428D01*
X143797676Y-115871428D02*
X143892914Y-115966666D01*
X143892914Y-115966666D02*
X143940533Y-116061904D01*
X143988152Y-114633333D02*
X144654819Y-114633333D01*
X143607200Y-114871428D02*
X144321485Y-115109523D01*
X144321485Y-115109523D02*
X144321485Y-114490476D01*
X140454819Y-115166666D02*
X140454819Y-115642856D01*
X140454819Y-115642856D02*
X139454819Y-115642856D01*
X140454819Y-114309523D02*
X140454819Y-114880951D01*
X140454819Y-114595237D02*
X139454819Y-114595237D01*
X139454819Y-114595237D02*
X139597676Y-114690475D01*
X139597676Y-114690475D02*
X139692914Y-114785713D01*
X139692914Y-114785713D02*
X139740533Y-114880951D01*
X164438095Y-114854819D02*
X164438095Y-115664342D01*
X164438095Y-115664342D02*
X164485714Y-115759580D01*
X164485714Y-115759580D02*
X164533333Y-115807200D01*
X164533333Y-115807200D02*
X164628571Y-115854819D01*
X164628571Y-115854819D02*
X164819047Y-115854819D01*
X164819047Y-115854819D02*
X164914285Y-115807200D01*
X164914285Y-115807200D02*
X164961904Y-115759580D01*
X164961904Y-115759580D02*
X165009523Y-115664342D01*
X165009523Y-115664342D02*
X165009523Y-114854819D01*
X165914285Y-115188152D02*
X165914285Y-115854819D01*
X165676190Y-114807200D02*
X165438095Y-115521485D01*
X165438095Y-115521485D02*
X166057142Y-115521485D01*
X135061905Y-83454819D02*
X135061905Y-82454819D01*
X135061905Y-82454819D02*
X135442857Y-82454819D01*
X135442857Y-82454819D02*
X135538095Y-82502438D01*
X135538095Y-82502438D02*
X135585714Y-82550057D01*
X135585714Y-82550057D02*
X135633333Y-82645295D01*
X135633333Y-82645295D02*
X135633333Y-82788152D01*
X135633333Y-82788152D02*
X135585714Y-82883390D01*
X135585714Y-82883390D02*
X135538095Y-82931009D01*
X135538095Y-82931009D02*
X135442857Y-82978628D01*
X135442857Y-82978628D02*
X135061905Y-82978628D01*
X136585714Y-83454819D02*
X136014286Y-83454819D01*
X136300000Y-83454819D02*
X136300000Y-82454819D01*
X136300000Y-82454819D02*
X136204762Y-82597676D01*
X136204762Y-82597676D02*
X136109524Y-82692914D01*
X136109524Y-82692914D02*
X136014286Y-82740533D01*
X183357142Y-106454819D02*
X183023809Y-105978628D01*
X182785714Y-106454819D02*
X182785714Y-105454819D01*
X182785714Y-105454819D02*
X183166666Y-105454819D01*
X183166666Y-105454819D02*
X183261904Y-105502438D01*
X183261904Y-105502438D02*
X183309523Y-105550057D01*
X183309523Y-105550057D02*
X183357142Y-105645295D01*
X183357142Y-105645295D02*
X183357142Y-105788152D01*
X183357142Y-105788152D02*
X183309523Y-105883390D01*
X183309523Y-105883390D02*
X183261904Y-105931009D01*
X183261904Y-105931009D02*
X183166666Y-105978628D01*
X183166666Y-105978628D02*
X182785714Y-105978628D01*
X183738095Y-105550057D02*
X183785714Y-105502438D01*
X183785714Y-105502438D02*
X183880952Y-105454819D01*
X183880952Y-105454819D02*
X184119047Y-105454819D01*
X184119047Y-105454819D02*
X184214285Y-105502438D01*
X184214285Y-105502438D02*
X184261904Y-105550057D01*
X184261904Y-105550057D02*
X184309523Y-105645295D01*
X184309523Y-105645295D02*
X184309523Y-105740533D01*
X184309523Y-105740533D02*
X184261904Y-105883390D01*
X184261904Y-105883390D02*
X183690476Y-106454819D01*
X183690476Y-106454819D02*
X184309523Y-106454819D01*
X184880952Y-105883390D02*
X184785714Y-105835771D01*
X184785714Y-105835771D02*
X184738095Y-105788152D01*
X184738095Y-105788152D02*
X184690476Y-105692914D01*
X184690476Y-105692914D02*
X184690476Y-105645295D01*
X184690476Y-105645295D02*
X184738095Y-105550057D01*
X184738095Y-105550057D02*
X184785714Y-105502438D01*
X184785714Y-105502438D02*
X184880952Y-105454819D01*
X184880952Y-105454819D02*
X185071428Y-105454819D01*
X185071428Y-105454819D02*
X185166666Y-105502438D01*
X185166666Y-105502438D02*
X185214285Y-105550057D01*
X185214285Y-105550057D02*
X185261904Y-105645295D01*
X185261904Y-105645295D02*
X185261904Y-105692914D01*
X185261904Y-105692914D02*
X185214285Y-105788152D01*
X185214285Y-105788152D02*
X185166666Y-105835771D01*
X185166666Y-105835771D02*
X185071428Y-105883390D01*
X185071428Y-105883390D02*
X184880952Y-105883390D01*
X184880952Y-105883390D02*
X184785714Y-105931009D01*
X184785714Y-105931009D02*
X184738095Y-105978628D01*
X184738095Y-105978628D02*
X184690476Y-106073866D01*
X184690476Y-106073866D02*
X184690476Y-106264342D01*
X184690476Y-106264342D02*
X184738095Y-106359580D01*
X184738095Y-106359580D02*
X184785714Y-106407200D01*
X184785714Y-106407200D02*
X184880952Y-106454819D01*
X184880952Y-106454819D02*
X185071428Y-106454819D01*
X185071428Y-106454819D02*
X185166666Y-106407200D01*
X185166666Y-106407200D02*
X185214285Y-106359580D01*
X185214285Y-106359580D02*
X185261904Y-106264342D01*
X185261904Y-106264342D02*
X185261904Y-106073866D01*
X185261904Y-106073866D02*
X185214285Y-105978628D01*
X185214285Y-105978628D02*
X185166666Y-105931009D01*
X185166666Y-105931009D02*
X185071428Y-105883390D01*
X135661905Y-87206819D02*
X135661905Y-86206819D01*
X135661905Y-86206819D02*
X136042857Y-86206819D01*
X136042857Y-86206819D02*
X136138095Y-86254438D01*
X136138095Y-86254438D02*
X136185714Y-86302057D01*
X136185714Y-86302057D02*
X136233333Y-86397295D01*
X136233333Y-86397295D02*
X136233333Y-86540152D01*
X136233333Y-86540152D02*
X136185714Y-86635390D01*
X136185714Y-86635390D02*
X136138095Y-86683009D01*
X136138095Y-86683009D02*
X136042857Y-86730628D01*
X136042857Y-86730628D02*
X135661905Y-86730628D01*
X136614286Y-86302057D02*
X136661905Y-86254438D01*
X136661905Y-86254438D02*
X136757143Y-86206819D01*
X136757143Y-86206819D02*
X136995238Y-86206819D01*
X136995238Y-86206819D02*
X137090476Y-86254438D01*
X137090476Y-86254438D02*
X137138095Y-86302057D01*
X137138095Y-86302057D02*
X137185714Y-86397295D01*
X137185714Y-86397295D02*
X137185714Y-86492533D01*
X137185714Y-86492533D02*
X137138095Y-86635390D01*
X137138095Y-86635390D02*
X136566667Y-87206819D01*
X136566667Y-87206819D02*
X137185714Y-87206819D01*
X156579642Y-118774580D02*
X156532023Y-118822200D01*
X156532023Y-118822200D02*
X156389166Y-118869819D01*
X156389166Y-118869819D02*
X156293928Y-118869819D01*
X156293928Y-118869819D02*
X156151071Y-118822200D01*
X156151071Y-118822200D02*
X156055833Y-118726961D01*
X156055833Y-118726961D02*
X156008214Y-118631723D01*
X156008214Y-118631723D02*
X155960595Y-118441247D01*
X155960595Y-118441247D02*
X155960595Y-118298390D01*
X155960595Y-118298390D02*
X156008214Y-118107914D01*
X156008214Y-118107914D02*
X156055833Y-118012676D01*
X156055833Y-118012676D02*
X156151071Y-117917438D01*
X156151071Y-117917438D02*
X156293928Y-117869819D01*
X156293928Y-117869819D02*
X156389166Y-117869819D01*
X156389166Y-117869819D02*
X156532023Y-117917438D01*
X156532023Y-117917438D02*
X156579642Y-117965057D01*
X156960595Y-117965057D02*
X157008214Y-117917438D01*
X157008214Y-117917438D02*
X157103452Y-117869819D01*
X157103452Y-117869819D02*
X157341547Y-117869819D01*
X157341547Y-117869819D02*
X157436785Y-117917438D01*
X157436785Y-117917438D02*
X157484404Y-117965057D01*
X157484404Y-117965057D02*
X157532023Y-118060295D01*
X157532023Y-118060295D02*
X157532023Y-118155533D01*
X157532023Y-118155533D02*
X157484404Y-118298390D01*
X157484404Y-118298390D02*
X156912976Y-118869819D01*
X156912976Y-118869819D02*
X157532023Y-118869819D01*
X158389166Y-117869819D02*
X158198690Y-117869819D01*
X158198690Y-117869819D02*
X158103452Y-117917438D01*
X158103452Y-117917438D02*
X158055833Y-117965057D01*
X158055833Y-117965057D02*
X157960595Y-118107914D01*
X157960595Y-118107914D02*
X157912976Y-118298390D01*
X157912976Y-118298390D02*
X157912976Y-118679342D01*
X157912976Y-118679342D02*
X157960595Y-118774580D01*
X157960595Y-118774580D02*
X158008214Y-118822200D01*
X158008214Y-118822200D02*
X158103452Y-118869819D01*
X158103452Y-118869819D02*
X158293928Y-118869819D01*
X158293928Y-118869819D02*
X158389166Y-118822200D01*
X158389166Y-118822200D02*
X158436785Y-118774580D01*
X158436785Y-118774580D02*
X158484404Y-118679342D01*
X158484404Y-118679342D02*
X158484404Y-118441247D01*
X158484404Y-118441247D02*
X158436785Y-118346009D01*
X158436785Y-118346009D02*
X158389166Y-118298390D01*
X158389166Y-118298390D02*
X158293928Y-118250771D01*
X158293928Y-118250771D02*
X158103452Y-118250771D01*
X158103452Y-118250771D02*
X158008214Y-118298390D01*
X158008214Y-118298390D02*
X157960595Y-118346009D01*
X157960595Y-118346009D02*
X157912976Y-118441247D01*
X143916666Y-121754819D02*
X143916666Y-122469104D01*
X143916666Y-122469104D02*
X143869047Y-122611961D01*
X143869047Y-122611961D02*
X143773809Y-122707200D01*
X143773809Y-122707200D02*
X143630952Y-122754819D01*
X143630952Y-122754819D02*
X143535714Y-122754819D01*
X144345238Y-121850057D02*
X144392857Y-121802438D01*
X144392857Y-121802438D02*
X144488095Y-121754819D01*
X144488095Y-121754819D02*
X144726190Y-121754819D01*
X144726190Y-121754819D02*
X144821428Y-121802438D01*
X144821428Y-121802438D02*
X144869047Y-121850057D01*
X144869047Y-121850057D02*
X144916666Y-121945295D01*
X144916666Y-121945295D02*
X144916666Y-122040533D01*
X144916666Y-122040533D02*
X144869047Y-122183390D01*
X144869047Y-122183390D02*
X144297619Y-122754819D01*
X144297619Y-122754819D02*
X144916666Y-122754819D01*
X187585595Y-107219819D02*
X187585595Y-108029342D01*
X187585595Y-108029342D02*
X187633214Y-108124580D01*
X187633214Y-108124580D02*
X187680833Y-108172200D01*
X187680833Y-108172200D02*
X187776071Y-108219819D01*
X187776071Y-108219819D02*
X187966547Y-108219819D01*
X187966547Y-108219819D02*
X188061785Y-108172200D01*
X188061785Y-108172200D02*
X188109404Y-108124580D01*
X188109404Y-108124580D02*
X188157023Y-108029342D01*
X188157023Y-108029342D02*
X188157023Y-107219819D01*
X188585595Y-107315057D02*
X188633214Y-107267438D01*
X188633214Y-107267438D02*
X188728452Y-107219819D01*
X188728452Y-107219819D02*
X188966547Y-107219819D01*
X188966547Y-107219819D02*
X189061785Y-107267438D01*
X189061785Y-107267438D02*
X189109404Y-107315057D01*
X189109404Y-107315057D02*
X189157023Y-107410295D01*
X189157023Y-107410295D02*
X189157023Y-107505533D01*
X189157023Y-107505533D02*
X189109404Y-107648390D01*
X189109404Y-107648390D02*
X188537976Y-108219819D01*
X188537976Y-108219819D02*
X189157023Y-108219819D01*
X228754819Y-92683333D02*
X229469104Y-92683333D01*
X229469104Y-92683333D02*
X229611961Y-92730952D01*
X229611961Y-92730952D02*
X229707200Y-92826190D01*
X229707200Y-92826190D02*
X229754819Y-92969047D01*
X229754819Y-92969047D02*
X229754819Y-93064285D01*
X229754819Y-91683333D02*
X229754819Y-92254761D01*
X229754819Y-91969047D02*
X228754819Y-91969047D01*
X228754819Y-91969047D02*
X228897676Y-92064285D01*
X228897676Y-92064285D02*
X228992914Y-92159523D01*
X228992914Y-92159523D02*
X229040533Y-92254761D01*
X149179642Y-121159580D02*
X149132023Y-121207200D01*
X149132023Y-121207200D02*
X148989166Y-121254819D01*
X148989166Y-121254819D02*
X148893928Y-121254819D01*
X148893928Y-121254819D02*
X148751071Y-121207200D01*
X148751071Y-121207200D02*
X148655833Y-121111961D01*
X148655833Y-121111961D02*
X148608214Y-121016723D01*
X148608214Y-121016723D02*
X148560595Y-120826247D01*
X148560595Y-120826247D02*
X148560595Y-120683390D01*
X148560595Y-120683390D02*
X148608214Y-120492914D01*
X148608214Y-120492914D02*
X148655833Y-120397676D01*
X148655833Y-120397676D02*
X148751071Y-120302438D01*
X148751071Y-120302438D02*
X148893928Y-120254819D01*
X148893928Y-120254819D02*
X148989166Y-120254819D01*
X148989166Y-120254819D02*
X149132023Y-120302438D01*
X149132023Y-120302438D02*
X149179642Y-120350057D01*
X149560595Y-120350057D02*
X149608214Y-120302438D01*
X149608214Y-120302438D02*
X149703452Y-120254819D01*
X149703452Y-120254819D02*
X149941547Y-120254819D01*
X149941547Y-120254819D02*
X150036785Y-120302438D01*
X150036785Y-120302438D02*
X150084404Y-120350057D01*
X150084404Y-120350057D02*
X150132023Y-120445295D01*
X150132023Y-120445295D02*
X150132023Y-120540533D01*
X150132023Y-120540533D02*
X150084404Y-120683390D01*
X150084404Y-120683390D02*
X149512976Y-121254819D01*
X149512976Y-121254819D02*
X150132023Y-121254819D01*
X150989166Y-120588152D02*
X150989166Y-121254819D01*
X150751071Y-120207200D02*
X150512976Y-120921485D01*
X150512976Y-120921485D02*
X151132023Y-120921485D01*
X151159580Y-87322857D02*
X151207200Y-87370476D01*
X151207200Y-87370476D02*
X151254819Y-87513333D01*
X151254819Y-87513333D02*
X151254819Y-87608571D01*
X151254819Y-87608571D02*
X151207200Y-87751428D01*
X151207200Y-87751428D02*
X151111961Y-87846666D01*
X151111961Y-87846666D02*
X151016723Y-87894285D01*
X151016723Y-87894285D02*
X150826247Y-87941904D01*
X150826247Y-87941904D02*
X150683390Y-87941904D01*
X150683390Y-87941904D02*
X150492914Y-87894285D01*
X150492914Y-87894285D02*
X150397676Y-87846666D01*
X150397676Y-87846666D02*
X150302438Y-87751428D01*
X150302438Y-87751428D02*
X150254819Y-87608571D01*
X150254819Y-87608571D02*
X150254819Y-87513333D01*
X150254819Y-87513333D02*
X150302438Y-87370476D01*
X150302438Y-87370476D02*
X150350057Y-87322857D01*
X151254819Y-86370476D02*
X151254819Y-86941904D01*
X151254819Y-86656190D02*
X150254819Y-86656190D01*
X150254819Y-86656190D02*
X150397676Y-86751428D01*
X150397676Y-86751428D02*
X150492914Y-86846666D01*
X150492914Y-86846666D02*
X150540533Y-86941904D01*
X150683390Y-85799047D02*
X150635771Y-85894285D01*
X150635771Y-85894285D02*
X150588152Y-85941904D01*
X150588152Y-85941904D02*
X150492914Y-85989523D01*
X150492914Y-85989523D02*
X150445295Y-85989523D01*
X150445295Y-85989523D02*
X150350057Y-85941904D01*
X150350057Y-85941904D02*
X150302438Y-85894285D01*
X150302438Y-85894285D02*
X150254819Y-85799047D01*
X150254819Y-85799047D02*
X150254819Y-85608571D01*
X150254819Y-85608571D02*
X150302438Y-85513333D01*
X150302438Y-85513333D02*
X150350057Y-85465714D01*
X150350057Y-85465714D02*
X150445295Y-85418095D01*
X150445295Y-85418095D02*
X150492914Y-85418095D01*
X150492914Y-85418095D02*
X150588152Y-85465714D01*
X150588152Y-85465714D02*
X150635771Y-85513333D01*
X150635771Y-85513333D02*
X150683390Y-85608571D01*
X150683390Y-85608571D02*
X150683390Y-85799047D01*
X150683390Y-85799047D02*
X150731009Y-85894285D01*
X150731009Y-85894285D02*
X150778628Y-85941904D01*
X150778628Y-85941904D02*
X150873866Y-85989523D01*
X150873866Y-85989523D02*
X151064342Y-85989523D01*
X151064342Y-85989523D02*
X151159580Y-85941904D01*
X151159580Y-85941904D02*
X151207200Y-85894285D01*
X151207200Y-85894285D02*
X151254819Y-85799047D01*
X151254819Y-85799047D02*
X151254819Y-85608571D01*
X151254819Y-85608571D02*
X151207200Y-85513333D01*
X151207200Y-85513333D02*
X151159580Y-85465714D01*
X151159580Y-85465714D02*
X151064342Y-85418095D01*
X151064342Y-85418095D02*
X150873866Y-85418095D01*
X150873866Y-85418095D02*
X150778628Y-85465714D01*
X150778628Y-85465714D02*
X150731009Y-85513333D01*
X150731009Y-85513333D02*
X150683390Y-85608571D01*
X138054819Y-83042857D02*
X137578628Y-83376190D01*
X138054819Y-83614285D02*
X137054819Y-83614285D01*
X137054819Y-83614285D02*
X137054819Y-83233333D01*
X137054819Y-83233333D02*
X137102438Y-83138095D01*
X137102438Y-83138095D02*
X137150057Y-83090476D01*
X137150057Y-83090476D02*
X137245295Y-83042857D01*
X137245295Y-83042857D02*
X137388152Y-83042857D01*
X137388152Y-83042857D02*
X137483390Y-83090476D01*
X137483390Y-83090476D02*
X137531009Y-83138095D01*
X137531009Y-83138095D02*
X137578628Y-83233333D01*
X137578628Y-83233333D02*
X137578628Y-83614285D01*
X138054819Y-82090476D02*
X138054819Y-82661904D01*
X138054819Y-82376190D02*
X137054819Y-82376190D01*
X137054819Y-82376190D02*
X137197676Y-82471428D01*
X137197676Y-82471428D02*
X137292914Y-82566666D01*
X137292914Y-82566666D02*
X137340533Y-82661904D01*
X138054819Y-81614285D02*
X138054819Y-81423809D01*
X138054819Y-81423809D02*
X138007200Y-81328571D01*
X138007200Y-81328571D02*
X137959580Y-81280952D01*
X137959580Y-81280952D02*
X137816723Y-81185714D01*
X137816723Y-81185714D02*
X137626247Y-81138095D01*
X137626247Y-81138095D02*
X137245295Y-81138095D01*
X137245295Y-81138095D02*
X137150057Y-81185714D01*
X137150057Y-81185714D02*
X137102438Y-81233333D01*
X137102438Y-81233333D02*
X137054819Y-81328571D01*
X137054819Y-81328571D02*
X137054819Y-81519047D01*
X137054819Y-81519047D02*
X137102438Y-81614285D01*
X137102438Y-81614285D02*
X137150057Y-81661904D01*
X137150057Y-81661904D02*
X137245295Y-81709523D01*
X137245295Y-81709523D02*
X137483390Y-81709523D01*
X137483390Y-81709523D02*
X137578628Y-81661904D01*
X137578628Y-81661904D02*
X137626247Y-81614285D01*
X137626247Y-81614285D02*
X137673866Y-81519047D01*
X137673866Y-81519047D02*
X137673866Y-81328571D01*
X137673866Y-81328571D02*
X137626247Y-81233333D01*
X137626247Y-81233333D02*
X137578628Y-81185714D01*
X137578628Y-81185714D02*
X137483390Y-81138095D01*
X159638095Y-106854819D02*
X159638095Y-107664342D01*
X159638095Y-107664342D02*
X159685714Y-107759580D01*
X159685714Y-107759580D02*
X159733333Y-107807200D01*
X159733333Y-107807200D02*
X159828571Y-107854819D01*
X159828571Y-107854819D02*
X160019047Y-107854819D01*
X160019047Y-107854819D02*
X160114285Y-107807200D01*
X160114285Y-107807200D02*
X160161904Y-107759580D01*
X160161904Y-107759580D02*
X160209523Y-107664342D01*
X160209523Y-107664342D02*
X160209523Y-106854819D01*
X160828571Y-107283390D02*
X160733333Y-107235771D01*
X160733333Y-107235771D02*
X160685714Y-107188152D01*
X160685714Y-107188152D02*
X160638095Y-107092914D01*
X160638095Y-107092914D02*
X160638095Y-107045295D01*
X160638095Y-107045295D02*
X160685714Y-106950057D01*
X160685714Y-106950057D02*
X160733333Y-106902438D01*
X160733333Y-106902438D02*
X160828571Y-106854819D01*
X160828571Y-106854819D02*
X161019047Y-106854819D01*
X161019047Y-106854819D02*
X161114285Y-106902438D01*
X161114285Y-106902438D02*
X161161904Y-106950057D01*
X161161904Y-106950057D02*
X161209523Y-107045295D01*
X161209523Y-107045295D02*
X161209523Y-107092914D01*
X161209523Y-107092914D02*
X161161904Y-107188152D01*
X161161904Y-107188152D02*
X161114285Y-107235771D01*
X161114285Y-107235771D02*
X161019047Y-107283390D01*
X161019047Y-107283390D02*
X160828571Y-107283390D01*
X160828571Y-107283390D02*
X160733333Y-107331009D01*
X160733333Y-107331009D02*
X160685714Y-107378628D01*
X160685714Y-107378628D02*
X160638095Y-107473866D01*
X160638095Y-107473866D02*
X160638095Y-107664342D01*
X160638095Y-107664342D02*
X160685714Y-107759580D01*
X160685714Y-107759580D02*
X160733333Y-107807200D01*
X160733333Y-107807200D02*
X160828571Y-107854819D01*
X160828571Y-107854819D02*
X161019047Y-107854819D01*
X161019047Y-107854819D02*
X161114285Y-107807200D01*
X161114285Y-107807200D02*
X161161904Y-107759580D01*
X161161904Y-107759580D02*
X161209523Y-107664342D01*
X161209523Y-107664342D02*
X161209523Y-107473866D01*
X161209523Y-107473866D02*
X161161904Y-107378628D01*
X161161904Y-107378628D02*
X161114285Y-107331009D01*
X161114285Y-107331009D02*
X161019047Y-107283390D01*
X153261905Y-110654819D02*
X153261905Y-109654819D01*
X153261905Y-109654819D02*
X153500000Y-109654819D01*
X153500000Y-109654819D02*
X153642857Y-109702438D01*
X153642857Y-109702438D02*
X153738095Y-109797676D01*
X153738095Y-109797676D02*
X153785714Y-109892914D01*
X153785714Y-109892914D02*
X153833333Y-110083390D01*
X153833333Y-110083390D02*
X153833333Y-110226247D01*
X153833333Y-110226247D02*
X153785714Y-110416723D01*
X153785714Y-110416723D02*
X153738095Y-110511961D01*
X153738095Y-110511961D02*
X153642857Y-110607200D01*
X153642857Y-110607200D02*
X153500000Y-110654819D01*
X153500000Y-110654819D02*
X153261905Y-110654819D01*
X154166667Y-109654819D02*
X154833333Y-109654819D01*
X154833333Y-109654819D02*
X154404762Y-110654819D01*
X137424819Y-78642857D02*
X136948628Y-78976190D01*
X137424819Y-79214285D02*
X136424819Y-79214285D01*
X136424819Y-79214285D02*
X136424819Y-78833333D01*
X136424819Y-78833333D02*
X136472438Y-78738095D01*
X136472438Y-78738095D02*
X136520057Y-78690476D01*
X136520057Y-78690476D02*
X136615295Y-78642857D01*
X136615295Y-78642857D02*
X136758152Y-78642857D01*
X136758152Y-78642857D02*
X136853390Y-78690476D01*
X136853390Y-78690476D02*
X136901009Y-78738095D01*
X136901009Y-78738095D02*
X136948628Y-78833333D01*
X136948628Y-78833333D02*
X136948628Y-79214285D01*
X136520057Y-78261904D02*
X136472438Y-78214285D01*
X136472438Y-78214285D02*
X136424819Y-78119047D01*
X136424819Y-78119047D02*
X136424819Y-77880952D01*
X136424819Y-77880952D02*
X136472438Y-77785714D01*
X136472438Y-77785714D02*
X136520057Y-77738095D01*
X136520057Y-77738095D02*
X136615295Y-77690476D01*
X136615295Y-77690476D02*
X136710533Y-77690476D01*
X136710533Y-77690476D02*
X136853390Y-77738095D01*
X136853390Y-77738095D02*
X137424819Y-78309523D01*
X137424819Y-78309523D02*
X137424819Y-77690476D01*
X137424819Y-77214285D02*
X137424819Y-77023809D01*
X137424819Y-77023809D02*
X137377200Y-76928571D01*
X137377200Y-76928571D02*
X137329580Y-76880952D01*
X137329580Y-76880952D02*
X137186723Y-76785714D01*
X137186723Y-76785714D02*
X136996247Y-76738095D01*
X136996247Y-76738095D02*
X136615295Y-76738095D01*
X136615295Y-76738095D02*
X136520057Y-76785714D01*
X136520057Y-76785714D02*
X136472438Y-76833333D01*
X136472438Y-76833333D02*
X136424819Y-76928571D01*
X136424819Y-76928571D02*
X136424819Y-77119047D01*
X136424819Y-77119047D02*
X136472438Y-77214285D01*
X136472438Y-77214285D02*
X136520057Y-77261904D01*
X136520057Y-77261904D02*
X136615295Y-77309523D01*
X136615295Y-77309523D02*
X136853390Y-77309523D01*
X136853390Y-77309523D02*
X136948628Y-77261904D01*
X136948628Y-77261904D02*
X136996247Y-77214285D01*
X136996247Y-77214285D02*
X137043866Y-77119047D01*
X137043866Y-77119047D02*
X137043866Y-76928571D01*
X137043866Y-76928571D02*
X136996247Y-76833333D01*
X136996247Y-76833333D02*
X136948628Y-76785714D01*
X136948628Y-76785714D02*
X136853390Y-76738095D01*
X169833333Y-111359580D02*
X169785714Y-111407200D01*
X169785714Y-111407200D02*
X169642857Y-111454819D01*
X169642857Y-111454819D02*
X169547619Y-111454819D01*
X169547619Y-111454819D02*
X169404762Y-111407200D01*
X169404762Y-111407200D02*
X169309524Y-111311961D01*
X169309524Y-111311961D02*
X169261905Y-111216723D01*
X169261905Y-111216723D02*
X169214286Y-111026247D01*
X169214286Y-111026247D02*
X169214286Y-110883390D01*
X169214286Y-110883390D02*
X169261905Y-110692914D01*
X169261905Y-110692914D02*
X169309524Y-110597676D01*
X169309524Y-110597676D02*
X169404762Y-110502438D01*
X169404762Y-110502438D02*
X169547619Y-110454819D01*
X169547619Y-110454819D02*
X169642857Y-110454819D01*
X169642857Y-110454819D02*
X169785714Y-110502438D01*
X169785714Y-110502438D02*
X169833333Y-110550057D01*
X170309524Y-111454819D02*
X170500000Y-111454819D01*
X170500000Y-111454819D02*
X170595238Y-111407200D01*
X170595238Y-111407200D02*
X170642857Y-111359580D01*
X170642857Y-111359580D02*
X170738095Y-111216723D01*
X170738095Y-111216723D02*
X170785714Y-111026247D01*
X170785714Y-111026247D02*
X170785714Y-110645295D01*
X170785714Y-110645295D02*
X170738095Y-110550057D01*
X170738095Y-110550057D02*
X170690476Y-110502438D01*
X170690476Y-110502438D02*
X170595238Y-110454819D01*
X170595238Y-110454819D02*
X170404762Y-110454819D01*
X170404762Y-110454819D02*
X170309524Y-110502438D01*
X170309524Y-110502438D02*
X170261905Y-110550057D01*
X170261905Y-110550057D02*
X170214286Y-110645295D01*
X170214286Y-110645295D02*
X170214286Y-110883390D01*
X170214286Y-110883390D02*
X170261905Y-110978628D01*
X170261905Y-110978628D02*
X170309524Y-111026247D01*
X170309524Y-111026247D02*
X170404762Y-111073866D01*
X170404762Y-111073866D02*
X170595238Y-111073866D01*
X170595238Y-111073866D02*
X170690476Y-111026247D01*
X170690476Y-111026247D02*
X170738095Y-110978628D01*
X170738095Y-110978628D02*
X170785714Y-110883390D01*
X151757142Y-121254819D02*
X151423809Y-120778628D01*
X151185714Y-121254819D02*
X151185714Y-120254819D01*
X151185714Y-120254819D02*
X151566666Y-120254819D01*
X151566666Y-120254819D02*
X151661904Y-120302438D01*
X151661904Y-120302438D02*
X151709523Y-120350057D01*
X151709523Y-120350057D02*
X151757142Y-120445295D01*
X151757142Y-120445295D02*
X151757142Y-120588152D01*
X151757142Y-120588152D02*
X151709523Y-120683390D01*
X151709523Y-120683390D02*
X151661904Y-120731009D01*
X151661904Y-120731009D02*
X151566666Y-120778628D01*
X151566666Y-120778628D02*
X151185714Y-120778628D01*
X152138095Y-120350057D02*
X152185714Y-120302438D01*
X152185714Y-120302438D02*
X152280952Y-120254819D01*
X152280952Y-120254819D02*
X152519047Y-120254819D01*
X152519047Y-120254819D02*
X152614285Y-120302438D01*
X152614285Y-120302438D02*
X152661904Y-120350057D01*
X152661904Y-120350057D02*
X152709523Y-120445295D01*
X152709523Y-120445295D02*
X152709523Y-120540533D01*
X152709523Y-120540533D02*
X152661904Y-120683390D01*
X152661904Y-120683390D02*
X152090476Y-121254819D01*
X152090476Y-121254819D02*
X152709523Y-121254819D01*
X153614285Y-120254819D02*
X153138095Y-120254819D01*
X153138095Y-120254819D02*
X153090476Y-120731009D01*
X153090476Y-120731009D02*
X153138095Y-120683390D01*
X153138095Y-120683390D02*
X153233333Y-120635771D01*
X153233333Y-120635771D02*
X153471428Y-120635771D01*
X153471428Y-120635771D02*
X153566666Y-120683390D01*
X153566666Y-120683390D02*
X153614285Y-120731009D01*
X153614285Y-120731009D02*
X153661904Y-120826247D01*
X153661904Y-120826247D02*
X153661904Y-121064342D01*
X153661904Y-121064342D02*
X153614285Y-121159580D01*
X153614285Y-121159580D02*
X153566666Y-121207200D01*
X153566666Y-121207200D02*
X153471428Y-121254819D01*
X153471428Y-121254819D02*
X153233333Y-121254819D01*
X153233333Y-121254819D02*
X153138095Y-121207200D01*
X153138095Y-121207200D02*
X153090476Y-121159580D01*
X140054819Y-78561904D02*
X140864342Y-78561904D01*
X140864342Y-78561904D02*
X140959580Y-78514285D01*
X140959580Y-78514285D02*
X141007200Y-78466666D01*
X141007200Y-78466666D02*
X141054819Y-78371428D01*
X141054819Y-78371428D02*
X141054819Y-78180952D01*
X141054819Y-78180952D02*
X141007200Y-78085714D01*
X141007200Y-78085714D02*
X140959580Y-78038095D01*
X140959580Y-78038095D02*
X140864342Y-77990476D01*
X140864342Y-77990476D02*
X140054819Y-77990476D01*
X141054819Y-76990476D02*
X141054819Y-77561904D01*
X141054819Y-77276190D02*
X140054819Y-77276190D01*
X140054819Y-77276190D02*
X140197676Y-77371428D01*
X140197676Y-77371428D02*
X140292914Y-77466666D01*
X140292914Y-77466666D02*
X140340533Y-77561904D01*
X161379642Y-115074580D02*
X161332023Y-115122200D01*
X161332023Y-115122200D02*
X161189166Y-115169819D01*
X161189166Y-115169819D02*
X161093928Y-115169819D01*
X161093928Y-115169819D02*
X160951071Y-115122200D01*
X160951071Y-115122200D02*
X160855833Y-115026961D01*
X160855833Y-115026961D02*
X160808214Y-114931723D01*
X160808214Y-114931723D02*
X160760595Y-114741247D01*
X160760595Y-114741247D02*
X160760595Y-114598390D01*
X160760595Y-114598390D02*
X160808214Y-114407914D01*
X160808214Y-114407914D02*
X160855833Y-114312676D01*
X160855833Y-114312676D02*
X160951071Y-114217438D01*
X160951071Y-114217438D02*
X161093928Y-114169819D01*
X161093928Y-114169819D02*
X161189166Y-114169819D01*
X161189166Y-114169819D02*
X161332023Y-114217438D01*
X161332023Y-114217438D02*
X161379642Y-114265057D01*
X161760595Y-114265057D02*
X161808214Y-114217438D01*
X161808214Y-114217438D02*
X161903452Y-114169819D01*
X161903452Y-114169819D02*
X162141547Y-114169819D01*
X162141547Y-114169819D02*
X162236785Y-114217438D01*
X162236785Y-114217438D02*
X162284404Y-114265057D01*
X162284404Y-114265057D02*
X162332023Y-114360295D01*
X162332023Y-114360295D02*
X162332023Y-114455533D01*
X162332023Y-114455533D02*
X162284404Y-114598390D01*
X162284404Y-114598390D02*
X161712976Y-115169819D01*
X161712976Y-115169819D02*
X162332023Y-115169819D01*
X163236785Y-114169819D02*
X162760595Y-114169819D01*
X162760595Y-114169819D02*
X162712976Y-114646009D01*
X162712976Y-114646009D02*
X162760595Y-114598390D01*
X162760595Y-114598390D02*
X162855833Y-114550771D01*
X162855833Y-114550771D02*
X163093928Y-114550771D01*
X163093928Y-114550771D02*
X163189166Y-114598390D01*
X163189166Y-114598390D02*
X163236785Y-114646009D01*
X163236785Y-114646009D02*
X163284404Y-114741247D01*
X163284404Y-114741247D02*
X163284404Y-114979342D01*
X163284404Y-114979342D02*
X163236785Y-115074580D01*
X163236785Y-115074580D02*
X163189166Y-115122200D01*
X163189166Y-115122200D02*
X163093928Y-115169819D01*
X163093928Y-115169819D02*
X162855833Y-115169819D01*
X162855833Y-115169819D02*
X162760595Y-115122200D01*
X162760595Y-115122200D02*
X162712976Y-115074580D01*
X169833333Y-112959580D02*
X169785714Y-113007200D01*
X169785714Y-113007200D02*
X169642857Y-113054819D01*
X169642857Y-113054819D02*
X169547619Y-113054819D01*
X169547619Y-113054819D02*
X169404762Y-113007200D01*
X169404762Y-113007200D02*
X169309524Y-112911961D01*
X169309524Y-112911961D02*
X169261905Y-112816723D01*
X169261905Y-112816723D02*
X169214286Y-112626247D01*
X169214286Y-112626247D02*
X169214286Y-112483390D01*
X169214286Y-112483390D02*
X169261905Y-112292914D01*
X169261905Y-112292914D02*
X169309524Y-112197676D01*
X169309524Y-112197676D02*
X169404762Y-112102438D01*
X169404762Y-112102438D02*
X169547619Y-112054819D01*
X169547619Y-112054819D02*
X169642857Y-112054819D01*
X169642857Y-112054819D02*
X169785714Y-112102438D01*
X169785714Y-112102438D02*
X169833333Y-112150057D01*
X170166667Y-112054819D02*
X170833333Y-112054819D01*
X170833333Y-112054819D02*
X170404762Y-113054819D01*
X139323809Y-90378628D02*
X139323809Y-90854819D01*
X138990476Y-89854819D02*
X139323809Y-90378628D01*
X139323809Y-90378628D02*
X139657142Y-89854819D01*
X140514285Y-90854819D02*
X139942857Y-90854819D01*
X140228571Y-90854819D02*
X140228571Y-89854819D01*
X140228571Y-89854819D02*
X140133333Y-89997676D01*
X140133333Y-89997676D02*
X140038095Y-90092914D01*
X140038095Y-90092914D02*
X139942857Y-90140533D01*
X196461905Y-111554819D02*
X196461905Y-110554819D01*
X196461905Y-110554819D02*
X196700000Y-110554819D01*
X196700000Y-110554819D02*
X196842857Y-110602438D01*
X196842857Y-110602438D02*
X196938095Y-110697676D01*
X196938095Y-110697676D02*
X196985714Y-110792914D01*
X196985714Y-110792914D02*
X197033333Y-110983390D01*
X197033333Y-110983390D02*
X197033333Y-111126247D01*
X197033333Y-111126247D02*
X196985714Y-111316723D01*
X196985714Y-111316723D02*
X196938095Y-111411961D01*
X196938095Y-111411961D02*
X196842857Y-111507200D01*
X196842857Y-111507200D02*
X196700000Y-111554819D01*
X196700000Y-111554819D02*
X196461905Y-111554819D01*
X197604762Y-110983390D02*
X197509524Y-110935771D01*
X197509524Y-110935771D02*
X197461905Y-110888152D01*
X197461905Y-110888152D02*
X197414286Y-110792914D01*
X197414286Y-110792914D02*
X197414286Y-110745295D01*
X197414286Y-110745295D02*
X197461905Y-110650057D01*
X197461905Y-110650057D02*
X197509524Y-110602438D01*
X197509524Y-110602438D02*
X197604762Y-110554819D01*
X197604762Y-110554819D02*
X197795238Y-110554819D01*
X197795238Y-110554819D02*
X197890476Y-110602438D01*
X197890476Y-110602438D02*
X197938095Y-110650057D01*
X197938095Y-110650057D02*
X197985714Y-110745295D01*
X197985714Y-110745295D02*
X197985714Y-110792914D01*
X197985714Y-110792914D02*
X197938095Y-110888152D01*
X197938095Y-110888152D02*
X197890476Y-110935771D01*
X197890476Y-110935771D02*
X197795238Y-110983390D01*
X197795238Y-110983390D02*
X197604762Y-110983390D01*
X197604762Y-110983390D02*
X197509524Y-111031009D01*
X197509524Y-111031009D02*
X197461905Y-111078628D01*
X197461905Y-111078628D02*
X197414286Y-111173866D01*
X197414286Y-111173866D02*
X197414286Y-111364342D01*
X197414286Y-111364342D02*
X197461905Y-111459580D01*
X197461905Y-111459580D02*
X197509524Y-111507200D01*
X197509524Y-111507200D02*
X197604762Y-111554819D01*
X197604762Y-111554819D02*
X197795238Y-111554819D01*
X197795238Y-111554819D02*
X197890476Y-111507200D01*
X197890476Y-111507200D02*
X197938095Y-111459580D01*
X197938095Y-111459580D02*
X197985714Y-111364342D01*
X197985714Y-111364342D02*
X197985714Y-111173866D01*
X197985714Y-111173866D02*
X197938095Y-111078628D01*
X197938095Y-111078628D02*
X197890476Y-111031009D01*
X197890476Y-111031009D02*
X197795238Y-110983390D01*
X140757142Y-121454819D02*
X140423809Y-120978628D01*
X140185714Y-121454819D02*
X140185714Y-120454819D01*
X140185714Y-120454819D02*
X140566666Y-120454819D01*
X140566666Y-120454819D02*
X140661904Y-120502438D01*
X140661904Y-120502438D02*
X140709523Y-120550057D01*
X140709523Y-120550057D02*
X140757142Y-120645295D01*
X140757142Y-120645295D02*
X140757142Y-120788152D01*
X140757142Y-120788152D02*
X140709523Y-120883390D01*
X140709523Y-120883390D02*
X140661904Y-120931009D01*
X140661904Y-120931009D02*
X140566666Y-120978628D01*
X140566666Y-120978628D02*
X140185714Y-120978628D01*
X141138095Y-120550057D02*
X141185714Y-120502438D01*
X141185714Y-120502438D02*
X141280952Y-120454819D01*
X141280952Y-120454819D02*
X141519047Y-120454819D01*
X141519047Y-120454819D02*
X141614285Y-120502438D01*
X141614285Y-120502438D02*
X141661904Y-120550057D01*
X141661904Y-120550057D02*
X141709523Y-120645295D01*
X141709523Y-120645295D02*
X141709523Y-120740533D01*
X141709523Y-120740533D02*
X141661904Y-120883390D01*
X141661904Y-120883390D02*
X141090476Y-121454819D01*
X141090476Y-121454819D02*
X141709523Y-121454819D01*
X142090476Y-120550057D02*
X142138095Y-120502438D01*
X142138095Y-120502438D02*
X142233333Y-120454819D01*
X142233333Y-120454819D02*
X142471428Y-120454819D01*
X142471428Y-120454819D02*
X142566666Y-120502438D01*
X142566666Y-120502438D02*
X142614285Y-120550057D01*
X142614285Y-120550057D02*
X142661904Y-120645295D01*
X142661904Y-120645295D02*
X142661904Y-120740533D01*
X142661904Y-120740533D02*
X142614285Y-120883390D01*
X142614285Y-120883390D02*
X142042857Y-121454819D01*
X142042857Y-121454819D02*
X142661904Y-121454819D01*
X140757142Y-122559580D02*
X140709523Y-122607200D01*
X140709523Y-122607200D02*
X140566666Y-122654819D01*
X140566666Y-122654819D02*
X140471428Y-122654819D01*
X140471428Y-122654819D02*
X140328571Y-122607200D01*
X140328571Y-122607200D02*
X140233333Y-122511961D01*
X140233333Y-122511961D02*
X140185714Y-122416723D01*
X140185714Y-122416723D02*
X140138095Y-122226247D01*
X140138095Y-122226247D02*
X140138095Y-122083390D01*
X140138095Y-122083390D02*
X140185714Y-121892914D01*
X140185714Y-121892914D02*
X140233333Y-121797676D01*
X140233333Y-121797676D02*
X140328571Y-121702438D01*
X140328571Y-121702438D02*
X140471428Y-121654819D01*
X140471428Y-121654819D02*
X140566666Y-121654819D01*
X140566666Y-121654819D02*
X140709523Y-121702438D01*
X140709523Y-121702438D02*
X140757142Y-121750057D01*
X141709523Y-122654819D02*
X141138095Y-122654819D01*
X141423809Y-122654819D02*
X141423809Y-121654819D01*
X141423809Y-121654819D02*
X141328571Y-121797676D01*
X141328571Y-121797676D02*
X141233333Y-121892914D01*
X141233333Y-121892914D02*
X141138095Y-121940533D01*
X142090476Y-121750057D02*
X142138095Y-121702438D01*
X142138095Y-121702438D02*
X142233333Y-121654819D01*
X142233333Y-121654819D02*
X142471428Y-121654819D01*
X142471428Y-121654819D02*
X142566666Y-121702438D01*
X142566666Y-121702438D02*
X142614285Y-121750057D01*
X142614285Y-121750057D02*
X142661904Y-121845295D01*
X142661904Y-121845295D02*
X142661904Y-121940533D01*
X142661904Y-121940533D02*
X142614285Y-122083390D01*
X142614285Y-122083390D02*
X142042857Y-122654819D01*
X142042857Y-122654819D02*
X142661904Y-122654819D01*
X158260595Y-124844819D02*
X158260595Y-125654342D01*
X158260595Y-125654342D02*
X158308214Y-125749580D01*
X158308214Y-125749580D02*
X158355833Y-125797200D01*
X158355833Y-125797200D02*
X158451071Y-125844819D01*
X158451071Y-125844819D02*
X158641547Y-125844819D01*
X158641547Y-125844819D02*
X158736785Y-125797200D01*
X158736785Y-125797200D02*
X158784404Y-125749580D01*
X158784404Y-125749580D02*
X158832023Y-125654342D01*
X158832023Y-125654342D02*
X158832023Y-124844819D01*
X159784404Y-124844819D02*
X159308214Y-124844819D01*
X159308214Y-124844819D02*
X159260595Y-125321009D01*
X159260595Y-125321009D02*
X159308214Y-125273390D01*
X159308214Y-125273390D02*
X159403452Y-125225771D01*
X159403452Y-125225771D02*
X159641547Y-125225771D01*
X159641547Y-125225771D02*
X159736785Y-125273390D01*
X159736785Y-125273390D02*
X159784404Y-125321009D01*
X159784404Y-125321009D02*
X159832023Y-125416247D01*
X159832023Y-125416247D02*
X159832023Y-125654342D01*
X159832023Y-125654342D02*
X159784404Y-125749580D01*
X159784404Y-125749580D02*
X159736785Y-125797200D01*
X159736785Y-125797200D02*
X159641547Y-125844819D01*
X159641547Y-125844819D02*
X159403452Y-125844819D01*
X159403452Y-125844819D02*
X159308214Y-125797200D01*
X159308214Y-125797200D02*
X159260595Y-125749580D01*
X175961905Y-105854819D02*
X175961905Y-106664342D01*
X175961905Y-106664342D02*
X176009524Y-106759580D01*
X176009524Y-106759580D02*
X176057143Y-106807200D01*
X176057143Y-106807200D02*
X176152381Y-106854819D01*
X176152381Y-106854819D02*
X176342857Y-106854819D01*
X176342857Y-106854819D02*
X176438095Y-106807200D01*
X176438095Y-106807200D02*
X176485714Y-106759580D01*
X176485714Y-106759580D02*
X176533333Y-106664342D01*
X176533333Y-106664342D02*
X176533333Y-105854819D01*
X177533333Y-106854819D02*
X176961905Y-106854819D01*
X177247619Y-106854819D02*
X177247619Y-105854819D01*
X177247619Y-105854819D02*
X177152381Y-105997676D01*
X177152381Y-105997676D02*
X177057143Y-106092914D01*
X177057143Y-106092914D02*
X176961905Y-106140533D01*
X178152381Y-105854819D02*
X178247619Y-105854819D01*
X178247619Y-105854819D02*
X178342857Y-105902438D01*
X178342857Y-105902438D02*
X178390476Y-105950057D01*
X178390476Y-105950057D02*
X178438095Y-106045295D01*
X178438095Y-106045295D02*
X178485714Y-106235771D01*
X178485714Y-106235771D02*
X178485714Y-106473866D01*
X178485714Y-106473866D02*
X178438095Y-106664342D01*
X178438095Y-106664342D02*
X178390476Y-106759580D01*
X178390476Y-106759580D02*
X178342857Y-106807200D01*
X178342857Y-106807200D02*
X178247619Y-106854819D01*
X178247619Y-106854819D02*
X178152381Y-106854819D01*
X178152381Y-106854819D02*
X178057143Y-106807200D01*
X178057143Y-106807200D02*
X178009524Y-106759580D01*
X178009524Y-106759580D02*
X177961905Y-106664342D01*
X177961905Y-106664342D02*
X177914286Y-106473866D01*
X177914286Y-106473866D02*
X177914286Y-106235771D01*
X177914286Y-106235771D02*
X177961905Y-106045295D01*
X177961905Y-106045295D02*
X178009524Y-105950057D01*
X178009524Y-105950057D02*
X178057143Y-105902438D01*
X178057143Y-105902438D02*
X178152381Y-105854819D01*
X159304761Y-70550057D02*
X159209523Y-70502438D01*
X159209523Y-70502438D02*
X159114285Y-70407200D01*
X159114285Y-70407200D02*
X158971428Y-70264342D01*
X158971428Y-70264342D02*
X158876190Y-70216723D01*
X158876190Y-70216723D02*
X158780952Y-70216723D01*
X158828571Y-70454819D02*
X158733333Y-70407200D01*
X158733333Y-70407200D02*
X158638095Y-70311961D01*
X158638095Y-70311961D02*
X158590476Y-70121485D01*
X158590476Y-70121485D02*
X158590476Y-69788152D01*
X158590476Y-69788152D02*
X158638095Y-69597676D01*
X158638095Y-69597676D02*
X158733333Y-69502438D01*
X158733333Y-69502438D02*
X158828571Y-69454819D01*
X158828571Y-69454819D02*
X159019047Y-69454819D01*
X159019047Y-69454819D02*
X159114285Y-69502438D01*
X159114285Y-69502438D02*
X159209523Y-69597676D01*
X159209523Y-69597676D02*
X159257142Y-69788152D01*
X159257142Y-69788152D02*
X159257142Y-70121485D01*
X159257142Y-70121485D02*
X159209523Y-70311961D01*
X159209523Y-70311961D02*
X159114285Y-70407200D01*
X159114285Y-70407200D02*
X159019047Y-70454819D01*
X159019047Y-70454819D02*
X158828571Y-70454819D01*
X159638095Y-69550057D02*
X159685714Y-69502438D01*
X159685714Y-69502438D02*
X159780952Y-69454819D01*
X159780952Y-69454819D02*
X160019047Y-69454819D01*
X160019047Y-69454819D02*
X160114285Y-69502438D01*
X160114285Y-69502438D02*
X160161904Y-69550057D01*
X160161904Y-69550057D02*
X160209523Y-69645295D01*
X160209523Y-69645295D02*
X160209523Y-69740533D01*
X160209523Y-69740533D02*
X160161904Y-69883390D01*
X160161904Y-69883390D02*
X159590476Y-70454819D01*
X159590476Y-70454819D02*
X160209523Y-70454819D01*
X143061905Y-105954819D02*
X143061905Y-104954819D01*
X143061905Y-104954819D02*
X143300000Y-104954819D01*
X143300000Y-104954819D02*
X143442857Y-105002438D01*
X143442857Y-105002438D02*
X143538095Y-105097676D01*
X143538095Y-105097676D02*
X143585714Y-105192914D01*
X143585714Y-105192914D02*
X143633333Y-105383390D01*
X143633333Y-105383390D02*
X143633333Y-105526247D01*
X143633333Y-105526247D02*
X143585714Y-105716723D01*
X143585714Y-105716723D02*
X143538095Y-105811961D01*
X143538095Y-105811961D02*
X143442857Y-105907200D01*
X143442857Y-105907200D02*
X143300000Y-105954819D01*
X143300000Y-105954819D02*
X143061905Y-105954819D01*
X144538095Y-104954819D02*
X144061905Y-104954819D01*
X144061905Y-104954819D02*
X144014286Y-105431009D01*
X144014286Y-105431009D02*
X144061905Y-105383390D01*
X144061905Y-105383390D02*
X144157143Y-105335771D01*
X144157143Y-105335771D02*
X144395238Y-105335771D01*
X144395238Y-105335771D02*
X144490476Y-105383390D01*
X144490476Y-105383390D02*
X144538095Y-105431009D01*
X144538095Y-105431009D02*
X144585714Y-105526247D01*
X144585714Y-105526247D02*
X144585714Y-105764342D01*
X144585714Y-105764342D02*
X144538095Y-105859580D01*
X144538095Y-105859580D02*
X144490476Y-105907200D01*
X144490476Y-105907200D02*
X144395238Y-105954819D01*
X144395238Y-105954819D02*
X144157143Y-105954819D01*
X144157143Y-105954819D02*
X144061905Y-105907200D01*
X144061905Y-105907200D02*
X144014286Y-105859580D01*
X141854819Y-68042857D02*
X141378628Y-68376190D01*
X141854819Y-68614285D02*
X140854819Y-68614285D01*
X140854819Y-68614285D02*
X140854819Y-68233333D01*
X140854819Y-68233333D02*
X140902438Y-68138095D01*
X140902438Y-68138095D02*
X140950057Y-68090476D01*
X140950057Y-68090476D02*
X141045295Y-68042857D01*
X141045295Y-68042857D02*
X141188152Y-68042857D01*
X141188152Y-68042857D02*
X141283390Y-68090476D01*
X141283390Y-68090476D02*
X141331009Y-68138095D01*
X141331009Y-68138095D02*
X141378628Y-68233333D01*
X141378628Y-68233333D02*
X141378628Y-68614285D01*
X140950057Y-67661904D02*
X140902438Y-67614285D01*
X140902438Y-67614285D02*
X140854819Y-67519047D01*
X140854819Y-67519047D02*
X140854819Y-67280952D01*
X140854819Y-67280952D02*
X140902438Y-67185714D01*
X140902438Y-67185714D02*
X140950057Y-67138095D01*
X140950057Y-67138095D02*
X141045295Y-67090476D01*
X141045295Y-67090476D02*
X141140533Y-67090476D01*
X141140533Y-67090476D02*
X141283390Y-67138095D01*
X141283390Y-67138095D02*
X141854819Y-67709523D01*
X141854819Y-67709523D02*
X141854819Y-67090476D01*
X141854819Y-66138095D02*
X141854819Y-66709523D01*
X141854819Y-66423809D02*
X140854819Y-66423809D01*
X140854819Y-66423809D02*
X140997676Y-66519047D01*
X140997676Y-66519047D02*
X141092914Y-66614285D01*
X141092914Y-66614285D02*
X141140533Y-66709523D01*
X154359580Y-112842857D02*
X154407200Y-112890476D01*
X154407200Y-112890476D02*
X154454819Y-113033333D01*
X154454819Y-113033333D02*
X154454819Y-113128571D01*
X154454819Y-113128571D02*
X154407200Y-113271428D01*
X154407200Y-113271428D02*
X154311961Y-113366666D01*
X154311961Y-113366666D02*
X154216723Y-113414285D01*
X154216723Y-113414285D02*
X154026247Y-113461904D01*
X154026247Y-113461904D02*
X153883390Y-113461904D01*
X153883390Y-113461904D02*
X153692914Y-113414285D01*
X153692914Y-113414285D02*
X153597676Y-113366666D01*
X153597676Y-113366666D02*
X153502438Y-113271428D01*
X153502438Y-113271428D02*
X153454819Y-113128571D01*
X153454819Y-113128571D02*
X153454819Y-113033333D01*
X153454819Y-113033333D02*
X153502438Y-112890476D01*
X153502438Y-112890476D02*
X153550057Y-112842857D01*
X153550057Y-112461904D02*
X153502438Y-112414285D01*
X153502438Y-112414285D02*
X153454819Y-112319047D01*
X153454819Y-112319047D02*
X153454819Y-112080952D01*
X153454819Y-112080952D02*
X153502438Y-111985714D01*
X153502438Y-111985714D02*
X153550057Y-111938095D01*
X153550057Y-111938095D02*
X153645295Y-111890476D01*
X153645295Y-111890476D02*
X153740533Y-111890476D01*
X153740533Y-111890476D02*
X153883390Y-111938095D01*
X153883390Y-111938095D02*
X154454819Y-112509523D01*
X154454819Y-112509523D02*
X154454819Y-111890476D01*
X153550057Y-111509523D02*
X153502438Y-111461904D01*
X153502438Y-111461904D02*
X153454819Y-111366666D01*
X153454819Y-111366666D02*
X153454819Y-111128571D01*
X153454819Y-111128571D02*
X153502438Y-111033333D01*
X153502438Y-111033333D02*
X153550057Y-110985714D01*
X153550057Y-110985714D02*
X153645295Y-110938095D01*
X153645295Y-110938095D02*
X153740533Y-110938095D01*
X153740533Y-110938095D02*
X153883390Y-110985714D01*
X153883390Y-110985714D02*
X154454819Y-111557142D01*
X154454819Y-111557142D02*
X154454819Y-110938095D01*
X196461905Y-104554819D02*
X196461905Y-103554819D01*
X196461905Y-103554819D02*
X196700000Y-103554819D01*
X196700000Y-103554819D02*
X196842857Y-103602438D01*
X196842857Y-103602438D02*
X196938095Y-103697676D01*
X196938095Y-103697676D02*
X196985714Y-103792914D01*
X196985714Y-103792914D02*
X197033333Y-103983390D01*
X197033333Y-103983390D02*
X197033333Y-104126247D01*
X197033333Y-104126247D02*
X196985714Y-104316723D01*
X196985714Y-104316723D02*
X196938095Y-104411961D01*
X196938095Y-104411961D02*
X196842857Y-104507200D01*
X196842857Y-104507200D02*
X196700000Y-104554819D01*
X196700000Y-104554819D02*
X196461905Y-104554819D01*
X197509524Y-104554819D02*
X197700000Y-104554819D01*
X197700000Y-104554819D02*
X197795238Y-104507200D01*
X197795238Y-104507200D02*
X197842857Y-104459580D01*
X197842857Y-104459580D02*
X197938095Y-104316723D01*
X197938095Y-104316723D02*
X197985714Y-104126247D01*
X197985714Y-104126247D02*
X197985714Y-103745295D01*
X197985714Y-103745295D02*
X197938095Y-103650057D01*
X197938095Y-103650057D02*
X197890476Y-103602438D01*
X197890476Y-103602438D02*
X197795238Y-103554819D01*
X197795238Y-103554819D02*
X197604762Y-103554819D01*
X197604762Y-103554819D02*
X197509524Y-103602438D01*
X197509524Y-103602438D02*
X197461905Y-103650057D01*
X197461905Y-103650057D02*
X197414286Y-103745295D01*
X197414286Y-103745295D02*
X197414286Y-103983390D01*
X197414286Y-103983390D02*
X197461905Y-104078628D01*
X197461905Y-104078628D02*
X197509524Y-104126247D01*
X197509524Y-104126247D02*
X197604762Y-104173866D01*
X197604762Y-104173866D02*
X197795238Y-104173866D01*
X197795238Y-104173866D02*
X197890476Y-104126247D01*
X197890476Y-104126247D02*
X197938095Y-104078628D01*
X197938095Y-104078628D02*
X197985714Y-103983390D01*
X203609580Y-81292857D02*
X203657200Y-81340476D01*
X203657200Y-81340476D02*
X203704819Y-81483333D01*
X203704819Y-81483333D02*
X203704819Y-81578571D01*
X203704819Y-81578571D02*
X203657200Y-81721428D01*
X203657200Y-81721428D02*
X203561961Y-81816666D01*
X203561961Y-81816666D02*
X203466723Y-81864285D01*
X203466723Y-81864285D02*
X203276247Y-81911904D01*
X203276247Y-81911904D02*
X203133390Y-81911904D01*
X203133390Y-81911904D02*
X202942914Y-81864285D01*
X202942914Y-81864285D02*
X202847676Y-81816666D01*
X202847676Y-81816666D02*
X202752438Y-81721428D01*
X202752438Y-81721428D02*
X202704819Y-81578571D01*
X202704819Y-81578571D02*
X202704819Y-81483333D01*
X202704819Y-81483333D02*
X202752438Y-81340476D01*
X202752438Y-81340476D02*
X202800057Y-81292857D01*
X202704819Y-80959523D02*
X202704819Y-80340476D01*
X202704819Y-80340476D02*
X203085771Y-80673809D01*
X203085771Y-80673809D02*
X203085771Y-80530952D01*
X203085771Y-80530952D02*
X203133390Y-80435714D01*
X203133390Y-80435714D02*
X203181009Y-80388095D01*
X203181009Y-80388095D02*
X203276247Y-80340476D01*
X203276247Y-80340476D02*
X203514342Y-80340476D01*
X203514342Y-80340476D02*
X203609580Y-80388095D01*
X203609580Y-80388095D02*
X203657200Y-80435714D01*
X203657200Y-80435714D02*
X203704819Y-80530952D01*
X203704819Y-80530952D02*
X203704819Y-80816666D01*
X203704819Y-80816666D02*
X203657200Y-80911904D01*
X203657200Y-80911904D02*
X203609580Y-80959523D01*
X202704819Y-79721428D02*
X202704819Y-79626190D01*
X202704819Y-79626190D02*
X202752438Y-79530952D01*
X202752438Y-79530952D02*
X202800057Y-79483333D01*
X202800057Y-79483333D02*
X202895295Y-79435714D01*
X202895295Y-79435714D02*
X203085771Y-79388095D01*
X203085771Y-79388095D02*
X203323866Y-79388095D01*
X203323866Y-79388095D02*
X203514342Y-79435714D01*
X203514342Y-79435714D02*
X203609580Y-79483333D01*
X203609580Y-79483333D02*
X203657200Y-79530952D01*
X203657200Y-79530952D02*
X203704819Y-79626190D01*
X203704819Y-79626190D02*
X203704819Y-79721428D01*
X203704819Y-79721428D02*
X203657200Y-79816666D01*
X203657200Y-79816666D02*
X203609580Y-79864285D01*
X203609580Y-79864285D02*
X203514342Y-79911904D01*
X203514342Y-79911904D02*
X203323866Y-79959523D01*
X203323866Y-79959523D02*
X203085771Y-79959523D01*
X203085771Y-79959523D02*
X202895295Y-79911904D01*
X202895295Y-79911904D02*
X202800057Y-79864285D01*
X202800057Y-79864285D02*
X202752438Y-79816666D01*
X202752438Y-79816666D02*
X202704819Y-79721428D01*
X141557142Y-94359580D02*
X141509523Y-94407200D01*
X141509523Y-94407200D02*
X141366666Y-94454819D01*
X141366666Y-94454819D02*
X141271428Y-94454819D01*
X141271428Y-94454819D02*
X141128571Y-94407200D01*
X141128571Y-94407200D02*
X141033333Y-94311961D01*
X141033333Y-94311961D02*
X140985714Y-94216723D01*
X140985714Y-94216723D02*
X140938095Y-94026247D01*
X140938095Y-94026247D02*
X140938095Y-93883390D01*
X140938095Y-93883390D02*
X140985714Y-93692914D01*
X140985714Y-93692914D02*
X141033333Y-93597676D01*
X141033333Y-93597676D02*
X141128571Y-93502438D01*
X141128571Y-93502438D02*
X141271428Y-93454819D01*
X141271428Y-93454819D02*
X141366666Y-93454819D01*
X141366666Y-93454819D02*
X141509523Y-93502438D01*
X141509523Y-93502438D02*
X141557142Y-93550057D01*
X142509523Y-94454819D02*
X141938095Y-94454819D01*
X142223809Y-94454819D02*
X142223809Y-93454819D01*
X142223809Y-93454819D02*
X142128571Y-93597676D01*
X142128571Y-93597676D02*
X142033333Y-93692914D01*
X142033333Y-93692914D02*
X141938095Y-93740533D01*
X143414285Y-93454819D02*
X142938095Y-93454819D01*
X142938095Y-93454819D02*
X142890476Y-93931009D01*
X142890476Y-93931009D02*
X142938095Y-93883390D01*
X142938095Y-93883390D02*
X143033333Y-93835771D01*
X143033333Y-93835771D02*
X143271428Y-93835771D01*
X143271428Y-93835771D02*
X143366666Y-93883390D01*
X143366666Y-93883390D02*
X143414285Y-93931009D01*
X143414285Y-93931009D02*
X143461904Y-94026247D01*
X143461904Y-94026247D02*
X143461904Y-94264342D01*
X143461904Y-94264342D02*
X143414285Y-94359580D01*
X143414285Y-94359580D02*
X143366666Y-94407200D01*
X143366666Y-94407200D02*
X143271428Y-94454819D01*
X143271428Y-94454819D02*
X143033333Y-94454819D01*
X143033333Y-94454819D02*
X142938095Y-94407200D01*
X142938095Y-94407200D02*
X142890476Y-94359580D01*
X153959580Y-90842857D02*
X154007200Y-90890476D01*
X154007200Y-90890476D02*
X154054819Y-91033333D01*
X154054819Y-91033333D02*
X154054819Y-91128571D01*
X154054819Y-91128571D02*
X154007200Y-91271428D01*
X154007200Y-91271428D02*
X153911961Y-91366666D01*
X153911961Y-91366666D02*
X153816723Y-91414285D01*
X153816723Y-91414285D02*
X153626247Y-91461904D01*
X153626247Y-91461904D02*
X153483390Y-91461904D01*
X153483390Y-91461904D02*
X153292914Y-91414285D01*
X153292914Y-91414285D02*
X153197676Y-91366666D01*
X153197676Y-91366666D02*
X153102438Y-91271428D01*
X153102438Y-91271428D02*
X153054819Y-91128571D01*
X153054819Y-91128571D02*
X153054819Y-91033333D01*
X153054819Y-91033333D02*
X153102438Y-90890476D01*
X153102438Y-90890476D02*
X153150057Y-90842857D01*
X154054819Y-89890476D02*
X154054819Y-90461904D01*
X154054819Y-90176190D02*
X153054819Y-90176190D01*
X153054819Y-90176190D02*
X153197676Y-90271428D01*
X153197676Y-90271428D02*
X153292914Y-90366666D01*
X153292914Y-90366666D02*
X153340533Y-90461904D01*
X153054819Y-89557142D02*
X153054819Y-88890476D01*
X153054819Y-88890476D02*
X154054819Y-89319047D01*
X141454819Y-73761904D02*
X142264342Y-73761904D01*
X142264342Y-73761904D02*
X142359580Y-73714285D01*
X142359580Y-73714285D02*
X142407200Y-73666666D01*
X142407200Y-73666666D02*
X142454819Y-73571428D01*
X142454819Y-73571428D02*
X142454819Y-73380952D01*
X142454819Y-73380952D02*
X142407200Y-73285714D01*
X142407200Y-73285714D02*
X142359580Y-73238095D01*
X142359580Y-73238095D02*
X142264342Y-73190476D01*
X142264342Y-73190476D02*
X141454819Y-73190476D01*
X141454819Y-72809523D02*
X141454819Y-72142857D01*
X141454819Y-72142857D02*
X142454819Y-72571428D01*
X135354819Y-117200594D02*
X134354819Y-117200594D01*
X134354819Y-117200594D02*
X134354819Y-116962499D01*
X134354819Y-116962499D02*
X134402438Y-116819642D01*
X134402438Y-116819642D02*
X134497676Y-116724404D01*
X134497676Y-116724404D02*
X134592914Y-116676785D01*
X134592914Y-116676785D02*
X134783390Y-116629166D01*
X134783390Y-116629166D02*
X134926247Y-116629166D01*
X134926247Y-116629166D02*
X135116723Y-116676785D01*
X135116723Y-116676785D02*
X135211961Y-116724404D01*
X135211961Y-116724404D02*
X135307200Y-116819642D01*
X135307200Y-116819642D02*
X135354819Y-116962499D01*
X135354819Y-116962499D02*
X135354819Y-117200594D01*
X134354819Y-115772023D02*
X134354819Y-115962499D01*
X134354819Y-115962499D02*
X134402438Y-116057737D01*
X134402438Y-116057737D02*
X134450057Y-116105356D01*
X134450057Y-116105356D02*
X134592914Y-116200594D01*
X134592914Y-116200594D02*
X134783390Y-116248213D01*
X134783390Y-116248213D02*
X135164342Y-116248213D01*
X135164342Y-116248213D02*
X135259580Y-116200594D01*
X135259580Y-116200594D02*
X135307200Y-116152975D01*
X135307200Y-116152975D02*
X135354819Y-116057737D01*
X135354819Y-116057737D02*
X135354819Y-115867261D01*
X135354819Y-115867261D02*
X135307200Y-115772023D01*
X135307200Y-115772023D02*
X135259580Y-115724404D01*
X135259580Y-115724404D02*
X135164342Y-115676785D01*
X135164342Y-115676785D02*
X134926247Y-115676785D01*
X134926247Y-115676785D02*
X134831009Y-115724404D01*
X134831009Y-115724404D02*
X134783390Y-115772023D01*
X134783390Y-115772023D02*
X134735771Y-115867261D01*
X134735771Y-115867261D02*
X134735771Y-116057737D01*
X134735771Y-116057737D02*
X134783390Y-116152975D01*
X134783390Y-116152975D02*
X134831009Y-116200594D01*
X134831009Y-116200594D02*
X134926247Y-116248213D01*
X183057142Y-112304819D02*
X182723809Y-111828628D01*
X182485714Y-112304819D02*
X182485714Y-111304819D01*
X182485714Y-111304819D02*
X182866666Y-111304819D01*
X182866666Y-111304819D02*
X182961904Y-111352438D01*
X182961904Y-111352438D02*
X183009523Y-111400057D01*
X183009523Y-111400057D02*
X183057142Y-111495295D01*
X183057142Y-111495295D02*
X183057142Y-111638152D01*
X183057142Y-111638152D02*
X183009523Y-111733390D01*
X183009523Y-111733390D02*
X182961904Y-111781009D01*
X182961904Y-111781009D02*
X182866666Y-111828628D01*
X182866666Y-111828628D02*
X182485714Y-111828628D01*
X183438095Y-111400057D02*
X183485714Y-111352438D01*
X183485714Y-111352438D02*
X183580952Y-111304819D01*
X183580952Y-111304819D02*
X183819047Y-111304819D01*
X183819047Y-111304819D02*
X183914285Y-111352438D01*
X183914285Y-111352438D02*
X183961904Y-111400057D01*
X183961904Y-111400057D02*
X184009523Y-111495295D01*
X184009523Y-111495295D02*
X184009523Y-111590533D01*
X184009523Y-111590533D02*
X183961904Y-111733390D01*
X183961904Y-111733390D02*
X183390476Y-112304819D01*
X183390476Y-112304819D02*
X184009523Y-112304819D01*
X184866666Y-111304819D02*
X184676190Y-111304819D01*
X184676190Y-111304819D02*
X184580952Y-111352438D01*
X184580952Y-111352438D02*
X184533333Y-111400057D01*
X184533333Y-111400057D02*
X184438095Y-111542914D01*
X184438095Y-111542914D02*
X184390476Y-111733390D01*
X184390476Y-111733390D02*
X184390476Y-112114342D01*
X184390476Y-112114342D02*
X184438095Y-112209580D01*
X184438095Y-112209580D02*
X184485714Y-112257200D01*
X184485714Y-112257200D02*
X184580952Y-112304819D01*
X184580952Y-112304819D02*
X184771428Y-112304819D01*
X184771428Y-112304819D02*
X184866666Y-112257200D01*
X184866666Y-112257200D02*
X184914285Y-112209580D01*
X184914285Y-112209580D02*
X184961904Y-112114342D01*
X184961904Y-112114342D02*
X184961904Y-111876247D01*
X184961904Y-111876247D02*
X184914285Y-111781009D01*
X184914285Y-111781009D02*
X184866666Y-111733390D01*
X184866666Y-111733390D02*
X184771428Y-111685771D01*
X184771428Y-111685771D02*
X184580952Y-111685771D01*
X184580952Y-111685771D02*
X184485714Y-111733390D01*
X184485714Y-111733390D02*
X184438095Y-111781009D01*
X184438095Y-111781009D02*
X184390476Y-111876247D01*
X159304761Y-75950057D02*
X159209523Y-75902438D01*
X159209523Y-75902438D02*
X159114285Y-75807200D01*
X159114285Y-75807200D02*
X158971428Y-75664342D01*
X158971428Y-75664342D02*
X158876190Y-75616723D01*
X158876190Y-75616723D02*
X158780952Y-75616723D01*
X158828571Y-75854819D02*
X158733333Y-75807200D01*
X158733333Y-75807200D02*
X158638095Y-75711961D01*
X158638095Y-75711961D02*
X158590476Y-75521485D01*
X158590476Y-75521485D02*
X158590476Y-75188152D01*
X158590476Y-75188152D02*
X158638095Y-74997676D01*
X158638095Y-74997676D02*
X158733333Y-74902438D01*
X158733333Y-74902438D02*
X158828571Y-74854819D01*
X158828571Y-74854819D02*
X159019047Y-74854819D01*
X159019047Y-74854819D02*
X159114285Y-74902438D01*
X159114285Y-74902438D02*
X159209523Y-74997676D01*
X159209523Y-74997676D02*
X159257142Y-75188152D01*
X159257142Y-75188152D02*
X159257142Y-75521485D01*
X159257142Y-75521485D02*
X159209523Y-75711961D01*
X159209523Y-75711961D02*
X159114285Y-75807200D01*
X159114285Y-75807200D02*
X159019047Y-75854819D01*
X159019047Y-75854819D02*
X158828571Y-75854819D01*
X159590476Y-74854819D02*
X160209523Y-74854819D01*
X160209523Y-74854819D02*
X159876190Y-75235771D01*
X159876190Y-75235771D02*
X160019047Y-75235771D01*
X160019047Y-75235771D02*
X160114285Y-75283390D01*
X160114285Y-75283390D02*
X160161904Y-75331009D01*
X160161904Y-75331009D02*
X160209523Y-75426247D01*
X160209523Y-75426247D02*
X160209523Y-75664342D01*
X160209523Y-75664342D02*
X160161904Y-75759580D01*
X160161904Y-75759580D02*
X160114285Y-75807200D01*
X160114285Y-75807200D02*
X160019047Y-75854819D01*
X160019047Y-75854819D02*
X159733333Y-75854819D01*
X159733333Y-75854819D02*
X159638095Y-75807200D01*
X159638095Y-75807200D02*
X159590476Y-75759580D01*
X148166666Y-93131009D02*
X147833333Y-93131009D01*
X147833333Y-93654819D02*
X147833333Y-92654819D01*
X147833333Y-92654819D02*
X148309523Y-92654819D01*
X149023809Y-93131009D02*
X149166666Y-93178628D01*
X149166666Y-93178628D02*
X149214285Y-93226247D01*
X149214285Y-93226247D02*
X149261904Y-93321485D01*
X149261904Y-93321485D02*
X149261904Y-93464342D01*
X149261904Y-93464342D02*
X149214285Y-93559580D01*
X149214285Y-93559580D02*
X149166666Y-93607200D01*
X149166666Y-93607200D02*
X149071428Y-93654819D01*
X149071428Y-93654819D02*
X148690476Y-93654819D01*
X148690476Y-93654819D02*
X148690476Y-92654819D01*
X148690476Y-92654819D02*
X149023809Y-92654819D01*
X149023809Y-92654819D02*
X149119047Y-92702438D01*
X149119047Y-92702438D02*
X149166666Y-92750057D01*
X149166666Y-92750057D02*
X149214285Y-92845295D01*
X149214285Y-92845295D02*
X149214285Y-92940533D01*
X149214285Y-92940533D02*
X149166666Y-93035771D01*
X149166666Y-93035771D02*
X149119047Y-93083390D01*
X149119047Y-93083390D02*
X149023809Y-93131009D01*
X149023809Y-93131009D02*
X148690476Y-93131009D01*
X150214285Y-93654819D02*
X149642857Y-93654819D01*
X149928571Y-93654819D02*
X149928571Y-92654819D01*
X149928571Y-92654819D02*
X149833333Y-92797676D01*
X149833333Y-92797676D02*
X149738095Y-92892914D01*
X149738095Y-92892914D02*
X149642857Y-92940533D01*
X138624819Y-88442857D02*
X138148628Y-88776190D01*
X138624819Y-89014285D02*
X137624819Y-89014285D01*
X137624819Y-89014285D02*
X137624819Y-88633333D01*
X137624819Y-88633333D02*
X137672438Y-88538095D01*
X137672438Y-88538095D02*
X137720057Y-88490476D01*
X137720057Y-88490476D02*
X137815295Y-88442857D01*
X137815295Y-88442857D02*
X137958152Y-88442857D01*
X137958152Y-88442857D02*
X138053390Y-88490476D01*
X138053390Y-88490476D02*
X138101009Y-88538095D01*
X138101009Y-88538095D02*
X138148628Y-88633333D01*
X138148628Y-88633333D02*
X138148628Y-89014285D01*
X137720057Y-88061904D02*
X137672438Y-88014285D01*
X137672438Y-88014285D02*
X137624819Y-87919047D01*
X137624819Y-87919047D02*
X137624819Y-87680952D01*
X137624819Y-87680952D02*
X137672438Y-87585714D01*
X137672438Y-87585714D02*
X137720057Y-87538095D01*
X137720057Y-87538095D02*
X137815295Y-87490476D01*
X137815295Y-87490476D02*
X137910533Y-87490476D01*
X137910533Y-87490476D02*
X138053390Y-87538095D01*
X138053390Y-87538095D02*
X138624819Y-88109523D01*
X138624819Y-88109523D02*
X138624819Y-87490476D01*
X137624819Y-86871428D02*
X137624819Y-86776190D01*
X137624819Y-86776190D02*
X137672438Y-86680952D01*
X137672438Y-86680952D02*
X137720057Y-86633333D01*
X137720057Y-86633333D02*
X137815295Y-86585714D01*
X137815295Y-86585714D02*
X138005771Y-86538095D01*
X138005771Y-86538095D02*
X138243866Y-86538095D01*
X138243866Y-86538095D02*
X138434342Y-86585714D01*
X138434342Y-86585714D02*
X138529580Y-86633333D01*
X138529580Y-86633333D02*
X138577200Y-86680952D01*
X138577200Y-86680952D02*
X138624819Y-86776190D01*
X138624819Y-86776190D02*
X138624819Y-86871428D01*
X138624819Y-86871428D02*
X138577200Y-86966666D01*
X138577200Y-86966666D02*
X138529580Y-87014285D01*
X138529580Y-87014285D02*
X138434342Y-87061904D01*
X138434342Y-87061904D02*
X138243866Y-87109523D01*
X138243866Y-87109523D02*
X138005771Y-87109523D01*
X138005771Y-87109523D02*
X137815295Y-87061904D01*
X137815295Y-87061904D02*
X137720057Y-87014285D01*
X137720057Y-87014285D02*
X137672438Y-86966666D01*
X137672438Y-86966666D02*
X137624819Y-86871428D01*
X176138095Y-126954819D02*
X176138095Y-127764342D01*
X176138095Y-127764342D02*
X176185714Y-127859580D01*
X176185714Y-127859580D02*
X176233333Y-127907200D01*
X176233333Y-127907200D02*
X176328571Y-127954819D01*
X176328571Y-127954819D02*
X176519047Y-127954819D01*
X176519047Y-127954819D02*
X176614285Y-127907200D01*
X176614285Y-127907200D02*
X176661904Y-127859580D01*
X176661904Y-127859580D02*
X176709523Y-127764342D01*
X176709523Y-127764342D02*
X176709523Y-126954819D01*
X177090476Y-126954819D02*
X177709523Y-126954819D01*
X177709523Y-126954819D02*
X177376190Y-127335771D01*
X177376190Y-127335771D02*
X177519047Y-127335771D01*
X177519047Y-127335771D02*
X177614285Y-127383390D01*
X177614285Y-127383390D02*
X177661904Y-127431009D01*
X177661904Y-127431009D02*
X177709523Y-127526247D01*
X177709523Y-127526247D02*
X177709523Y-127764342D01*
X177709523Y-127764342D02*
X177661904Y-127859580D01*
X177661904Y-127859580D02*
X177614285Y-127907200D01*
X177614285Y-127907200D02*
X177519047Y-127954819D01*
X177519047Y-127954819D02*
X177233333Y-127954819D01*
X177233333Y-127954819D02*
X177138095Y-127907200D01*
X177138095Y-127907200D02*
X177090476Y-127859580D01*
X147159580Y-105242857D02*
X147207200Y-105290476D01*
X147207200Y-105290476D02*
X147254819Y-105433333D01*
X147254819Y-105433333D02*
X147254819Y-105528571D01*
X147254819Y-105528571D02*
X147207200Y-105671428D01*
X147207200Y-105671428D02*
X147111961Y-105766666D01*
X147111961Y-105766666D02*
X147016723Y-105814285D01*
X147016723Y-105814285D02*
X146826247Y-105861904D01*
X146826247Y-105861904D02*
X146683390Y-105861904D01*
X146683390Y-105861904D02*
X146492914Y-105814285D01*
X146492914Y-105814285D02*
X146397676Y-105766666D01*
X146397676Y-105766666D02*
X146302438Y-105671428D01*
X146302438Y-105671428D02*
X146254819Y-105528571D01*
X146254819Y-105528571D02*
X146254819Y-105433333D01*
X146254819Y-105433333D02*
X146302438Y-105290476D01*
X146302438Y-105290476D02*
X146350057Y-105242857D01*
X146350057Y-104861904D02*
X146302438Y-104814285D01*
X146302438Y-104814285D02*
X146254819Y-104719047D01*
X146254819Y-104719047D02*
X146254819Y-104480952D01*
X146254819Y-104480952D02*
X146302438Y-104385714D01*
X146302438Y-104385714D02*
X146350057Y-104338095D01*
X146350057Y-104338095D02*
X146445295Y-104290476D01*
X146445295Y-104290476D02*
X146540533Y-104290476D01*
X146540533Y-104290476D02*
X146683390Y-104338095D01*
X146683390Y-104338095D02*
X147254819Y-104909523D01*
X147254819Y-104909523D02*
X147254819Y-104290476D01*
X146254819Y-103957142D02*
X146254819Y-103338095D01*
X146254819Y-103338095D02*
X146635771Y-103671428D01*
X146635771Y-103671428D02*
X146635771Y-103528571D01*
X146635771Y-103528571D02*
X146683390Y-103433333D01*
X146683390Y-103433333D02*
X146731009Y-103385714D01*
X146731009Y-103385714D02*
X146826247Y-103338095D01*
X146826247Y-103338095D02*
X147064342Y-103338095D01*
X147064342Y-103338095D02*
X147159580Y-103385714D01*
X147159580Y-103385714D02*
X147207200Y-103433333D01*
X147207200Y-103433333D02*
X147254819Y-103528571D01*
X147254819Y-103528571D02*
X147254819Y-103814285D01*
X147254819Y-103814285D02*
X147207200Y-103909523D01*
X147207200Y-103909523D02*
X147159580Y-103957142D01*
X145957142Y-121254819D02*
X145623809Y-120778628D01*
X145385714Y-121254819D02*
X145385714Y-120254819D01*
X145385714Y-120254819D02*
X145766666Y-120254819D01*
X145766666Y-120254819D02*
X145861904Y-120302438D01*
X145861904Y-120302438D02*
X145909523Y-120350057D01*
X145909523Y-120350057D02*
X145957142Y-120445295D01*
X145957142Y-120445295D02*
X145957142Y-120588152D01*
X145957142Y-120588152D02*
X145909523Y-120683390D01*
X145909523Y-120683390D02*
X145861904Y-120731009D01*
X145861904Y-120731009D02*
X145766666Y-120778628D01*
X145766666Y-120778628D02*
X145385714Y-120778628D01*
X146338095Y-120350057D02*
X146385714Y-120302438D01*
X146385714Y-120302438D02*
X146480952Y-120254819D01*
X146480952Y-120254819D02*
X146719047Y-120254819D01*
X146719047Y-120254819D02*
X146814285Y-120302438D01*
X146814285Y-120302438D02*
X146861904Y-120350057D01*
X146861904Y-120350057D02*
X146909523Y-120445295D01*
X146909523Y-120445295D02*
X146909523Y-120540533D01*
X146909523Y-120540533D02*
X146861904Y-120683390D01*
X146861904Y-120683390D02*
X146290476Y-121254819D01*
X146290476Y-121254819D02*
X146909523Y-121254819D01*
X147242857Y-120254819D02*
X147861904Y-120254819D01*
X147861904Y-120254819D02*
X147528571Y-120635771D01*
X147528571Y-120635771D02*
X147671428Y-120635771D01*
X147671428Y-120635771D02*
X147766666Y-120683390D01*
X147766666Y-120683390D02*
X147814285Y-120731009D01*
X147814285Y-120731009D02*
X147861904Y-120826247D01*
X147861904Y-120826247D02*
X147861904Y-121064342D01*
X147861904Y-121064342D02*
X147814285Y-121159580D01*
X147814285Y-121159580D02*
X147766666Y-121207200D01*
X147766666Y-121207200D02*
X147671428Y-121254819D01*
X147671428Y-121254819D02*
X147385714Y-121254819D01*
X147385714Y-121254819D02*
X147290476Y-121207200D01*
X147290476Y-121207200D02*
X147242857Y-121159580D01*
X176190476Y-119662295D02*
X176647619Y-119662295D01*
X176419047Y-120462295D02*
X176419047Y-119662295D01*
X177371429Y-120462295D02*
X177104762Y-120081342D01*
X176914286Y-120462295D02*
X176914286Y-119662295D01*
X176914286Y-119662295D02*
X177219048Y-119662295D01*
X177219048Y-119662295D02*
X177295238Y-119700390D01*
X177295238Y-119700390D02*
X177333333Y-119738485D01*
X177333333Y-119738485D02*
X177371429Y-119814676D01*
X177371429Y-119814676D02*
X177371429Y-119928961D01*
X177371429Y-119928961D02*
X177333333Y-120005152D01*
X177333333Y-120005152D02*
X177295238Y-120043247D01*
X177295238Y-120043247D02*
X177219048Y-120081342D01*
X177219048Y-120081342D02*
X176914286Y-120081342D01*
X178133333Y-120462295D02*
X177676190Y-120462295D01*
X177904762Y-120462295D02*
X177904762Y-119662295D01*
X177904762Y-119662295D02*
X177828571Y-119776580D01*
X177828571Y-119776580D02*
X177752381Y-119852771D01*
X177752381Y-119852771D02*
X177676190Y-119890866D01*
X149559580Y-75842857D02*
X149607200Y-75890476D01*
X149607200Y-75890476D02*
X149654819Y-76033333D01*
X149654819Y-76033333D02*
X149654819Y-76128571D01*
X149654819Y-76128571D02*
X149607200Y-76271428D01*
X149607200Y-76271428D02*
X149511961Y-76366666D01*
X149511961Y-76366666D02*
X149416723Y-76414285D01*
X149416723Y-76414285D02*
X149226247Y-76461904D01*
X149226247Y-76461904D02*
X149083390Y-76461904D01*
X149083390Y-76461904D02*
X148892914Y-76414285D01*
X148892914Y-76414285D02*
X148797676Y-76366666D01*
X148797676Y-76366666D02*
X148702438Y-76271428D01*
X148702438Y-76271428D02*
X148654819Y-76128571D01*
X148654819Y-76128571D02*
X148654819Y-76033333D01*
X148654819Y-76033333D02*
X148702438Y-75890476D01*
X148702438Y-75890476D02*
X148750057Y-75842857D01*
X149654819Y-74890476D02*
X149654819Y-75461904D01*
X149654819Y-75176190D02*
X148654819Y-75176190D01*
X148654819Y-75176190D02*
X148797676Y-75271428D01*
X148797676Y-75271428D02*
X148892914Y-75366666D01*
X148892914Y-75366666D02*
X148940533Y-75461904D01*
X149654819Y-74414285D02*
X149654819Y-74223809D01*
X149654819Y-74223809D02*
X149607200Y-74128571D01*
X149607200Y-74128571D02*
X149559580Y-74080952D01*
X149559580Y-74080952D02*
X149416723Y-73985714D01*
X149416723Y-73985714D02*
X149226247Y-73938095D01*
X149226247Y-73938095D02*
X148845295Y-73938095D01*
X148845295Y-73938095D02*
X148750057Y-73985714D01*
X148750057Y-73985714D02*
X148702438Y-74033333D01*
X148702438Y-74033333D02*
X148654819Y-74128571D01*
X148654819Y-74128571D02*
X148654819Y-74319047D01*
X148654819Y-74319047D02*
X148702438Y-74414285D01*
X148702438Y-74414285D02*
X148750057Y-74461904D01*
X148750057Y-74461904D02*
X148845295Y-74509523D01*
X148845295Y-74509523D02*
X149083390Y-74509523D01*
X149083390Y-74509523D02*
X149178628Y-74461904D01*
X149178628Y-74461904D02*
X149226247Y-74414285D01*
X149226247Y-74414285D02*
X149273866Y-74319047D01*
X149273866Y-74319047D02*
X149273866Y-74128571D01*
X149273866Y-74128571D02*
X149226247Y-74033333D01*
X149226247Y-74033333D02*
X149178628Y-73985714D01*
X149178628Y-73985714D02*
X149083390Y-73938095D01*
X151054819Y-101966666D02*
X151054819Y-102442856D01*
X151054819Y-102442856D02*
X150054819Y-102442856D01*
X150150057Y-101680951D02*
X150102438Y-101633332D01*
X150102438Y-101633332D02*
X150054819Y-101538094D01*
X150054819Y-101538094D02*
X150054819Y-101299999D01*
X150054819Y-101299999D02*
X150102438Y-101204761D01*
X150102438Y-101204761D02*
X150150057Y-101157142D01*
X150150057Y-101157142D02*
X150245295Y-101109523D01*
X150245295Y-101109523D02*
X150340533Y-101109523D01*
X150340533Y-101109523D02*
X150483390Y-101157142D01*
X150483390Y-101157142D02*
X151054819Y-101728570D01*
X151054819Y-101728570D02*
X151054819Y-101109523D01*
X160179642Y-127654819D02*
X159846309Y-127178628D01*
X159608214Y-127654819D02*
X159608214Y-126654819D01*
X159608214Y-126654819D02*
X159989166Y-126654819D01*
X159989166Y-126654819D02*
X160084404Y-126702438D01*
X160084404Y-126702438D02*
X160132023Y-126750057D01*
X160132023Y-126750057D02*
X160179642Y-126845295D01*
X160179642Y-126845295D02*
X160179642Y-126988152D01*
X160179642Y-126988152D02*
X160132023Y-127083390D01*
X160132023Y-127083390D02*
X160084404Y-127131009D01*
X160084404Y-127131009D02*
X159989166Y-127178628D01*
X159989166Y-127178628D02*
X159608214Y-127178628D01*
X161132023Y-127654819D02*
X160560595Y-127654819D01*
X160846309Y-127654819D02*
X160846309Y-126654819D01*
X160846309Y-126654819D02*
X160751071Y-126797676D01*
X160751071Y-126797676D02*
X160655833Y-126892914D01*
X160655833Y-126892914D02*
X160560595Y-126940533D01*
X161989166Y-126654819D02*
X161798690Y-126654819D01*
X161798690Y-126654819D02*
X161703452Y-126702438D01*
X161703452Y-126702438D02*
X161655833Y-126750057D01*
X161655833Y-126750057D02*
X161560595Y-126892914D01*
X161560595Y-126892914D02*
X161512976Y-127083390D01*
X161512976Y-127083390D02*
X161512976Y-127464342D01*
X161512976Y-127464342D02*
X161560595Y-127559580D01*
X161560595Y-127559580D02*
X161608214Y-127607200D01*
X161608214Y-127607200D02*
X161703452Y-127654819D01*
X161703452Y-127654819D02*
X161893928Y-127654819D01*
X161893928Y-127654819D02*
X161989166Y-127607200D01*
X161989166Y-127607200D02*
X162036785Y-127559580D01*
X162036785Y-127559580D02*
X162084404Y-127464342D01*
X162084404Y-127464342D02*
X162084404Y-127226247D01*
X162084404Y-127226247D02*
X162036785Y-127131009D01*
X162036785Y-127131009D02*
X161989166Y-127083390D01*
X161989166Y-127083390D02*
X161893928Y-127035771D01*
X161893928Y-127035771D02*
X161703452Y-127035771D01*
X161703452Y-127035771D02*
X161608214Y-127083390D01*
X161608214Y-127083390D02*
X161560595Y-127131009D01*
X161560595Y-127131009D02*
X161512976Y-127226247D01*
X144912142Y-94204580D02*
X144864523Y-94252200D01*
X144864523Y-94252200D02*
X144721666Y-94299819D01*
X144721666Y-94299819D02*
X144626428Y-94299819D01*
X144626428Y-94299819D02*
X144483571Y-94252200D01*
X144483571Y-94252200D02*
X144388333Y-94156961D01*
X144388333Y-94156961D02*
X144340714Y-94061723D01*
X144340714Y-94061723D02*
X144293095Y-93871247D01*
X144293095Y-93871247D02*
X144293095Y-93728390D01*
X144293095Y-93728390D02*
X144340714Y-93537914D01*
X144340714Y-93537914D02*
X144388333Y-93442676D01*
X144388333Y-93442676D02*
X144483571Y-93347438D01*
X144483571Y-93347438D02*
X144626428Y-93299819D01*
X144626428Y-93299819D02*
X144721666Y-93299819D01*
X144721666Y-93299819D02*
X144864523Y-93347438D01*
X144864523Y-93347438D02*
X144912142Y-93395057D01*
X145864523Y-94299819D02*
X145293095Y-94299819D01*
X145578809Y-94299819D02*
X145578809Y-93299819D01*
X145578809Y-93299819D02*
X145483571Y-93442676D01*
X145483571Y-93442676D02*
X145388333Y-93537914D01*
X145388333Y-93537914D02*
X145293095Y-93585533D01*
X146721666Y-93299819D02*
X146531190Y-93299819D01*
X146531190Y-93299819D02*
X146435952Y-93347438D01*
X146435952Y-93347438D02*
X146388333Y-93395057D01*
X146388333Y-93395057D02*
X146293095Y-93537914D01*
X146293095Y-93537914D02*
X146245476Y-93728390D01*
X146245476Y-93728390D02*
X146245476Y-94109342D01*
X146245476Y-94109342D02*
X146293095Y-94204580D01*
X146293095Y-94204580D02*
X146340714Y-94252200D01*
X146340714Y-94252200D02*
X146435952Y-94299819D01*
X146435952Y-94299819D02*
X146626428Y-94299819D01*
X146626428Y-94299819D02*
X146721666Y-94252200D01*
X146721666Y-94252200D02*
X146769285Y-94204580D01*
X146769285Y-94204580D02*
X146816904Y-94109342D01*
X146816904Y-94109342D02*
X146816904Y-93871247D01*
X146816904Y-93871247D02*
X146769285Y-93776009D01*
X146769285Y-93776009D02*
X146721666Y-93728390D01*
X146721666Y-93728390D02*
X146626428Y-93680771D01*
X146626428Y-93680771D02*
X146435952Y-93680771D01*
X146435952Y-93680771D02*
X146340714Y-93728390D01*
X146340714Y-93728390D02*
X146293095Y-93776009D01*
X146293095Y-93776009D02*
X146245476Y-93871247D01*
X157357142Y-106159580D02*
X157309523Y-106207200D01*
X157309523Y-106207200D02*
X157166666Y-106254819D01*
X157166666Y-106254819D02*
X157071428Y-106254819D01*
X157071428Y-106254819D02*
X156928571Y-106207200D01*
X156928571Y-106207200D02*
X156833333Y-106111961D01*
X156833333Y-106111961D02*
X156785714Y-106016723D01*
X156785714Y-106016723D02*
X156738095Y-105826247D01*
X156738095Y-105826247D02*
X156738095Y-105683390D01*
X156738095Y-105683390D02*
X156785714Y-105492914D01*
X156785714Y-105492914D02*
X156833333Y-105397676D01*
X156833333Y-105397676D02*
X156928571Y-105302438D01*
X156928571Y-105302438D02*
X157071428Y-105254819D01*
X157071428Y-105254819D02*
X157166666Y-105254819D01*
X157166666Y-105254819D02*
X157309523Y-105302438D01*
X157309523Y-105302438D02*
X157357142Y-105350057D01*
X157738095Y-105350057D02*
X157785714Y-105302438D01*
X157785714Y-105302438D02*
X157880952Y-105254819D01*
X157880952Y-105254819D02*
X158119047Y-105254819D01*
X158119047Y-105254819D02*
X158214285Y-105302438D01*
X158214285Y-105302438D02*
X158261904Y-105350057D01*
X158261904Y-105350057D02*
X158309523Y-105445295D01*
X158309523Y-105445295D02*
X158309523Y-105540533D01*
X158309523Y-105540533D02*
X158261904Y-105683390D01*
X158261904Y-105683390D02*
X157690476Y-106254819D01*
X157690476Y-106254819D02*
X158309523Y-106254819D01*
X158642857Y-105254819D02*
X159309523Y-105254819D01*
X159309523Y-105254819D02*
X158880952Y-106254819D01*
X169957142Y-107024819D02*
X169623809Y-106548628D01*
X169385714Y-107024819D02*
X169385714Y-106024819D01*
X169385714Y-106024819D02*
X169766666Y-106024819D01*
X169766666Y-106024819D02*
X169861904Y-106072438D01*
X169861904Y-106072438D02*
X169909523Y-106120057D01*
X169909523Y-106120057D02*
X169957142Y-106215295D01*
X169957142Y-106215295D02*
X169957142Y-106358152D01*
X169957142Y-106358152D02*
X169909523Y-106453390D01*
X169909523Y-106453390D02*
X169861904Y-106501009D01*
X169861904Y-106501009D02*
X169766666Y-106548628D01*
X169766666Y-106548628D02*
X169385714Y-106548628D01*
X170338095Y-106120057D02*
X170385714Y-106072438D01*
X170385714Y-106072438D02*
X170480952Y-106024819D01*
X170480952Y-106024819D02*
X170719047Y-106024819D01*
X170719047Y-106024819D02*
X170814285Y-106072438D01*
X170814285Y-106072438D02*
X170861904Y-106120057D01*
X170861904Y-106120057D02*
X170909523Y-106215295D01*
X170909523Y-106215295D02*
X170909523Y-106310533D01*
X170909523Y-106310533D02*
X170861904Y-106453390D01*
X170861904Y-106453390D02*
X170290476Y-107024819D01*
X170290476Y-107024819D02*
X170909523Y-107024819D01*
X171242857Y-106024819D02*
X171909523Y-106024819D01*
X171909523Y-106024819D02*
X171480952Y-107024819D01*
X145211905Y-66104819D02*
X145211905Y-65104819D01*
X145211905Y-65104819D02*
X145450000Y-65104819D01*
X145450000Y-65104819D02*
X145592857Y-65152438D01*
X145592857Y-65152438D02*
X145688095Y-65247676D01*
X145688095Y-65247676D02*
X145735714Y-65342914D01*
X145735714Y-65342914D02*
X145783333Y-65533390D01*
X145783333Y-65533390D02*
X145783333Y-65676247D01*
X145783333Y-65676247D02*
X145735714Y-65866723D01*
X145735714Y-65866723D02*
X145688095Y-65961961D01*
X145688095Y-65961961D02*
X145592857Y-66057200D01*
X145592857Y-66057200D02*
X145450000Y-66104819D01*
X145450000Y-66104819D02*
X145211905Y-66104819D01*
X146640476Y-65438152D02*
X146640476Y-66104819D01*
X146402381Y-65057200D02*
X146164286Y-65771485D01*
X146164286Y-65771485D02*
X146783333Y-65771485D01*
D11*
%TO.C,J3*%
X134270000Y-67650000D02*
X135600000Y-67650000D01*
X134270000Y-68980000D02*
X134270000Y-67650000D01*
X134270000Y-70250000D02*
X134270000Y-77930000D01*
X134270000Y-70250000D02*
X136930000Y-70250000D01*
X134270000Y-77930000D02*
X136930000Y-77930000D01*
X136930000Y-70250000D02*
X136930000Y-77930000D01*
%TO.C,C6*%
X167763080Y-125455000D02*
X167481920Y-125455000D01*
X167763080Y-126475000D02*
X167481920Y-126475000D01*
%TO.C,R24*%
X153442500Y-117828641D02*
X153442500Y-117521359D01*
X154202500Y-117828641D02*
X154202500Y-117521359D01*
%TO.C,U9*%
X151440000Y-84200000D02*
X151440000Y-82250000D01*
X151440000Y-84200000D02*
X151440000Y-87650000D01*
X156560000Y-84200000D02*
X156560000Y-82250000D01*
X156560000Y-84200000D02*
X156560000Y-86150000D01*
%TO.C,C28*%
X148846920Y-91290000D02*
X149128080Y-91290000D01*
X148846920Y-92310000D02*
X149128080Y-92310000D01*
%TO.C,C1*%
X185738748Y-124465000D02*
X186261252Y-124465000D01*
X185738748Y-125935000D02*
X186261252Y-125935000D01*
%TO.C,R10*%
X167385242Y-119117500D02*
X167859758Y-119117500D01*
X167385242Y-120162500D02*
X167859758Y-120162500D01*
%TO.C,C13*%
X136621651Y-101333000D02*
X136621651Y-100267000D01*
X136661651Y-101568000D02*
X136661651Y-100032000D01*
X136701651Y-101748000D02*
X136701651Y-99852000D01*
X136741651Y-101898000D02*
X136741651Y-99702000D01*
X136781651Y-102029000D02*
X136781651Y-99571000D01*
X136821651Y-102146000D02*
X136821651Y-99454000D01*
X136861651Y-102253000D02*
X136861651Y-99347000D01*
X136901651Y-102352000D02*
X136901651Y-99248000D01*
X136941651Y-102445000D02*
X136941651Y-99155000D01*
X136981651Y-102531000D02*
X136981651Y-99069000D01*
X137021651Y-102613000D02*
X137021651Y-98987000D01*
X137061651Y-102690000D02*
X137061651Y-98910000D01*
X137101651Y-102764000D02*
X137101651Y-98836000D01*
X137141651Y-102834000D02*
X137141651Y-98766000D01*
X137181651Y-102902000D02*
X137181651Y-98698000D01*
X137221651Y-102966000D02*
X137221651Y-98634000D01*
X137261651Y-103028000D02*
X137261651Y-98572000D01*
X137301651Y-103087000D02*
X137301651Y-98513000D01*
X137341651Y-103145000D02*
X137341651Y-98455000D01*
X137381651Y-103200000D02*
X137381651Y-98400000D01*
X137421651Y-103254000D02*
X137421651Y-98346000D01*
X137461651Y-103305000D02*
X137461651Y-98295000D01*
X137501651Y-103356000D02*
X137501651Y-98244000D01*
X137541651Y-103404000D02*
X137541651Y-98196000D01*
X137581651Y-103451000D02*
X137581651Y-98149000D01*
X137621651Y-103497000D02*
X137621651Y-98103000D01*
X137661651Y-103541000D02*
X137661651Y-98059000D01*
X137701651Y-103584000D02*
X137701651Y-98016000D01*
X137741651Y-103626000D02*
X137741651Y-97974000D01*
X137781651Y-103667000D02*
X137781651Y-97933000D01*
X137821651Y-103707000D02*
X137821651Y-97893000D01*
X137861651Y-103745000D02*
X137861651Y-97855000D01*
X137901651Y-103783000D02*
X137901651Y-97817000D01*
X137941651Y-99760000D02*
X137941651Y-97781000D01*
X137941651Y-103819000D02*
X137941651Y-101840000D01*
X137981651Y-99760000D02*
X137981651Y-97745000D01*
X137981651Y-103855000D02*
X137981651Y-101840000D01*
X138021651Y-99760000D02*
X138021651Y-97710000D01*
X138021651Y-103890000D02*
X138021651Y-101840000D01*
X138061651Y-99760000D02*
X138061651Y-97676000D01*
X138061651Y-103924000D02*
X138061651Y-101840000D01*
X138101651Y-99760000D02*
X138101651Y-97644000D01*
X138101651Y-103956000D02*
X138101651Y-101840000D01*
X138141651Y-99760000D02*
X138141651Y-97611000D01*
X138141651Y-103989000D02*
X138141651Y-101840000D01*
X138181651Y-99760000D02*
X138181651Y-97580000D01*
X138181651Y-104020000D02*
X138181651Y-101840000D01*
X138221651Y-99760000D02*
X138221651Y-97550000D01*
X138221651Y-104050000D02*
X138221651Y-101840000D01*
X138261651Y-99760000D02*
X138261651Y-97520000D01*
X138261651Y-104080000D02*
X138261651Y-101840000D01*
X138301651Y-99760000D02*
X138301651Y-97491000D01*
X138301651Y-104109000D02*
X138301651Y-101840000D01*
X138341651Y-99760000D02*
X138341651Y-97462000D01*
X138341651Y-104138000D02*
X138341651Y-101840000D01*
X138381651Y-99760000D02*
X138381651Y-97435000D01*
X138381651Y-104165000D02*
X138381651Y-101840000D01*
X138421651Y-99760000D02*
X138421651Y-97408000D01*
X138421651Y-104192000D02*
X138421651Y-101840000D01*
X138461651Y-99760000D02*
X138461651Y-97382000D01*
X138461651Y-104218000D02*
X138461651Y-101840000D01*
X138501651Y-99760000D02*
X138501651Y-97356000D01*
X138501651Y-104244000D02*
X138501651Y-101840000D01*
X138541651Y-99760000D02*
X138541651Y-97331000D01*
X138541651Y-104269000D02*
X138541651Y-101840000D01*
X138581651Y-99760000D02*
X138581651Y-97307000D01*
X138581651Y-104293000D02*
X138581651Y-101840000D01*
X138621651Y-99760000D02*
X138621651Y-97283000D01*
X138621651Y-104317000D02*
X138621651Y-101840000D01*
X138661651Y-99760000D02*
X138661651Y-97260000D01*
X138661651Y-104340000D02*
X138661651Y-101840000D01*
X138701651Y-99760000D02*
X138701651Y-97238000D01*
X138701651Y-104362000D02*
X138701651Y-101840000D01*
X138741651Y-99760000D02*
X138741651Y-97216000D01*
X138741651Y-104384000D02*
X138741651Y-101840000D01*
X138781651Y-99760000D02*
X138781651Y-97194000D01*
X138781651Y-104406000D02*
X138781651Y-101840000D01*
X138821651Y-99760000D02*
X138821651Y-97173000D01*
X138821651Y-104427000D02*
X138821651Y-101840000D01*
X138861651Y-99760000D02*
X138861651Y-97153000D01*
X138861651Y-104447000D02*
X138861651Y-101840000D01*
X138901651Y-99760000D02*
X138901651Y-97134000D01*
X138901651Y-104466000D02*
X138901651Y-101840000D01*
X138941651Y-99760000D02*
X138941651Y-97114000D01*
X138941651Y-104486000D02*
X138941651Y-101840000D01*
X138981651Y-99760000D02*
X138981651Y-97096000D01*
X138981651Y-104504000D02*
X138981651Y-101840000D01*
X139021651Y-99760000D02*
X139021651Y-97078000D01*
X139021651Y-104522000D02*
X139021651Y-101840000D01*
X139061651Y-99760000D02*
X139061651Y-97060000D01*
X139061651Y-104540000D02*
X139061651Y-101840000D01*
X139101651Y-99760000D02*
X139101651Y-97043000D01*
X139101651Y-104557000D02*
X139101651Y-101840000D01*
X139141651Y-99760000D02*
X139141651Y-97026000D01*
X139141651Y-104574000D02*
X139141651Y-101840000D01*
X139181651Y-99760000D02*
X139181651Y-97010000D01*
X139181651Y-104590000D02*
X139181651Y-101840000D01*
X139221651Y-99760000D02*
X139221651Y-96995000D01*
X139221651Y-104605000D02*
X139221651Y-101840000D01*
X139261651Y-99760000D02*
X139261651Y-96979000D01*
X139261651Y-104621000D02*
X139261651Y-101840000D01*
X139301651Y-99760000D02*
X139301651Y-96965000D01*
X139301651Y-104635000D02*
X139301651Y-101840000D01*
X139341651Y-99760000D02*
X139341651Y-96950000D01*
X139341651Y-104650000D02*
X139341651Y-101840000D01*
X139381651Y-99760000D02*
X139381651Y-96937000D01*
X139381651Y-104663000D02*
X139381651Y-101840000D01*
X139421651Y-99760000D02*
X139421651Y-96923000D01*
X139421651Y-104677000D02*
X139421651Y-101840000D01*
X139461651Y-99760000D02*
X139461651Y-96911000D01*
X139461651Y-104689000D02*
X139461651Y-101840000D01*
X139501651Y-99760000D02*
X139501651Y-96898000D01*
X139501651Y-104702000D02*
X139501651Y-101840000D01*
X139541651Y-99760000D02*
X139541651Y-96886000D01*
X139541651Y-104714000D02*
X139541651Y-101840000D01*
X139581651Y-99760000D02*
X139581651Y-96875000D01*
X139581651Y-104725000D02*
X139581651Y-101840000D01*
X139621651Y-99760000D02*
X139621651Y-96864000D01*
X139621651Y-104736000D02*
X139621651Y-101840000D01*
X139661651Y-99760000D02*
X139661651Y-96853000D01*
X139661651Y-104747000D02*
X139661651Y-101840000D01*
X139701651Y-99760000D02*
X139701651Y-96843000D01*
X139701651Y-104757000D02*
X139701651Y-101840000D01*
X139741651Y-99760000D02*
X139741651Y-96833000D01*
X139741651Y-104767000D02*
X139741651Y-101840000D01*
X139781651Y-99760000D02*
X139781651Y-96824000D01*
X139781651Y-104776000D02*
X139781651Y-101840000D01*
X139821651Y-99760000D02*
X139821651Y-96815000D01*
X139821651Y-104785000D02*
X139821651Y-101840000D01*
X139861651Y-99760000D02*
X139861651Y-96806000D01*
X139861651Y-104794000D02*
X139861651Y-101840000D01*
X139901651Y-99760000D02*
X139901651Y-96798000D01*
X139901651Y-104802000D02*
X139901651Y-101840000D01*
X139941651Y-99760000D02*
X139941651Y-96790000D01*
X139941651Y-104810000D02*
X139941651Y-101840000D01*
X139981651Y-99760000D02*
X139981651Y-96783000D01*
X139981651Y-104817000D02*
X139981651Y-101840000D01*
X140022651Y-104824000D02*
X140022651Y-96776000D01*
X140062651Y-104830000D02*
X140062651Y-96770000D01*
X140102651Y-104837000D02*
X140102651Y-96763000D01*
X140142651Y-104842000D02*
X140142651Y-96758000D01*
X140182651Y-104848000D02*
X140182651Y-96752000D01*
X140222651Y-104852000D02*
X140222651Y-96748000D01*
X140262651Y-104857000D02*
X140262651Y-96743000D01*
X140302651Y-104861000D02*
X140302651Y-96739000D01*
X140342651Y-104865000D02*
X140342651Y-96735000D01*
X140382651Y-104868000D02*
X140382651Y-96732000D01*
X140422651Y-104871000D02*
X140422651Y-96729000D01*
X140462651Y-104874000D02*
X140462651Y-96726000D01*
X140502651Y-104876000D02*
X140502651Y-96724000D01*
X140542651Y-104877000D02*
X140542651Y-96723000D01*
X140582651Y-104879000D02*
X140582651Y-96721000D01*
X140622651Y-104880000D02*
X140622651Y-96720000D01*
X140662651Y-104880000D02*
X140662651Y-96720000D01*
X140702651Y-104880000D02*
X140702651Y-96720000D01*
X144712349Y-103515000D02*
X144712349Y-102715000D01*
X145112349Y-103115000D02*
X144312349Y-103115000D01*
X144822651Y-100800000D02*
G75*
G02*
X136582651Y-100800000I-4120000J0D01*
G01*
X136582651Y-100800000D02*
G75*
G02*
X144822651Y-100800000I4120000J0D01*
G01*
%TO.C,C29*%
X149140580Y-89690000D02*
X148859420Y-89690000D01*
X149140580Y-90710000D02*
X148859420Y-90710000D01*
%TO.C,T1*%
X161370000Y-101690000D02*
X161370000Y-64630000D01*
X161370000Y-101690000D02*
X198430000Y-101690000D01*
X198430000Y-64630000D02*
X161370000Y-64630000D01*
X198430000Y-64630000D02*
X198430000Y-101690000D01*
%TO.C,R18*%
X164659758Y-127042500D02*
X164185242Y-127042500D01*
X164659758Y-128087500D02*
X164185242Y-128087500D01*
%TO.C,C14*%
X143490000Y-118659420D02*
X143490000Y-118940580D01*
X144510000Y-118659420D02*
X144510000Y-118940580D01*
%TO.C,L1*%
X140640000Y-116142064D02*
X140640000Y-114937936D01*
X143360000Y-116142064D02*
X143360000Y-114937936D01*
%TO.C,U4*%
X168147500Y-113605000D02*
X167347500Y-113605000D01*
X168147500Y-113605000D02*
X168947500Y-113605000D01*
X168147500Y-116725000D02*
X167347500Y-116725000D01*
X168147500Y-116725000D02*
X169947500Y-116725000D01*
%TO.C,R9*%
X167385242Y-117467500D02*
X167859758Y-117467500D01*
X167385242Y-118512500D02*
X167859758Y-118512500D01*
%TO.C,P1*%
X137350000Y-84800000D02*
G75*
G02*
X135450000Y-84800000I-950000J0D01*
G01*
X135450000Y-84800000D02*
G75*
G02*
X137350000Y-84800000I950000J0D01*
G01*
%TO.C,C2*%
X189756920Y-113655000D02*
X190038080Y-113655000D01*
X189756920Y-114675000D02*
X190038080Y-114675000D01*
%TO.C,R28*%
X183927064Y-106965000D02*
X183472936Y-106965000D01*
X183927064Y-108435000D02*
X183472936Y-108435000D01*
%TO.C,P2*%
X137350000Y-88400000D02*
G75*
G02*
X135450000Y-88400000I-950000J0D01*
G01*
X135450000Y-88400000D02*
G75*
G02*
X137350000Y-88400000I950000J0D01*
G01*
%TO.C,C26*%
X157933752Y-115655000D02*
X156511248Y-115655000D01*
X157933752Y-117475000D02*
X156511248Y-117475000D01*
%TO.C,R14*%
X164659758Y-120667500D02*
X164185242Y-120667500D01*
X164659758Y-121712500D02*
X164185242Y-121712500D01*
%TO.C,J2*%
X134290000Y-123550000D02*
X134290000Y-130050000D01*
X134900000Y-122940000D02*
X153600000Y-122940000D01*
X134900000Y-130660000D02*
X136510000Y-130660000D01*
X136510000Y-128660000D02*
X151990000Y-128660000D01*
X136510000Y-130660000D02*
X136510000Y-128660000D01*
X137700000Y-129700000D02*
X138300000Y-129700000D01*
X138000000Y-129200000D02*
X137700000Y-129700000D01*
X138300000Y-129700000D02*
X138000000Y-129200000D01*
X151990000Y-130660000D02*
X151990000Y-128660000D01*
X153600000Y-130660000D02*
X151990000Y-130660000D01*
X154210000Y-123550000D02*
X154210000Y-130050000D01*
X134290000Y-123550000D02*
G75*
G02*
X134900000Y-122940000I610000J0D01*
G01*
X134900000Y-130660000D02*
G75*
G02*
X134290000Y-130050000I0J610000D01*
G01*
X153600000Y-122940000D02*
G75*
G02*
X154210000Y-123550000I0J-610000D01*
G01*
X154210000Y-130050000D02*
G75*
G02*
X153600000Y-130660000I-610000J0D01*
G01*
%TO.C,C10*%
X167912500Y-121849420D02*
X167912500Y-122130580D01*
X168932500Y-121849420D02*
X168932500Y-122130580D01*
%TO.C,U2*%
X188347500Y-108605000D02*
X186547500Y-108605000D01*
X188347500Y-108605000D02*
X189147500Y-108605000D01*
X188347500Y-111725000D02*
X187547500Y-111725000D01*
X188347500Y-111725000D02*
X189147500Y-111725000D01*
%TO.C,J1*%
X220940000Y-88900000D02*
X220940000Y-90510000D01*
X220940000Y-90510000D02*
X222940000Y-90510000D01*
X220940000Y-94190000D02*
X222940000Y-94190000D01*
X220940000Y-95800000D02*
X220940000Y-94190000D01*
X221900000Y-90800000D02*
X221900000Y-91400000D01*
X221900000Y-91400000D02*
X222400000Y-91100000D01*
X222400000Y-91100000D02*
X221900000Y-90800000D01*
X222940000Y-90510000D02*
X222940000Y-94190000D01*
X228050000Y-88290000D02*
X221550000Y-88290000D01*
X228050000Y-96410000D02*
X221550000Y-96410000D01*
X228660000Y-88900000D02*
X228660000Y-95800000D01*
X220940000Y-88900000D02*
G75*
G02*
X221550000Y-88290000I610000J0D01*
G01*
X221550000Y-96410000D02*
G75*
G02*
X220940000Y-95800000I0J610000D01*
G01*
X228050000Y-88290000D02*
G75*
G02*
X228660000Y-88900000I0J-610000D01*
G01*
X228660000Y-95800000D02*
G75*
G02*
X228050000Y-96410000I-610000J0D01*
G01*
%TO.C,C24*%
X149714664Y-119005000D02*
X149930336Y-119005000D01*
X149714664Y-119725000D02*
X149930336Y-119725000D01*
%TO.C,C4*%
X185859420Y-122440000D02*
X186140580Y-122440000D01*
X185859420Y-123460000D02*
X186140580Y-123460000D01*
%TO.C,R19*%
X138477500Y-84037258D02*
X138477500Y-83562742D01*
X139522500Y-84037258D02*
X139522500Y-83562742D01*
%TO.C,R1*%
X186227064Y-126715000D02*
X185772936Y-126715000D01*
X186227064Y-128185000D02*
X185772936Y-128185000D01*
%TO.C,R5*%
X192682936Y-126555000D02*
X194137064Y-126555000D01*
X192682936Y-128375000D02*
X194137064Y-128375000D01*
%TO.C,U8*%
X155497500Y-108155000D02*
X161507500Y-108155000D01*
X157747500Y-114975000D02*
X161507500Y-114975000D01*
X161507500Y-108155000D02*
X161507500Y-109415000D01*
X161507500Y-114975000D02*
X161507500Y-113715000D01*
%TO.C,R4*%
X192682936Y-124055000D02*
X194137064Y-124055000D01*
X192682936Y-125875000D02*
X194137064Y-125875000D01*
%TO.C,D7*%
X152932500Y-109515000D02*
X147422500Y-109515000D01*
X152932500Y-112815000D02*
X147422500Y-112815000D01*
X152932500Y-112815000D02*
X152932500Y-109515000D01*
%TO.C,R29*%
X137877500Y-78237258D02*
X137877500Y-77762742D01*
X138922500Y-78237258D02*
X138922500Y-77762742D01*
%TO.C,C9*%
X167688080Y-110455000D02*
X167406920Y-110455000D01*
X167688080Y-111475000D02*
X167406920Y-111475000D01*
%TO.C,R25*%
X151778859Y-118985000D02*
X152086141Y-118985000D01*
X151778859Y-119745000D02*
X152086141Y-119745000D01*
%TO.C,U1*%
X141590000Y-78590000D02*
X141890000Y-78590000D01*
X141590000Y-78890000D02*
X141590000Y-78590000D01*
X141590000Y-85510000D02*
X141590000Y-85810000D01*
X141590000Y-85810000D02*
X141890000Y-85810000D01*
X141890000Y-85810000D02*
X141890000Y-87125000D01*
X148810000Y-78590000D02*
X148510000Y-78590000D01*
X148810000Y-78890000D02*
X148810000Y-78590000D01*
X148810000Y-85510000D02*
X148810000Y-85810000D01*
X148810000Y-85810000D02*
X148510000Y-85810000D01*
%TO.C,C25*%
X161311248Y-115655000D02*
X162733752Y-115655000D01*
X161311248Y-117475000D02*
X162733752Y-117475000D01*
%TO.C,C7*%
X167688080Y-112055000D02*
X167406920Y-112055000D01*
X167688080Y-113075000D02*
X167406920Y-113075000D01*
%TO.C,Y1*%
X140950000Y-87800000D02*
X140950000Y-91400000D01*
X140950000Y-91400000D02*
X146700000Y-91400000D01*
X146700000Y-87800000D02*
X140950000Y-87800000D01*
%TO.C,C3*%
X189886248Y-115430000D02*
X190408752Y-115430000D01*
X189886248Y-116900000D02*
X190408752Y-116900000D01*
%TO.C,R2*%
X192682936Y-119055000D02*
X194137064Y-119055000D01*
X192682936Y-120875000D02*
X194137064Y-120875000D01*
%TO.C,D8*%
X192290000Y-111950000D02*
X200800000Y-111950000D01*
X192290000Y-118450000D02*
X192290000Y-111950000D01*
X192290000Y-118450000D02*
X200800000Y-118450000D01*
%TO.C,R22*%
X140978859Y-117985000D02*
X141286141Y-117985000D01*
X140978859Y-118745000D02*
X141286141Y-118745000D01*
%TO.C,C12*%
X141459420Y-119090000D02*
X141740580Y-119090000D01*
X141459420Y-120110000D02*
X141740580Y-120110000D01*
%TO.C,R15*%
X164185242Y-119067500D02*
X164659758Y-119067500D01*
X164185242Y-120112500D02*
X164659758Y-120112500D01*
%TO.C,U5*%
X159022500Y-119430000D02*
X157072500Y-119430000D01*
X159022500Y-119430000D02*
X160972500Y-119430000D01*
X159022500Y-124550000D02*
X157072500Y-124550000D01*
X159022500Y-124550000D02*
X162472500Y-124550000D01*
%TO.C,U10*%
X177200000Y-107240000D02*
X173150000Y-107240000D01*
X177200000Y-107240000D02*
X179475000Y-107240000D01*
X177200000Y-111160000D02*
X174925000Y-111160000D01*
X177200000Y-111160000D02*
X179475000Y-111160000D01*
%TO.C,Q2*%
X151465000Y-73055000D02*
X151465000Y-73405000D01*
X157585000Y-68035000D02*
X151465000Y-68035000D01*
X157585000Y-68335000D02*
X157585000Y-68035000D01*
X157585000Y-73105000D02*
X157585000Y-73405000D01*
X157585000Y-73405000D02*
X151465000Y-73405000D01*
%TO.C,R11*%
X167859758Y-123842500D02*
X167385242Y-123842500D01*
X167859758Y-124887500D02*
X167385242Y-124887500D01*
%TO.C,D5*%
X135690000Y-106350000D02*
X144200000Y-106350000D01*
X135690000Y-112850000D02*
X135690000Y-106350000D01*
X135690000Y-112850000D02*
X144200000Y-112850000D01*
%TO.C,R21*%
X142677500Y-67637258D02*
X142677500Y-67162742D01*
X143722500Y-67637258D02*
X143722500Y-67162742D01*
%TO.C,C22*%
X153312500Y-115305580D02*
X153312500Y-115024420D01*
X154332500Y-115305580D02*
X154332500Y-115024420D01*
%TO.C,D9*%
X192290000Y-104950000D02*
X200800000Y-104950000D01*
X192290000Y-111450000D02*
X192290000Y-104950000D01*
X192290000Y-111450000D02*
X200800000Y-111450000D01*
%TO.C,R17*%
X164185242Y-125442500D02*
X164659758Y-125442500D01*
X164185242Y-126487500D02*
X164659758Y-126487500D01*
%TO.C,C30*%
X204380000Y-66030000D02*
X210415000Y-66030000D01*
X204380000Y-95270000D02*
X204380000Y-66030000D01*
X204380000Y-95270000D02*
X210415000Y-95270000D01*
X212785000Y-66030000D02*
X218820000Y-66030000D01*
X212785000Y-95270000D02*
X218820000Y-95270000D01*
X218820000Y-95270000D02*
X218820000Y-66030000D01*
%TO.C,C15*%
X142259420Y-91890000D02*
X142540580Y-91890000D01*
X142259420Y-92910000D02*
X142540580Y-92910000D01*
%TO.C,D3*%
X187907500Y-112565000D02*
X183897500Y-112565000D01*
X187907500Y-114565000D02*
X183897500Y-114565000D01*
X187907500Y-114565000D02*
X187907500Y-112565000D01*
%TO.C,R13*%
X163100000Y-123827258D02*
X163100000Y-123352742D01*
X164145000Y-123827258D02*
X164145000Y-123352742D01*
%TO.C,C17*%
X151290000Y-89940580D02*
X151290000Y-89659420D01*
X152310000Y-89940580D02*
X152310000Y-89659420D01*
%TO.C,U6*%
X149052500Y-113355000D02*
X145602500Y-113355000D01*
X149052500Y-113355000D02*
X151002500Y-113355000D01*
X149052500Y-118475000D02*
X147102500Y-118475000D01*
X149052500Y-118475000D02*
X151002500Y-118475000D01*
%TO.C,U7*%
X142840000Y-73000000D02*
X142840000Y-71050000D01*
X142840000Y-73000000D02*
X142840000Y-76450000D01*
X147960000Y-73000000D02*
X147960000Y-71050000D01*
X147960000Y-73000000D02*
X147960000Y-74950000D01*
%TO.C,C11*%
X164712500Y-123730580D02*
X164712500Y-123449420D01*
X165732500Y-123730580D02*
X165732500Y-123449420D01*
%TO.C,D6*%
X135750000Y-119972500D02*
X135750000Y-114462500D01*
X135750000Y-119972500D02*
X139050000Y-119972500D01*
X139050000Y-119972500D02*
X139050000Y-114462500D01*
%TO.C,R26*%
X183927064Y-109465000D02*
X183472936Y-109465000D01*
X183927064Y-110935000D02*
X183472936Y-110935000D01*
%TO.C,D1*%
X188015000Y-124715000D02*
X188015000Y-127000000D01*
X189485000Y-124715000D02*
X188015000Y-124715000D01*
X189485000Y-127000000D02*
X189485000Y-124715000D01*
%TO.C,Q3*%
X151465000Y-79360000D02*
X151465000Y-79710000D01*
X157585000Y-74340000D02*
X151465000Y-74340000D01*
X157585000Y-74640000D02*
X157585000Y-74340000D01*
X157585000Y-79410000D02*
X157585000Y-79710000D01*
X157585000Y-79710000D02*
X151465000Y-79710000D01*
%TO.C,R8*%
X186237258Y-118927500D02*
X185762742Y-118927500D01*
X186237258Y-119972500D02*
X185762742Y-119972500D01*
%TO.C,FB1*%
X149162779Y-87890000D02*
X148837221Y-87890000D01*
X149162779Y-88910000D02*
X148837221Y-88910000D01*
%TO.C,R3*%
X192682936Y-121555000D02*
X194137064Y-121555000D01*
X192682936Y-123375000D02*
X194137064Y-123375000D01*
%TO.C,C8*%
X167763080Y-127055000D02*
X167481920Y-127055000D01*
X167763080Y-128075000D02*
X167481920Y-128075000D01*
%TO.C,R20*%
X139077500Y-88037258D02*
X139077500Y-87562742D01*
X140122500Y-88037258D02*
X140122500Y-87562742D01*
%TO.C,U3*%
X173500000Y-120500000D02*
X173500000Y-121250000D01*
X173500000Y-125950000D02*
X173500000Y-126700000D01*
X173500000Y-126700000D02*
X180550000Y-126700000D01*
X180550000Y-120500000D02*
X173500000Y-120500000D01*
X180550000Y-121200000D02*
X180550000Y-120500000D01*
X180550000Y-126050000D02*
X183250000Y-126050000D01*
X180550000Y-126700000D02*
X180550000Y-126050000D01*
%TO.C,C23*%
X146490000Y-107740580D02*
X146490000Y-107459420D01*
X147510000Y-107740580D02*
X147510000Y-107459420D01*
%TO.C,R23*%
X146268859Y-118985000D02*
X146576141Y-118985000D01*
X146268859Y-119745000D02*
X146576141Y-119745000D01*
D10*
%TO.C,TR1*%
X173800000Y-112100000D02*
X180600000Y-112100000D01*
X173800000Y-119300000D02*
X173800000Y-112100000D01*
X179600000Y-119300000D02*
X173800000Y-119300000D01*
X180600000Y-112100000D02*
X180600000Y-118300000D01*
X180600000Y-118300000D02*
X179600000Y-119300000D01*
X181100000Y-119000000D02*
X181100000Y-119000000D01*
X182400000Y-119000000D02*
X181100000Y-119000000D01*
X180000000Y-118200000D02*
G75*
G02*
X179000000Y-118200000I-500000J0D01*
G01*
X179000000Y-118200000D02*
G75*
G02*
X180000000Y-118200000I500000J0D01*
G01*
D11*
%TO.C,R6*%
X189012742Y-118927500D02*
X189487258Y-118927500D01*
X189012742Y-119972500D02*
X189487258Y-119972500D01*
%TO.C,R12*%
X166300000Y-121752742D02*
X166300000Y-122227258D01*
X167345000Y-121752742D02*
X167345000Y-122227258D01*
%TO.C,L2*%
X147940000Y-103040000D02*
X149290000Y-103040000D01*
X147940000Y-108960000D02*
X147940000Y-103040000D01*
X147940000Y-108960000D02*
X149290000Y-108960000D01*
X153660000Y-103040000D02*
X152310000Y-103040000D01*
X153660000Y-108960000D02*
X152310000Y-108960000D01*
X153660000Y-108960000D02*
X153660000Y-103040000D01*
%TO.C,R7*%
X189012742Y-120677500D02*
X189487258Y-120677500D01*
X189012742Y-121722500D02*
X189487258Y-121722500D01*
%TO.C,D2*%
X187907500Y-115365000D02*
X183897500Y-115365000D01*
X187907500Y-117365000D02*
X183897500Y-117365000D01*
X187907500Y-117365000D02*
X187907500Y-115365000D01*
%TO.C,R16*%
X160585242Y-125217500D02*
X161059758Y-125217500D01*
X160585242Y-126262500D02*
X161059758Y-126262500D01*
%TO.C,C16*%
X145695580Y-91905000D02*
X145414420Y-91905000D01*
X145695580Y-92925000D02*
X145414420Y-92925000D01*
%TO.C,C5*%
X185859420Y-120690000D02*
X186140580Y-120690000D01*
X185859420Y-121710000D02*
X186140580Y-121710000D01*
%TO.C,C27*%
X157140580Y-106690000D02*
X156859420Y-106690000D01*
X157140580Y-107710000D02*
X156859420Y-107710000D01*
%TO.C,R27*%
X170362742Y-107477500D02*
X170837258Y-107477500D01*
X170362742Y-108522500D02*
X170837258Y-108522500D01*
%TO.C,D4*%
X145320000Y-68760000D02*
X146730000Y-68760000D01*
X146730000Y-66440000D02*
X144700000Y-66440000D01*
X146730000Y-66440000D02*
X146730000Y-67100000D01*
X146730000Y-68100000D02*
X146730000Y-68760000D01*
%TD*%
%LPC*%
D12*
%TO.C,J3*%
X135600000Y-68980000D03*
D13*
X135600000Y-71520000D03*
X135600000Y-74060000D03*
X135600000Y-76600000D03*
%TD*%
D14*
%TO.C,C6*%
X168397500Y-125965000D03*
X166847500Y-125965000D03*
%TD*%
D15*
%TO.C,R24*%
X153822500Y-118185000D03*
X153822500Y-117165000D03*
%TD*%
D16*
%TO.C,U9*%
X152095000Y-86675000D03*
X153365000Y-86675000D03*
X154635000Y-86675000D03*
X155905000Y-86675000D03*
X155905000Y-81725000D03*
X154635000Y-81725000D03*
X153365000Y-81725000D03*
X152095000Y-81725000D03*
%TD*%
D17*
%TO.C,C28*%
X148212500Y-91800000D03*
X149762500Y-91800000D03*
%TD*%
D18*
%TO.C,C1*%
X185050000Y-125200000D03*
X186950000Y-125200000D03*
%TD*%
D19*
%TO.C,R10*%
X166797500Y-119640000D03*
X168447500Y-119640000D03*
%TD*%
D20*
%TO.C,C13*%
X142452651Y-100800000D03*
D21*
X138952651Y-100800000D03*
%TD*%
D14*
%TO.C,C29*%
X149775000Y-90200000D03*
X148225000Y-90200000D03*
%TD*%
D22*
%TO.C,T1*%
X167200000Y-67920000D03*
X167200000Y-73000000D03*
X167200000Y-78080000D03*
X167200000Y-88240000D03*
X167200000Y-93320000D03*
X167200000Y-98400000D03*
X192600000Y-98400000D03*
X192600000Y-93320000D03*
X192600000Y-88240000D03*
X192600000Y-83160000D03*
X192600000Y-78080000D03*
X192600000Y-73000000D03*
X192600000Y-67920000D03*
%TD*%
D23*
%TO.C,R18*%
X165247500Y-127565000D03*
X163597500Y-127565000D03*
%TD*%
D24*
%TO.C,C14*%
X144000000Y-118025000D03*
X144000000Y-119575000D03*
%TD*%
D25*
%TO.C,L1*%
X142000000Y-116940000D03*
X142000000Y-114140000D03*
%TD*%
D26*
%TO.C,U4*%
X169285000Y-116115000D03*
X169285000Y-115165000D03*
X169285000Y-114215000D03*
X167010000Y-114215000D03*
X167010000Y-116115000D03*
%TD*%
D19*
%TO.C,R9*%
X166797500Y-117990000D03*
X168447500Y-117990000D03*
%TD*%
D27*
%TO.C,P1*%
X136400000Y-84800000D03*
%TD*%
D17*
%TO.C,C2*%
X189122500Y-114165000D03*
X190672500Y-114165000D03*
%TD*%
D28*
%TO.C,R28*%
X184612500Y-107700000D03*
X182787500Y-107700000D03*
%TD*%
D27*
%TO.C,P2*%
X136400000Y-88400000D03*
%TD*%
D29*
%TO.C,C26*%
X158697500Y-116565000D03*
X155747500Y-116565000D03*
%TD*%
D23*
%TO.C,R14*%
X165247500Y-121190000D03*
X163597500Y-121190000D03*
%TD*%
D30*
%TO.C,J2*%
X138000000Y-126800000D03*
D31*
X140500000Y-126800000D03*
X143000000Y-126800000D03*
X145500000Y-126800000D03*
X148000000Y-126800000D03*
X150500000Y-126800000D03*
%TD*%
D24*
%TO.C,C10*%
X168422500Y-121215000D03*
X168422500Y-122765000D03*
%TD*%
D32*
%TO.C,U2*%
X187210000Y-109215000D03*
X187210000Y-110165000D03*
X187210000Y-111115000D03*
X189485000Y-111115000D03*
X189485000Y-109215000D03*
%TD*%
D33*
%TO.C,J1*%
X224800000Y-91100000D03*
D34*
X224800000Y-93600000D03*
%TD*%
D35*
%TO.C,C24*%
X149342500Y-119365000D03*
X150302500Y-119365000D03*
%TD*%
D17*
%TO.C,C4*%
X185225000Y-122950000D03*
X186775000Y-122950000D03*
%TD*%
D36*
%TO.C,C18*%
X149600000Y-87000000D03*
X149600000Y-86360000D03*
%TD*%
D37*
%TO.C,R19*%
X139000000Y-84625000D03*
X139000000Y-82975000D03*
%TD*%
D28*
%TO.C,R1*%
X186912500Y-127450000D03*
X185087500Y-127450000D03*
%TD*%
D38*
%TO.C,R5*%
X191947500Y-127465000D03*
X194872500Y-127465000D03*
%TD*%
D39*
%TO.C,U8*%
X156447500Y-109265000D03*
X156447500Y-111565000D03*
D40*
X162747500Y-111565000D03*
D39*
X156447500Y-113865000D03*
%TD*%
D38*
%TO.C,R4*%
X191947500Y-124965000D03*
X194872500Y-124965000D03*
%TD*%
D41*
%TO.C,D7*%
X151422500Y-111165000D03*
X147422500Y-111165000D03*
%TD*%
D37*
%TO.C,R29*%
X138400000Y-78825000D03*
X138400000Y-77175000D03*
%TD*%
D14*
%TO.C,C9*%
X168322500Y-110965000D03*
X166772500Y-110965000D03*
%TD*%
D42*
%TO.C,R25*%
X151422500Y-119365000D03*
X152442500Y-119365000D03*
%TD*%
D43*
%TO.C,U1*%
X142400000Y-86375000D03*
X143200000Y-86375000D03*
X144000000Y-86375000D03*
X144800000Y-86375000D03*
X145600000Y-86375000D03*
X146400000Y-86375000D03*
X147200000Y-86375000D03*
X148000000Y-86375000D03*
D44*
X149375000Y-85000000D03*
X149375000Y-84200000D03*
X149375000Y-83400000D03*
X149375000Y-82600000D03*
X149375000Y-81800000D03*
X149375000Y-81000000D03*
X149375000Y-80200000D03*
X149375000Y-79400000D03*
D43*
X148000000Y-78025000D03*
X147200000Y-78025000D03*
X146400000Y-78025000D03*
X145600000Y-78025000D03*
X144800000Y-78025000D03*
X144000000Y-78025000D03*
X143200000Y-78025000D03*
X142400000Y-78025000D03*
D44*
X141025000Y-79400000D03*
X141025000Y-80200000D03*
X141025000Y-81000000D03*
X141025000Y-81800000D03*
X141025000Y-82600000D03*
X141025000Y-83400000D03*
X141025000Y-84200000D03*
X141025000Y-85000000D03*
%TD*%
D45*
%TO.C,C25*%
X160547500Y-116565000D03*
X163497500Y-116565000D03*
%TD*%
D14*
%TO.C,C7*%
X168322500Y-112565000D03*
X166772500Y-112565000D03*
%TD*%
D46*
%TO.C,Y1*%
X142150000Y-89600000D03*
X145850000Y-89600000D03*
%TD*%
D18*
%TO.C,C3*%
X189197500Y-116165000D03*
X191097500Y-116165000D03*
%TD*%
D38*
%TO.C,R2*%
X191947500Y-119965000D03*
X194872500Y-119965000D03*
%TD*%
D47*
%TO.C,D8*%
X193800000Y-115200000D03*
X200600000Y-115200000D03*
%TD*%
D42*
%TO.C,R22*%
X140622500Y-118365000D03*
X141642500Y-118365000D03*
%TD*%
D17*
%TO.C,C12*%
X140825000Y-119600000D03*
X142375000Y-119600000D03*
%TD*%
D19*
%TO.C,R15*%
X163597500Y-119590000D03*
X165247500Y-119590000D03*
%TD*%
D48*
%TO.C,U5*%
X161497500Y-123895000D03*
X161497500Y-122625000D03*
X161497500Y-121355000D03*
X161497500Y-120085000D03*
X156547500Y-120085000D03*
X156547500Y-121355000D03*
X156547500Y-122625000D03*
X156547500Y-123895000D03*
%TD*%
D49*
%TO.C,U10*%
X173950000Y-107930000D03*
X173950000Y-110470000D03*
X180450000Y-110470000D03*
X180450000Y-107930000D03*
%TD*%
D50*
%TO.C,Q2*%
X155175000Y-70720000D03*
D51*
X151625000Y-68815000D03*
X151625000Y-70085000D03*
X151625000Y-71355000D03*
X151625000Y-72625000D03*
%TD*%
D23*
%TO.C,R11*%
X168447500Y-124365000D03*
X166797500Y-124365000D03*
%TD*%
D47*
%TO.C,D5*%
X137200000Y-109600000D03*
X144000000Y-109600000D03*
%TD*%
D37*
%TO.C,R21*%
X143200000Y-68225000D03*
X143200000Y-66575000D03*
%TD*%
D52*
%TO.C,C22*%
X153822500Y-115940000D03*
X153822500Y-114390000D03*
%TD*%
D47*
%TO.C,D9*%
X193800000Y-108200000D03*
X200600000Y-108200000D03*
%TD*%
D19*
%TO.C,R17*%
X163597500Y-125965000D03*
X165247500Y-125965000D03*
%TD*%
D53*
%TO.C,C30*%
X211600000Y-94400000D03*
X211600000Y-66900000D03*
%TD*%
D17*
%TO.C,C15*%
X141625000Y-92400000D03*
X143175000Y-92400000D03*
%TD*%
D54*
%TO.C,D3*%
X187197500Y-113565000D03*
X183897500Y-113565000D03*
%TD*%
D37*
%TO.C,R13*%
X163622500Y-124415000D03*
X163622500Y-122765000D03*
%TD*%
D52*
%TO.C,C17*%
X151800000Y-90575000D03*
X151800000Y-89025000D03*
%TD*%
D55*
%TO.C,U6*%
X146577500Y-114010000D03*
X146577500Y-115280000D03*
X146577500Y-116550000D03*
X146577500Y-117820000D03*
X151527500Y-117820000D03*
X151527500Y-116550000D03*
X151527500Y-115280000D03*
X151527500Y-114010000D03*
D56*
X149052500Y-115915000D03*
%TD*%
D16*
%TO.C,U7*%
X143495000Y-75475000D03*
X144765000Y-75475000D03*
X146035000Y-75475000D03*
X147305000Y-75475000D03*
X147305000Y-70525000D03*
X146035000Y-70525000D03*
X144765000Y-70525000D03*
X143495000Y-70525000D03*
%TD*%
D52*
%TO.C,C11*%
X165222500Y-124365000D03*
X165222500Y-122815000D03*
%TD*%
D57*
%TO.C,D6*%
X137400000Y-118462500D03*
X137400000Y-114462500D03*
%TD*%
D28*
%TO.C,R26*%
X184612500Y-110200000D03*
X182787500Y-110200000D03*
%TD*%
D58*
%TO.C,D1*%
X188750000Y-125412500D03*
X188750000Y-126987500D03*
%TD*%
D50*
%TO.C,Q3*%
X155175000Y-77025000D03*
D51*
X151625000Y-75120000D03*
X151625000Y-76390000D03*
X151625000Y-77660000D03*
X151625000Y-78930000D03*
%TD*%
D23*
%TO.C,R8*%
X186825000Y-119450000D03*
X185175000Y-119450000D03*
%TD*%
D59*
%TO.C,FB1*%
X149787500Y-88400000D03*
X148212500Y-88400000D03*
%TD*%
D38*
%TO.C,R3*%
X191947500Y-122465000D03*
X194872500Y-122465000D03*
%TD*%
D14*
%TO.C,C8*%
X168397500Y-127565000D03*
X166847500Y-127565000D03*
%TD*%
D37*
%TO.C,R20*%
X139600000Y-88625000D03*
X139600000Y-86975000D03*
%TD*%
D60*
%TO.C,U3*%
X182347500Y-125505000D03*
X182347500Y-124235000D03*
X182347500Y-122965000D03*
X182347500Y-121695000D03*
X171652500Y-121695000D03*
X171652500Y-122965000D03*
X171652500Y-124235000D03*
X171652500Y-125505000D03*
%TD*%
D52*
%TO.C,C23*%
X147000000Y-108375000D03*
X147000000Y-106825000D03*
%TD*%
D42*
%TO.C,R23*%
X145912500Y-119365000D03*
X146932500Y-119365000D03*
%TD*%
D61*
%TO.C,TR1*%
X181770000Y-118240000D03*
X181770000Y-115700000D03*
X181770000Y-113160000D03*
X172630000Y-113160000D03*
X172630000Y-115700000D03*
X172630000Y-118240000D03*
%TD*%
D19*
%TO.C,R6*%
X188425000Y-119450000D03*
X190075000Y-119450000D03*
%TD*%
D62*
%TO.C,R12*%
X166822500Y-121165000D03*
X166822500Y-122815000D03*
%TD*%
D63*
%TO.C,C19*%
X149400000Y-77280000D03*
X149400000Y-77920000D03*
%TD*%
D64*
%TO.C,L2*%
X150800000Y-108050000D03*
X150800000Y-103950000D03*
%TD*%
D19*
%TO.C,R7*%
X188425000Y-121200000D03*
X190075000Y-121200000D03*
%TD*%
D54*
%TO.C,D2*%
X187197500Y-116365000D03*
X183897500Y-116365000D03*
%TD*%
D19*
%TO.C,R16*%
X159997500Y-125740000D03*
X161647500Y-125740000D03*
%TD*%
D14*
%TO.C,C16*%
X146330000Y-92415000D03*
X144780000Y-92415000D03*
%TD*%
D17*
%TO.C,C5*%
X185225000Y-121200000D03*
X186775000Y-121200000D03*
%TD*%
D14*
%TO.C,C27*%
X157775000Y-107200000D03*
X156225000Y-107200000D03*
%TD*%
D19*
%TO.C,R27*%
X169775000Y-108000000D03*
X171425000Y-108000000D03*
%TD*%
D65*
%TO.C,D4*%
X145000000Y-66950000D03*
X145000000Y-68250000D03*
X147000000Y-67600000D03*
%TD*%
D66*
%TO.C,Q1*%
X212000000Y-120370000D03*
D67*
X206550000Y-100510000D03*
D68*
X212000000Y-100510000D03*
X217450000Y-100510000D03*
%TD*%
%LPD*%
M02*
