M48
; DRILL file {KiCad 8.0.5} date 2024-10-09T02:25:08+0300
; FORMAT={-:-/ absolute / inch / decimal}
; #@! TF.CreationDate,2024-10-09T02:25:08+03:00
; #@! TF.GenerationSoftware,Kicad,Pcbnew,8.0.5
; #@! TF.FileFunction,Plated,1,2,PTH
FMAT,2
INCH
; #@! TA.AperFunction,Plated,PTH,ViaDrill
T1C0.0157
; #@! TA.AperFunction,Plated,PTH,ComponentDrill
T2C0.0315
; #@! TA.AperFunction,Plated,PTH,ComponentDrill
T3C0.0394
; #@! TA.AperFunction,Plated,PTH,ComponentDrill
T4C0.0472
; #@! TA.AperFunction,Plated,PTH,ComponentDrill
T5C0.0591
; #@! TA.AperFunction,Plated,PTH,ComponentDrill
T6C0.0630
%
G90
G05
T1
X5.4488Y-2.9921
X5.4724Y-3.2205
X5.5039Y-3.378
X5.5354Y-3.4094
X5.6378Y-4.2126
X5.6378Y-4.7559
X5.6457Y-2.8425
X5.6693Y-3.6378
X5.6693Y-4.7559
X5.6772Y-4.2126
X5.685Y-3.3386
X5.6929Y-2.8425
X5.6994Y-2.9715
X5.7156Y-4.874
X5.7165Y-4.2126
X5.7402Y-3.1339
X5.748Y-3.3465
X5.7559Y-2.8425
X5.7717Y-4.9213
X5.78Y-3.1344
X5.8189Y-3.2756
X5.8268Y-4.7008
X5.8346Y-2.6614
X5.8661Y-4.4961
X5.8661Y-4.6299
X5.8682Y-4.5636
X5.874Y-2.6772
X5.8898Y-2.5906
X5.8962Y-3.6142
X5.8967Y-3.5512
X5.9134Y-2.7087
X5.9134Y-2.7559
X5.9134Y-2.811
X5.9134Y-2.9213
X5.9134Y-2.9685
X5.9134Y-3.0079
X5.9764Y-3.6142
X6.0394Y-3.3386
X6.0866Y-3.3386
X6.1318Y-4.5892
X6.1417Y-3.3465
X6.1496Y-4.1575
X6.1594Y-4.3018
X6.4016Y-5.0236
X6.4094Y-3.4173
X6.4369Y-4.5892
X6.5039Y-4.6614
X6.5354Y-4.2047
X6.5669Y-4.315
X6.5669Y-5.063
X6.7559Y-4.7559
X6.7874Y-4.3465
X7.1563Y-4.5551
X7.179Y-4.7911
X7.2682Y-4.3386
X7.315Y-4.3937
X7.4016Y-4.8425
X7.4016Y-4.8819
X7.4803Y-4.6457
X7.5039Y-4.4488
X7.5235Y-4.5734
T2
X5.4706Y-3.9685
X5.6084Y-3.9685
T3
X5.3386Y-2.7157
X5.3386Y-2.8157
X5.3386Y-2.9157
X5.3386Y-3.0157
X5.4331Y-4.9921
X5.5315Y-4.9921
X5.6299Y-4.9921
X5.7283Y-4.9921
X5.8268Y-4.9921
X5.9252Y-4.9921
X8.8504Y-3.5866
X8.8504Y-3.685
T4
X8.3307Y-2.6339
X8.3307Y-3.7165
T5
X8.1319Y-3.9571
X8.3465Y-3.9571
X8.561Y-3.9571
T6
X6.5827Y-2.674
X6.5827Y-2.874
X6.5827Y-3.074
X6.5827Y-3.474
X6.5827Y-3.674
X6.5827Y-3.874
X7.5827Y-2.674
X7.5827Y-2.874
X7.5827Y-3.074
X7.5827Y-3.274
X7.5827Y-3.474
X7.5827Y-3.674
X7.5827Y-3.874
M30
