%TF.GenerationSoftware,KiCad,Pcbnew,8.0.5*%
%TF.CreationDate,2024-10-09T02:25:36+03:00*%
%TF.ProjectId,DC-CDI,44432d43-4449-42e6-9b69-6361645f7063,rev?*%
%TF.SameCoordinates,Original*%
%TF.FileFunction,Copper,L2,Bot*%
%TF.FilePolarity,Positive*%
%FSLAX46Y46*%
G04 Gerber Fmt 4.6, Leading zero omitted, Abs format (unit mm)*
G04 Created by KiCad (PCBNEW 8.0.5) date 2024-10-09 02:25:36*
%MOMM*%
%LPD*%
G01*
G04 APERTURE LIST*
G04 Aperture macros list*
%AMRoundRect*
0 Rectangle with rounded corners*
0 $1 Rounding radius*
0 $2 $3 $4 $5 $6 $7 $8 $9 X,Y pos of 4 corners*
0 Add a 4 corners polygon primitive as box body*
4,1,4,$2,$3,$4,$5,$6,$7,$8,$9,$2,$3,0*
0 Add four circle primitives for the rounded corners*
1,1,$1+$1,$2,$3*
1,1,$1+$1,$4,$5*
1,1,$1+$1,$6,$7*
1,1,$1+$1,$8,$9*
0 Add four rect primitives between the rounded corners*
20,1,$1+$1,$2,$3,$4,$5,0*
20,1,$1+$1,$4,$5,$6,$7,0*
20,1,$1+$1,$6,$7,$8,$9,0*
20,1,$1+$1,$8,$9,$2,$3,0*%
G04 Aperture macros list end*
%TA.AperFunction,ComponentPad*%
%ADD10R,1.700000X1.700000*%
%TD*%
%TA.AperFunction,ComponentPad*%
%ADD11O,1.700000X1.700000*%
%TD*%
%TA.AperFunction,ComponentPad*%
%ADD12R,1.600000X1.600000*%
%TD*%
%TA.AperFunction,ComponentPad*%
%ADD13C,1.600000*%
%TD*%
%TA.AperFunction,ComponentPad*%
%ADD14C,2.500000*%
%TD*%
%TA.AperFunction,ComponentPad*%
%ADD15RoundRect,0.375000X-0.375000X-0.625000X0.375000X-0.625000X0.375000X0.625000X-0.375000X0.625000X0*%
%TD*%
%TA.AperFunction,ComponentPad*%
%ADD16O,1.500000X2.000000*%
%TD*%
%TA.AperFunction,ComponentPad*%
%ADD17RoundRect,0.375000X-0.625000X0.375000X-0.625000X-0.375000X0.625000X-0.375000X0.625000X0.375000X0*%
%TD*%
%TA.AperFunction,ComponentPad*%
%ADD18O,2.000000X1.500000*%
%TD*%
%TA.AperFunction,ComponentPad*%
%ADD19C,2.400000*%
%TD*%
%TA.AperFunction,ComponentPad*%
%ADD20R,2.500000X4.500000*%
%TD*%
%TA.AperFunction,ComponentPad*%
%ADD21O,2.500000X4.500000*%
%TD*%
%TA.AperFunction,ViaPad*%
%ADD22C,0.800000*%
%TD*%
%TA.AperFunction,Conductor*%
%ADD23C,0.250000*%
%TD*%
%TA.AperFunction,Conductor*%
%ADD24C,0.350000*%
%TD*%
G04 APERTURE END LIST*
D10*
%TO.P,J3,1,Pin_1*%
%TO.N,/SWCLK*%
X135600000Y-68980000D03*
D11*
%TO.P,J3,2,Pin_2*%
%TO.N,/SWDIO*%
X135600000Y-71520000D03*
%TO.P,J3,3,Pin_3*%
%TO.N,GND*%
X135600000Y-74060000D03*
%TO.P,J3,4,Pin_4*%
%TO.N,+3.3V*%
X135600000Y-76600000D03*
%TD*%
D12*
%TO.P,C13,1*%
%TO.N,Net-(U6-EN)*%
X142452651Y-100800000D03*
D13*
%TO.P,C13,2*%
%TO.N,GND*%
X138952651Y-100800000D03*
%TD*%
D14*
%TO.P,T1,1*%
%TO.N,Net-(Q2-D)*%
X167200000Y-67920000D03*
%TO.P,T1,2*%
%TO.N,N/C*%
X167200000Y-73000000D03*
%TO.P,T1,3*%
%TO.N,Net-(Q3-D)*%
X167200000Y-78080000D03*
%TO.P,T1,5*%
%TO.N,N/C*%
X167200000Y-88240000D03*
%TO.P,T1,6*%
X167200000Y-93320000D03*
%TO.P,T1,7*%
%TO.N,+12V*%
X167200000Y-98400000D03*
%TO.P,T1,8*%
%TO.N,Net-(D9-A)*%
X192600000Y-98400000D03*
%TO.P,T1,9*%
%TO.N,Net-(D8-A)*%
X192600000Y-93320000D03*
%TO.P,T1,10*%
%TO.N,GNDA*%
X192600000Y-88240000D03*
%TO.P,T1,11*%
X192600000Y-83160000D03*
%TO.P,T1,12*%
%TO.N,N/C*%
X192600000Y-78080000D03*
%TO.P,T1,13*%
X192600000Y-73000000D03*
%TO.P,T1,14*%
X192600000Y-67920000D03*
%TD*%
D15*
%TO.P,J2,1,Pin_1*%
%TO.N,GND*%
X138000000Y-126800000D03*
D16*
%TO.P,J2,2,Pin_2*%
%TO.N,unconnected-(J2-Pin_2-Pad2)*%
X140500000Y-126800000D03*
%TO.P,J2,3,Pin_3*%
%TO.N,/IGN_IN*%
X143000000Y-126800000D03*
%TO.P,J2,4,Pin_4*%
%TO.N,/CANL*%
X145500000Y-126800000D03*
%TO.P,J2,5,Pin_5*%
%TO.N,/CANH*%
X148000000Y-126800000D03*
%TO.P,J2,6,Pin_6*%
%TO.N,/12V_RAW*%
X150500000Y-126800000D03*
%TD*%
D17*
%TO.P,J1,1,Pin_1*%
%TO.N,Net-(J1-Pin_1)*%
X224800000Y-91100000D03*
D18*
%TO.P,J1,2,Pin_2*%
%TO.N,GNDA*%
X224800000Y-93600000D03*
%TD*%
D19*
%TO.P,C30,1*%
%TO.N,/HV_OUT*%
X211600000Y-94400000D03*
%TO.P,C30,2*%
%TO.N,Net-(J1-Pin_1)*%
X211600000Y-66900000D03*
%TD*%
D20*
%TO.P,Q1,1,K*%
%TO.N,GNDA*%
X206550000Y-100510000D03*
D21*
%TO.P,Q1,2,A*%
%TO.N,/HV_OUT*%
X212000000Y-100510000D03*
%TO.P,Q1,3,G*%
%TO.N,Net-(Q1-G)*%
X217450000Y-100510000D03*
%TD*%
D22*
%TO.N,+3.3V*%
X149200000Y-68000000D03*
X149600000Y-65800000D03*
%TO.N,GNDA*%
X181770000Y-115700000D03*
X190000000Y-118000000D03*
X190600000Y-113000000D03*
X185800000Y-111600000D03*
X184612500Y-110200000D03*
X182347500Y-121695000D03*
X191097500Y-116165000D03*
X188000000Y-124000000D03*
X188000000Y-123000000D03*
%TO.N,GND*%
X143400000Y-72200000D03*
X144000000Y-120800000D03*
X165200000Y-118400000D03*
X139000000Y-81800000D03*
X166800000Y-128600000D03*
X156200000Y-105600000D03*
X163497500Y-116565000D03*
X143200000Y-107000000D03*
X166800000Y-109600000D03*
X138400000Y-76000000D03*
X154600000Y-84800000D03*
X149762500Y-91800000D03*
X151800000Y-91800000D03*
X148200000Y-67600000D03*
X143200000Y-120800000D03*
X148000000Y-119400000D03*
X156447500Y-109265000D03*
X144765000Y-75475000D03*
X150200000Y-71400000D03*
X150200000Y-76400000D03*
X149000000Y-117600000D03*
X144200000Y-107000000D03*
X139800000Y-85800000D03*
X162600000Y-127600000D03*
X145200000Y-107000000D03*
X149775000Y-90200000D03*
X150200000Y-75400000D03*
X172400000Y-110400000D03*
X150200000Y-74200000D03*
X150200000Y-68800000D03*
X149052500Y-115915000D03*
X144000000Y-92400000D03*
X150200000Y-70000000D03*
X171600000Y-120800000D03*
X155747500Y-116565000D03*
X149000000Y-114200000D03*
%TO.N,/CANL*%
X146200000Y-72200000D03*
X145175000Y-123800000D03*
%TO.N,/CANH*%
X144600000Y-72200000D03*
X146600000Y-125000000D03*
%TO.N,Net-(P2-Pin_1)*%
X144400000Y-84800000D03*
X140600000Y-86600000D03*
%TO.N,/IN_OUT*%
X162800000Y-86800000D03*
X147800000Y-83200000D03*
%TO.N,Net-(U1-PA8)*%
X153400000Y-84800000D03*
X146812113Y-79613192D03*
%TO.N,Net-(U1-PA10)*%
X145800000Y-79600000D03*
X156000000Y-85000000D03*
%TO.N,/HV*%
X146000000Y-85000000D03*
X166000000Y-106800000D03*
%TD*%
D23*
%TO.N,+3.3V*%
X149200000Y-66200000D02*
X149600000Y-65800000D01*
X149200000Y-68000000D02*
X149200000Y-66200000D01*
D24*
%TO.N,/CANL*%
X144377818Y-123800000D02*
X136750000Y-116172182D01*
X136750000Y-116172182D02*
X136750000Y-80827818D01*
X136750000Y-80827818D02*
X144352818Y-73225000D01*
X144352818Y-73225000D02*
X145175000Y-73225000D01*
X145175000Y-73225000D02*
X146200000Y-72200000D01*
X145175000Y-123800000D02*
X144377818Y-123800000D01*
%TO.N,/CANH*%
X136200000Y-116400000D02*
X136200000Y-80600000D01*
X144400000Y-124600000D02*
X136200000Y-116400000D01*
X146600000Y-125000000D02*
X146200000Y-124600000D01*
X146200000Y-124600000D02*
X144400000Y-124600000D01*
X136200000Y-80600000D02*
X144600000Y-72200000D01*
D23*
%TO.N,Net-(P2-Pin_1)*%
X140600000Y-86600000D02*
X142400000Y-84800000D01*
X142400000Y-84800000D02*
X144400000Y-84800000D01*
%TO.N,/IN_OUT*%
X147800000Y-83200000D02*
X147800000Y-84400000D01*
X147800000Y-84400000D02*
X150200000Y-86800000D01*
X150200000Y-86800000D02*
X162800000Y-86800000D01*
%TO.N,Net-(U1-PA8)*%
X152600000Y-84800000D02*
X153400000Y-84800000D01*
X147413192Y-79613192D02*
X152600000Y-84800000D01*
X146812113Y-79613192D02*
X147413192Y-79613192D01*
%TO.N,Net-(U1-PA10)*%
X145800000Y-79600000D02*
X145800000Y-80000000D01*
X151400000Y-85600000D02*
X155400000Y-85600000D01*
X145800000Y-80000000D02*
X151400000Y-85600000D01*
X155400000Y-85600000D02*
X156000000Y-85000000D01*
%TO.N,/HV*%
X146000000Y-90200000D02*
X146000000Y-85000000D01*
X165200000Y-106000000D02*
X161800000Y-106000000D01*
X166000000Y-106800000D02*
X165200000Y-106000000D01*
X161800000Y-106000000D02*
X146000000Y-90200000D01*
%TD*%
%TA.AperFunction,Conductor*%
%TO.N,GND*%
G36*
X170943039Y-64619685D02*
G01*
X170988794Y-64672489D01*
X171000000Y-64724000D01*
X171000000Y-89200000D01*
X174761281Y-92763318D01*
X174796410Y-92823713D01*
X174800000Y-92853335D01*
X174800000Y-128744775D01*
X174780315Y-128811814D01*
X174758952Y-128836943D01*
X172835369Y-130568168D01*
X172772370Y-130598384D01*
X172752417Y-130600000D01*
X135462000Y-130600000D01*
X135394961Y-130580315D01*
X135362800Y-130550400D01*
X133624800Y-128233066D01*
X133600324Y-128167624D01*
X133600000Y-128158666D01*
X133600000Y-80533468D01*
X135524500Y-80533468D01*
X135524500Y-116466535D01*
X135550457Y-116597028D01*
X135550459Y-116597036D01*
X135601378Y-116719965D01*
X135601383Y-116719975D01*
X135675304Y-116830605D01*
X135675307Y-116830609D01*
X143875305Y-125030606D01*
X143969394Y-125124695D01*
X143969397Y-125124697D01*
X143969398Y-125124698D01*
X144080020Y-125198613D01*
X144080023Y-125198614D01*
X144080031Y-125198620D01*
X144202964Y-125249540D01*
X144202968Y-125249540D01*
X144202969Y-125249541D01*
X144333466Y-125275500D01*
X144333469Y-125275500D01*
X144745087Y-125275500D01*
X144812126Y-125295185D01*
X144857881Y-125347989D01*
X144867825Y-125417147D01*
X144838800Y-125480703D01*
X144817973Y-125499818D01*
X144685352Y-125596173D01*
X144546174Y-125735351D01*
X144546174Y-125735352D01*
X144546172Y-125735354D01*
X144496485Y-125803741D01*
X144430476Y-125894594D01*
X144360485Y-126031960D01*
X144312510Y-126082756D01*
X144244689Y-126099551D01*
X144178554Y-126077014D01*
X144139515Y-126031960D01*
X144092002Y-125938711D01*
X144069524Y-125894595D01*
X143953828Y-125735354D01*
X143814646Y-125596172D01*
X143655405Y-125480476D01*
X143630172Y-125467619D01*
X143480029Y-125391117D01*
X143292826Y-125330290D01*
X143098422Y-125299500D01*
X143098417Y-125299500D01*
X142901583Y-125299500D01*
X142901578Y-125299500D01*
X142707173Y-125330290D01*
X142519970Y-125391117D01*
X142344594Y-125480476D01*
X142253741Y-125546485D01*
X142185354Y-125596172D01*
X142185352Y-125596174D01*
X142185351Y-125596174D01*
X142046174Y-125735351D01*
X142046174Y-125735352D01*
X142046172Y-125735354D01*
X141996485Y-125803741D01*
X141930476Y-125894594D01*
X141860485Y-126031960D01*
X141812510Y-126082756D01*
X141744689Y-126099551D01*
X141678554Y-126077014D01*
X141639515Y-126031960D01*
X141592002Y-125938711D01*
X141569524Y-125894595D01*
X141453828Y-125735354D01*
X141314646Y-125596172D01*
X141155405Y-125480476D01*
X141130172Y-125467619D01*
X140980029Y-125391117D01*
X140792826Y-125330290D01*
X140598422Y-125299500D01*
X140598417Y-125299500D01*
X140401583Y-125299500D01*
X140401578Y-125299500D01*
X140207173Y-125330290D01*
X140019970Y-125391117D01*
X139844594Y-125480476D01*
X139753741Y-125546485D01*
X139685354Y-125596172D01*
X139685352Y-125596174D01*
X139685351Y-125596174D01*
X139546174Y-125735351D01*
X139546174Y-125735352D01*
X139546172Y-125735354D01*
X139492892Y-125808686D01*
X139430471Y-125894601D01*
X139427931Y-125898747D01*
X139426805Y-125898057D01*
X139382962Y-125944469D01*
X139315139Y-125961257D01*
X139249007Y-125938711D01*
X139205562Y-125883991D01*
X139203539Y-125877773D01*
X139203489Y-125877792D01*
X139201168Y-125871476D01*
X139116609Y-125700977D01*
X139116607Y-125700974D01*
X138997367Y-125552633D01*
X138997366Y-125552632D01*
X138849025Y-125433392D01*
X138849022Y-125433390D01*
X138678523Y-125348831D01*
X138493824Y-125302897D01*
X138451097Y-125300000D01*
X138250000Y-125300000D01*
X138250000Y-126366988D01*
X138192993Y-126334075D01*
X138065826Y-126300000D01*
X137934174Y-126300000D01*
X137807007Y-126334075D01*
X137750000Y-126366988D01*
X137750000Y-125300000D01*
X137548903Y-125300000D01*
X137506175Y-125302897D01*
X137321476Y-125348831D01*
X137150977Y-125433390D01*
X137150974Y-125433392D01*
X137002633Y-125552632D01*
X137002632Y-125552633D01*
X136883392Y-125700974D01*
X136883390Y-125700977D01*
X136798831Y-125871476D01*
X136752897Y-126056175D01*
X136750000Y-126098903D01*
X136750000Y-126550000D01*
X137566988Y-126550000D01*
X137534075Y-126607007D01*
X137500000Y-126734174D01*
X137500000Y-126865826D01*
X137534075Y-126992993D01*
X137566988Y-127050000D01*
X136750000Y-127050000D01*
X136750000Y-127501096D01*
X136752897Y-127543824D01*
X136798831Y-127728523D01*
X136883390Y-127899022D01*
X136883392Y-127899025D01*
X137002632Y-128047366D01*
X137002633Y-128047367D01*
X137150974Y-128166607D01*
X137150977Y-128166609D01*
X137321476Y-128251168D01*
X137506175Y-128297102D01*
X137548903Y-128300000D01*
X137750000Y-128300000D01*
X137750000Y-127233012D01*
X137807007Y-127265925D01*
X137934174Y-127300000D01*
X138065826Y-127300000D01*
X138192993Y-127265925D01*
X138250000Y-127233012D01*
X138250000Y-128300000D01*
X138451097Y-128300000D01*
X138493824Y-128297102D01*
X138678523Y-128251168D01*
X138849022Y-128166609D01*
X138849025Y-128166607D01*
X138997366Y-128047367D01*
X138997367Y-128047366D01*
X139116607Y-127899025D01*
X139116609Y-127899022D01*
X139201168Y-127728523D01*
X139203489Y-127722208D01*
X139205783Y-127723050D01*
X139235387Y-127672418D01*
X139297663Y-127640742D01*
X139367179Y-127647764D01*
X139421864Y-127691255D01*
X139427899Y-127701272D01*
X139427931Y-127701253D01*
X139430471Y-127705398D01*
X139430475Y-127705404D01*
X139430476Y-127705405D01*
X139546172Y-127864646D01*
X139685354Y-128003828D01*
X139844595Y-128119524D01*
X139921416Y-128158666D01*
X140019970Y-128208882D01*
X140019972Y-128208882D01*
X140019975Y-128208884D01*
X140094399Y-128233066D01*
X140207173Y-128269709D01*
X140401578Y-128300500D01*
X140401583Y-128300500D01*
X140598422Y-128300500D01*
X140792826Y-128269709D01*
X140980025Y-128208884D01*
X141155405Y-128119524D01*
X141314646Y-128003828D01*
X141453828Y-127864646D01*
X141569524Y-127705405D01*
X141639515Y-127568038D01*
X141687489Y-127517243D01*
X141755310Y-127500448D01*
X141821445Y-127522985D01*
X141860484Y-127568038D01*
X141930476Y-127705405D01*
X142046172Y-127864646D01*
X142185354Y-128003828D01*
X142344595Y-128119524D01*
X142421416Y-128158666D01*
X142519970Y-128208882D01*
X142519972Y-128208882D01*
X142519975Y-128208884D01*
X142594399Y-128233066D01*
X142707173Y-128269709D01*
X142901578Y-128300500D01*
X142901583Y-128300500D01*
X143098422Y-128300500D01*
X143292826Y-128269709D01*
X143480025Y-128208884D01*
X143655405Y-128119524D01*
X143814646Y-128003828D01*
X143953828Y-127864646D01*
X144069524Y-127705405D01*
X144139515Y-127568038D01*
X144187489Y-127517243D01*
X144255310Y-127500448D01*
X144321445Y-127522985D01*
X144360484Y-127568038D01*
X144430476Y-127705405D01*
X144546172Y-127864646D01*
X144685354Y-128003828D01*
X144844595Y-128119524D01*
X144921416Y-128158666D01*
X145019970Y-128208882D01*
X145019972Y-128208882D01*
X145019975Y-128208884D01*
X145094399Y-128233066D01*
X145207173Y-128269709D01*
X145401578Y-128300500D01*
X145401583Y-128300500D01*
X145598422Y-128300500D01*
X145792826Y-128269709D01*
X145980025Y-128208884D01*
X146155405Y-128119524D01*
X146314646Y-128003828D01*
X146453828Y-127864646D01*
X146569524Y-127705405D01*
X146639515Y-127568038D01*
X146687489Y-127517243D01*
X146755310Y-127500448D01*
X146821445Y-127522985D01*
X146860484Y-127568038D01*
X146930476Y-127705405D01*
X147046172Y-127864646D01*
X147185354Y-128003828D01*
X147344595Y-128119524D01*
X147421416Y-128158666D01*
X147519970Y-128208882D01*
X147519972Y-128208882D01*
X147519975Y-128208884D01*
X147594399Y-128233066D01*
X147707173Y-128269709D01*
X147901578Y-128300500D01*
X147901583Y-128300500D01*
X148098422Y-128300500D01*
X148292826Y-128269709D01*
X148480025Y-128208884D01*
X148655405Y-128119524D01*
X148814646Y-128003828D01*
X148953828Y-127864646D01*
X149069524Y-127705405D01*
X149139515Y-127568038D01*
X149187489Y-127517243D01*
X149255310Y-127500448D01*
X149321445Y-127522985D01*
X149360484Y-127568038D01*
X149430476Y-127705405D01*
X149546172Y-127864646D01*
X149685354Y-128003828D01*
X149844595Y-128119524D01*
X149921416Y-128158666D01*
X150019970Y-128208882D01*
X150019972Y-128208882D01*
X150019975Y-128208884D01*
X150094399Y-128233066D01*
X150207173Y-128269709D01*
X150401578Y-128300500D01*
X150401583Y-128300500D01*
X150598422Y-128300500D01*
X150792826Y-128269709D01*
X150980025Y-128208884D01*
X151155405Y-128119524D01*
X151314646Y-128003828D01*
X151453828Y-127864646D01*
X151569524Y-127705405D01*
X151658884Y-127530025D01*
X151719709Y-127342826D01*
X151731889Y-127265925D01*
X151750500Y-127148422D01*
X151750500Y-126451577D01*
X151719709Y-126257173D01*
X151668283Y-126098903D01*
X151658884Y-126069975D01*
X151658882Y-126069972D01*
X151658882Y-126069970D01*
X151592002Y-125938711D01*
X151569524Y-125894595D01*
X151453828Y-125735354D01*
X151314646Y-125596172D01*
X151155405Y-125480476D01*
X151130172Y-125467619D01*
X150980029Y-125391117D01*
X150792826Y-125330290D01*
X150598422Y-125299500D01*
X150598417Y-125299500D01*
X150401583Y-125299500D01*
X150401578Y-125299500D01*
X150207173Y-125330290D01*
X150019970Y-125391117D01*
X149844594Y-125480476D01*
X149753741Y-125546485D01*
X149685354Y-125596172D01*
X149685352Y-125596174D01*
X149685351Y-125596174D01*
X149546174Y-125735351D01*
X149546174Y-125735352D01*
X149546172Y-125735354D01*
X149496485Y-125803741D01*
X149430476Y-125894594D01*
X149360485Y-126031960D01*
X149312510Y-126082756D01*
X149244689Y-126099551D01*
X149178554Y-126077014D01*
X149139515Y-126031960D01*
X149092002Y-125938711D01*
X149069524Y-125894595D01*
X148953828Y-125735354D01*
X148814646Y-125596172D01*
X148655405Y-125480476D01*
X148630172Y-125467619D01*
X148480029Y-125391117D01*
X148292826Y-125330290D01*
X148098422Y-125299500D01*
X148098417Y-125299500D01*
X147901583Y-125299500D01*
X147901578Y-125299500D01*
X147707172Y-125330291D01*
X147707165Y-125330292D01*
X147639383Y-125352316D01*
X147569542Y-125354311D01*
X147509709Y-125318230D01*
X147478882Y-125255529D01*
X147483137Y-125196061D01*
X147485674Y-125188256D01*
X147505460Y-125000000D01*
X147485674Y-124811744D01*
X147427179Y-124631716D01*
X147332533Y-124467784D01*
X147205871Y-124327112D01*
X147205870Y-124327111D01*
X147052734Y-124215851D01*
X147052729Y-124215848D01*
X146879807Y-124138857D01*
X146879802Y-124138855D01*
X146694646Y-124099500D01*
X146691972Y-124099219D01*
X146690528Y-124098625D01*
X146688289Y-124098149D01*
X146688376Y-124097739D01*
X146637053Y-124076619D01*
X146635671Y-124078689D01*
X146519975Y-124001383D01*
X146519965Y-124001378D01*
X146397036Y-123950459D01*
X146397028Y-123950457D01*
X146266535Y-123924500D01*
X146266531Y-123924500D01*
X146204460Y-123924500D01*
X146137421Y-123904815D01*
X146091666Y-123852011D01*
X146081743Y-123806399D01*
X146081139Y-123806463D01*
X146080561Y-123800964D01*
X146080460Y-123800500D01*
X146080460Y-123800002D01*
X146080460Y-123800000D01*
X146060674Y-123611744D01*
X146002179Y-123431716D01*
X145907533Y-123267784D01*
X145780871Y-123127112D01*
X145780870Y-123127111D01*
X145627734Y-123015851D01*
X145627729Y-123015848D01*
X145454807Y-122938857D01*
X145454802Y-122938855D01*
X145309001Y-122907865D01*
X145269646Y-122899500D01*
X145080354Y-122899500D01*
X145047897Y-122906398D01*
X144895197Y-122938855D01*
X144895192Y-122938857D01*
X144722270Y-123015848D01*
X144707573Y-123026527D01*
X144641766Y-123050006D01*
X144573713Y-123034180D01*
X144547008Y-123013889D01*
X137461819Y-115928700D01*
X137428334Y-115867377D01*
X137425500Y-115841019D01*
X137425500Y-101065284D01*
X137445185Y-100998245D01*
X137497989Y-100952490D01*
X137567147Y-100942546D01*
X137630703Y-100971571D01*
X137668477Y-101030349D01*
X137669275Y-101033191D01*
X137726381Y-101246317D01*
X137726386Y-101246331D01*
X137822514Y-101452478D01*
X137873625Y-101525472D01*
X138552651Y-100846446D01*
X138552651Y-100852661D01*
X138579910Y-100954394D01*
X138632571Y-101045606D01*
X138707045Y-101120080D01*
X138798257Y-101172741D01*
X138899990Y-101200000D01*
X138906204Y-101200000D01*
X138227177Y-101879025D01*
X138300164Y-101930132D01*
X138300172Y-101930136D01*
X138506319Y-102026264D01*
X138506333Y-102026269D01*
X138726040Y-102085139D01*
X138726051Y-102085141D01*
X138952649Y-102104966D01*
X138952653Y-102104966D01*
X139179250Y-102085141D01*
X139179261Y-102085139D01*
X139398968Y-102026269D01*
X139398982Y-102026264D01*
X139605129Y-101930136D01*
X139678122Y-101879024D01*
X138999098Y-101200000D01*
X139005312Y-101200000D01*
X139107045Y-101172741D01*
X139198257Y-101120080D01*
X139272731Y-101045606D01*
X139325392Y-100954394D01*
X139352651Y-100852661D01*
X139352651Y-100846447D01*
X140031675Y-101525471D01*
X140082787Y-101452478D01*
X140178915Y-101246331D01*
X140178920Y-101246317D01*
X140237790Y-101026610D01*
X140237792Y-101026599D01*
X140257617Y-100800002D01*
X140257617Y-100799997D01*
X140237792Y-100573400D01*
X140237790Y-100573389D01*
X140178920Y-100353682D01*
X140178915Y-100353668D01*
X140082787Y-100147521D01*
X140082783Y-100147513D01*
X140031676Y-100074526D01*
X139352651Y-100753551D01*
X139352651Y-100747339D01*
X139325392Y-100645606D01*
X139272731Y-100554394D01*
X139198257Y-100479920D01*
X139107045Y-100427259D01*
X139005312Y-100400000D01*
X138999099Y-100400000D01*
X139446963Y-99952135D01*
X141152151Y-99952135D01*
X141152151Y-101647870D01*
X141152152Y-101647876D01*
X141158559Y-101707483D01*
X141208853Y-101842328D01*
X141208857Y-101842335D01*
X141295103Y-101957544D01*
X141295106Y-101957547D01*
X141410315Y-102043793D01*
X141410322Y-102043797D01*
X141545168Y-102094091D01*
X141545167Y-102094091D01*
X141552095Y-102094835D01*
X141604778Y-102100500D01*
X143300523Y-102100499D01*
X143360134Y-102094091D01*
X143494982Y-102043796D01*
X143610197Y-101957546D01*
X143696447Y-101842331D01*
X143746742Y-101707483D01*
X143753151Y-101647873D01*
X143753150Y-99952128D01*
X143746742Y-99892517D01*
X143701953Y-99772432D01*
X143696448Y-99757671D01*
X143696444Y-99757664D01*
X143610198Y-99642455D01*
X143610195Y-99642452D01*
X143494986Y-99556206D01*
X143494979Y-99556202D01*
X143360133Y-99505908D01*
X143360134Y-99505908D01*
X143300534Y-99499501D01*
X143300532Y-99499500D01*
X143300524Y-99499500D01*
X143300515Y-99499500D01*
X141604780Y-99499500D01*
X141604774Y-99499501D01*
X141545167Y-99505908D01*
X141410322Y-99556202D01*
X141410315Y-99556206D01*
X141295106Y-99642452D01*
X141295103Y-99642455D01*
X141208857Y-99757664D01*
X141208853Y-99757671D01*
X141158559Y-99892517D01*
X141155580Y-99920231D01*
X141152152Y-99952123D01*
X141152151Y-99952135D01*
X139446963Y-99952135D01*
X139678123Y-99720974D01*
X139605129Y-99669863D01*
X139398982Y-99573735D01*
X139398968Y-99573730D01*
X139179261Y-99514860D01*
X139179250Y-99514858D01*
X138952653Y-99495034D01*
X138952649Y-99495034D01*
X138726051Y-99514858D01*
X138726040Y-99514860D01*
X138506333Y-99573730D01*
X138506324Y-99573734D01*
X138300167Y-99669866D01*
X138300163Y-99669868D01*
X138227177Y-99720973D01*
X138227177Y-99720974D01*
X138906204Y-100400000D01*
X138899990Y-100400000D01*
X138798257Y-100427259D01*
X138707045Y-100479920D01*
X138632571Y-100554394D01*
X138579910Y-100645606D01*
X138552651Y-100747339D01*
X138552651Y-100753552D01*
X137873625Y-100074526D01*
X137873624Y-100074526D01*
X137822519Y-100147512D01*
X137822517Y-100147516D01*
X137726385Y-100353673D01*
X137726381Y-100353682D01*
X137669275Y-100566808D01*
X137632910Y-100626469D01*
X137570063Y-100656998D01*
X137500687Y-100648703D01*
X137446810Y-100604218D01*
X137425535Y-100537666D01*
X137425500Y-100534715D01*
X137425500Y-86600000D01*
X139694540Y-86600000D01*
X139714326Y-86788256D01*
X139714327Y-86788259D01*
X139772818Y-86968277D01*
X139772821Y-86968284D01*
X139867467Y-87132216D01*
X139899937Y-87168277D01*
X139994129Y-87272888D01*
X140147265Y-87384148D01*
X140147270Y-87384151D01*
X140320192Y-87461142D01*
X140320197Y-87461144D01*
X140505354Y-87500500D01*
X140505355Y-87500500D01*
X140694644Y-87500500D01*
X140694646Y-87500500D01*
X140879803Y-87461144D01*
X141052730Y-87384151D01*
X141205871Y-87272888D01*
X141332533Y-87132216D01*
X141427179Y-86968284D01*
X141485674Y-86788256D01*
X141503321Y-86620344D01*
X141529904Y-86555734D01*
X141538951Y-86545638D01*
X142622772Y-85461819D01*
X142684095Y-85428334D01*
X142710453Y-85425500D01*
X143696252Y-85425500D01*
X143763291Y-85445185D01*
X143788400Y-85466526D01*
X143794126Y-85472885D01*
X143794130Y-85472889D01*
X143947265Y-85584148D01*
X143947270Y-85584151D01*
X144120192Y-85661142D01*
X144120197Y-85661144D01*
X144305354Y-85700500D01*
X144305355Y-85700500D01*
X144494644Y-85700500D01*
X144494646Y-85700500D01*
X144679803Y-85661144D01*
X144852730Y-85584151D01*
X145005871Y-85472888D01*
X145030191Y-85445877D01*
X145089675Y-85409230D01*
X145159532Y-85410559D01*
X145217581Y-85449445D01*
X145229727Y-85466849D01*
X145267467Y-85532216D01*
X145342650Y-85615715D01*
X145372880Y-85678706D01*
X145374500Y-85698687D01*
X145374500Y-90261611D01*
X145398535Y-90382444D01*
X145398540Y-90382461D01*
X145445685Y-90496280D01*
X145445690Y-90496289D01*
X145479914Y-90547507D01*
X145479915Y-90547509D01*
X145514141Y-90598733D01*
X145605586Y-90690178D01*
X145605608Y-90690198D01*
X161311016Y-106395606D01*
X161311045Y-106395637D01*
X161401263Y-106485855D01*
X161401267Y-106485858D01*
X161503707Y-106554307D01*
X161503713Y-106554310D01*
X161503714Y-106554311D01*
X161617548Y-106601463D01*
X161644700Y-106606863D01*
X161669194Y-106611736D01*
X161669214Y-106611739D01*
X161669236Y-106611744D01*
X161738391Y-106625499D01*
X161738392Y-106625500D01*
X161738393Y-106625500D01*
X161738394Y-106625500D01*
X164889548Y-106625500D01*
X164956587Y-106645185D01*
X164977229Y-106661819D01*
X165061038Y-106745628D01*
X165094523Y-106806951D01*
X165096678Y-106820347D01*
X165104139Y-106891338D01*
X165114326Y-106988256D01*
X165114327Y-106988259D01*
X165172818Y-107168277D01*
X165172821Y-107168284D01*
X165267467Y-107332216D01*
X165394129Y-107472888D01*
X165547265Y-107584148D01*
X165547270Y-107584151D01*
X165720192Y-107661142D01*
X165720197Y-107661144D01*
X165905354Y-107700500D01*
X165905355Y-107700500D01*
X166094644Y-107700500D01*
X166094646Y-107700500D01*
X166279803Y-107661144D01*
X166452730Y-107584151D01*
X166605871Y-107472888D01*
X166732533Y-107332216D01*
X166827179Y-107168284D01*
X166885674Y-106988256D01*
X166905460Y-106800000D01*
X166885674Y-106611744D01*
X166827179Y-106431716D01*
X166732533Y-106267784D01*
X166605871Y-106127112D01*
X166605870Y-106127111D01*
X166452734Y-106015851D01*
X166452729Y-106015848D01*
X166279807Y-105938857D01*
X166279802Y-105938855D01*
X166134001Y-105907865D01*
X166094646Y-105899500D01*
X166094645Y-105899500D01*
X166035452Y-105899500D01*
X165968413Y-105879815D01*
X165947771Y-105863181D01*
X165690198Y-105605608D01*
X165690178Y-105605586D01*
X165598733Y-105514141D01*
X165547509Y-105479915D01*
X165496287Y-105445689D01*
X165496286Y-105445688D01*
X165496283Y-105445686D01*
X165496280Y-105445685D01*
X165415792Y-105412347D01*
X165382453Y-105398537D01*
X165372427Y-105396543D01*
X165322029Y-105386518D01*
X165261610Y-105374500D01*
X165261607Y-105374500D01*
X165261606Y-105374500D01*
X162110452Y-105374500D01*
X162043413Y-105354815D01*
X162022771Y-105338181D01*
X155084585Y-98399995D01*
X165444592Y-98399995D01*
X165444592Y-98400004D01*
X165464196Y-98661620D01*
X165464197Y-98661625D01*
X165522576Y-98917402D01*
X165522578Y-98917411D01*
X165522580Y-98917416D01*
X165618432Y-99161643D01*
X165749614Y-99388857D01*
X165850098Y-99514860D01*
X165913198Y-99593985D01*
X166050060Y-99720973D01*
X166105521Y-99772433D01*
X166322296Y-99920228D01*
X166322301Y-99920230D01*
X166322302Y-99920231D01*
X166322303Y-99920232D01*
X166447843Y-99980688D01*
X166558673Y-100034061D01*
X166558674Y-100034061D01*
X166558677Y-100034063D01*
X166809385Y-100111396D01*
X167068818Y-100150500D01*
X167331182Y-100150500D01*
X167590615Y-100111396D01*
X167841323Y-100034063D01*
X168077704Y-99920228D01*
X168294479Y-99772433D01*
X168486805Y-99593981D01*
X168650386Y-99388857D01*
X168781568Y-99161643D01*
X168877420Y-98917416D01*
X168935802Y-98661630D01*
X168955408Y-98400000D01*
X168935802Y-98138370D01*
X168877420Y-97882584D01*
X168781568Y-97638357D01*
X168650386Y-97411143D01*
X168486805Y-97206019D01*
X168486804Y-97206018D01*
X168486801Y-97206014D01*
X168294479Y-97027567D01*
X168077704Y-96879772D01*
X168077700Y-96879770D01*
X168077697Y-96879768D01*
X168077696Y-96879767D01*
X167841325Y-96765938D01*
X167841327Y-96765938D01*
X167590623Y-96688606D01*
X167590619Y-96688605D01*
X167590615Y-96688604D01*
X167465823Y-96669794D01*
X167331187Y-96649500D01*
X167331182Y-96649500D01*
X167068818Y-96649500D01*
X167068812Y-96649500D01*
X166907247Y-96673853D01*
X166809385Y-96688604D01*
X166809382Y-96688605D01*
X166809376Y-96688606D01*
X166558673Y-96765938D01*
X166322303Y-96879767D01*
X166322302Y-96879768D01*
X166105520Y-97027567D01*
X165913198Y-97206014D01*
X165749614Y-97411143D01*
X165618432Y-97638356D01*
X165522582Y-97882578D01*
X165522576Y-97882597D01*
X165464197Y-98138374D01*
X165464196Y-98138379D01*
X165444592Y-98399995D01*
X155084585Y-98399995D01*
X150004585Y-93319995D01*
X165444592Y-93319995D01*
X165444592Y-93320004D01*
X165464196Y-93581620D01*
X165464197Y-93581625D01*
X165522576Y-93837402D01*
X165522578Y-93837411D01*
X165522580Y-93837416D01*
X165618432Y-94081643D01*
X165749614Y-94308857D01*
X165881736Y-94474533D01*
X165913198Y-94513985D01*
X166094753Y-94682441D01*
X166105521Y-94692433D01*
X166322296Y-94840228D01*
X166322301Y-94840230D01*
X166322302Y-94840231D01*
X166322303Y-94840232D01*
X166447843Y-94900688D01*
X166558673Y-94954061D01*
X166558674Y-94954061D01*
X166558677Y-94954063D01*
X166809385Y-95031396D01*
X167068818Y-95070500D01*
X167331182Y-95070500D01*
X167590615Y-95031396D01*
X167841323Y-94954063D01*
X168077704Y-94840228D01*
X168294479Y-94692433D01*
X168486805Y-94513981D01*
X168650386Y-94308857D01*
X168781568Y-94081643D01*
X168877420Y-93837416D01*
X168935802Y-93581630D01*
X168955408Y-93320000D01*
X168935802Y-93058370D01*
X168877420Y-92802584D01*
X168781568Y-92558357D01*
X168650386Y-92331143D01*
X168486805Y-92126019D01*
X168486804Y-92126018D01*
X168486801Y-92126014D01*
X168294479Y-91947567D01*
X168077704Y-91799772D01*
X168077700Y-91799770D01*
X168077697Y-91799768D01*
X168077696Y-91799767D01*
X167841325Y-91685938D01*
X167841327Y-91685938D01*
X167590623Y-91608606D01*
X167590619Y-91608605D01*
X167590615Y-91608604D01*
X167465823Y-91589794D01*
X167331187Y-91569500D01*
X167331182Y-91569500D01*
X167068818Y-91569500D01*
X167068812Y-91569500D01*
X166907247Y-91593853D01*
X166809385Y-91608604D01*
X166809382Y-91608605D01*
X166809376Y-91608606D01*
X166558673Y-91685938D01*
X166322303Y-91799767D01*
X166322302Y-91799768D01*
X166105520Y-91947567D01*
X165913198Y-92126014D01*
X165749614Y-92331143D01*
X165618432Y-92558356D01*
X165522582Y-92802578D01*
X165522576Y-92802597D01*
X165464197Y-93058374D01*
X165464196Y-93058379D01*
X165444592Y-93319995D01*
X150004585Y-93319995D01*
X146661819Y-89977229D01*
X146628334Y-89915906D01*
X146625500Y-89889548D01*
X146625500Y-88239995D01*
X165444592Y-88239995D01*
X165444592Y-88240004D01*
X165464196Y-88501620D01*
X165464197Y-88501625D01*
X165522576Y-88757402D01*
X165522578Y-88757411D01*
X165522580Y-88757416D01*
X165618432Y-89001643D01*
X165749614Y-89228857D01*
X165881736Y-89394533D01*
X165913198Y-89433985D01*
X166094753Y-89602441D01*
X166105521Y-89612433D01*
X166322296Y-89760228D01*
X166322301Y-89760230D01*
X166322302Y-89760231D01*
X166322303Y-89760232D01*
X166447843Y-89820688D01*
X166558673Y-89874061D01*
X166558674Y-89874061D01*
X166558677Y-89874063D01*
X166809385Y-89951396D01*
X167068818Y-89990500D01*
X167331182Y-89990500D01*
X167590615Y-89951396D01*
X167841323Y-89874063D01*
X168077704Y-89760228D01*
X168294479Y-89612433D01*
X168486805Y-89433981D01*
X168650386Y-89228857D01*
X168781568Y-89001643D01*
X168877420Y-88757416D01*
X168935802Y-88501630D01*
X168955408Y-88240000D01*
X168935802Y-87978370D01*
X168877420Y-87722584D01*
X168781568Y-87478357D01*
X168650386Y-87251143D01*
X168486805Y-87046019D01*
X168486804Y-87046018D01*
X168486801Y-87046014D01*
X168294479Y-86867567D01*
X168077704Y-86719772D01*
X168077700Y-86719770D01*
X168077697Y-86719768D01*
X168077696Y-86719767D01*
X167841325Y-86605938D01*
X167841327Y-86605938D01*
X167590623Y-86528606D01*
X167590619Y-86528605D01*
X167590615Y-86528604D01*
X167465823Y-86509794D01*
X167331187Y-86489500D01*
X167331182Y-86489500D01*
X167068818Y-86489500D01*
X167068812Y-86489500D01*
X166907247Y-86513853D01*
X166809385Y-86528604D01*
X166809382Y-86528605D01*
X166809376Y-86528606D01*
X166558673Y-86605938D01*
X166322303Y-86719767D01*
X166322302Y-86719768D01*
X166105520Y-86867567D01*
X165913198Y-87046014D01*
X165749614Y-87251143D01*
X165618432Y-87478356D01*
X165522582Y-87722578D01*
X165522576Y-87722597D01*
X165464197Y-87978374D01*
X165464196Y-87978379D01*
X165444592Y-88239995D01*
X146625500Y-88239995D01*
X146625500Y-85698687D01*
X146645185Y-85631648D01*
X146657350Y-85615715D01*
X146685770Y-85584151D01*
X146732533Y-85532216D01*
X146827179Y-85368284D01*
X146885674Y-85188256D01*
X146905460Y-85000000D01*
X146885674Y-84811744D01*
X146827179Y-84631716D01*
X146732533Y-84467784D01*
X146605871Y-84327112D01*
X146605870Y-84327111D01*
X146452734Y-84215851D01*
X146452729Y-84215848D01*
X146279807Y-84138857D01*
X146279802Y-84138855D01*
X146134001Y-84107865D01*
X146094646Y-84099500D01*
X145905354Y-84099500D01*
X145872897Y-84106398D01*
X145720197Y-84138855D01*
X145720192Y-84138857D01*
X145547270Y-84215848D01*
X145547265Y-84215851D01*
X145394129Y-84327111D01*
X145394127Y-84327113D01*
X145369807Y-84354123D01*
X145310320Y-84390770D01*
X145240463Y-84389439D01*
X145182416Y-84350551D01*
X145170272Y-84333149D01*
X145150844Y-84299499D01*
X145132533Y-84267784D01*
X145085769Y-84215848D01*
X145005870Y-84127111D01*
X144852734Y-84015851D01*
X144852729Y-84015848D01*
X144679807Y-83938857D01*
X144679802Y-83938855D01*
X144534001Y-83907865D01*
X144494646Y-83899500D01*
X144305354Y-83899500D01*
X144272897Y-83906398D01*
X144120197Y-83938855D01*
X144120192Y-83938857D01*
X143947270Y-84015848D01*
X143947265Y-84015851D01*
X143794130Y-84127110D01*
X143794126Y-84127114D01*
X143788400Y-84133474D01*
X143728913Y-84170121D01*
X143696252Y-84174500D01*
X142338388Y-84174500D01*
X142217555Y-84198535D01*
X142217547Y-84198537D01*
X142103716Y-84245687D01*
X142023182Y-84299499D01*
X142001266Y-84314142D01*
X142001260Y-84314147D01*
X140652229Y-85663181D01*
X140590906Y-85696666D01*
X140564548Y-85699500D01*
X140505354Y-85699500D01*
X140472897Y-85706398D01*
X140320197Y-85738855D01*
X140320192Y-85738857D01*
X140147270Y-85815848D01*
X140147265Y-85815851D01*
X139994129Y-85927111D01*
X139867466Y-86067785D01*
X139772821Y-86231715D01*
X139772818Y-86231722D01*
X139714327Y-86411740D01*
X139714326Y-86411744D01*
X139694540Y-86600000D01*
X137425500Y-86600000D01*
X137425500Y-81158981D01*
X137445185Y-81091942D01*
X137461819Y-81071300D01*
X138933119Y-79600000D01*
X144894540Y-79600000D01*
X144914326Y-79788256D01*
X144914327Y-79788259D01*
X144972818Y-79968277D01*
X144972821Y-79968284D01*
X145067467Y-80132216D01*
X145194129Y-80272888D01*
X145194131Y-80272890D01*
X145246036Y-80310601D01*
X145276254Y-80342029D01*
X145314143Y-80398735D01*
X145405586Y-80490178D01*
X145405608Y-80490198D01*
X147235334Y-82319924D01*
X147268819Y-82381247D01*
X147263835Y-82450939D01*
X147221963Y-82506872D01*
X147220542Y-82507921D01*
X147194126Y-82527114D01*
X147194123Y-82527116D01*
X147067466Y-82667785D01*
X146972821Y-82831715D01*
X146972818Y-82831722D01*
X146914327Y-83011740D01*
X146914326Y-83011744D01*
X146894540Y-83200000D01*
X146914326Y-83388256D01*
X146914327Y-83388259D01*
X146972818Y-83568277D01*
X146972821Y-83568284D01*
X147067467Y-83732216D01*
X147096131Y-83764050D01*
X147142650Y-83815715D01*
X147172880Y-83878706D01*
X147174500Y-83898687D01*
X147174500Y-84338393D01*
X147174500Y-84461607D01*
X147174500Y-84461609D01*
X147174499Y-84461609D01*
X147182875Y-84503712D01*
X147182875Y-84503714D01*
X147198535Y-84582446D01*
X147198539Y-84582459D01*
X147208092Y-84605520D01*
X147210670Y-84611744D01*
X147245688Y-84696286D01*
X147273823Y-84738391D01*
X147273824Y-84738394D01*
X147314138Y-84798728D01*
X147314139Y-84798729D01*
X147314142Y-84798733D01*
X147401267Y-84885858D01*
X147401269Y-84885859D01*
X147408335Y-84892925D01*
X147408334Y-84892925D01*
X147408338Y-84892928D01*
X149801263Y-87285855D01*
X149801267Y-87285858D01*
X149903708Y-87354308D01*
X149903715Y-87354312D01*
X149967504Y-87380734D01*
X150017548Y-87401463D01*
X150037597Y-87405451D01*
X150071196Y-87412134D01*
X150138392Y-87425501D01*
X150138394Y-87425501D01*
X150267721Y-87425501D01*
X150267741Y-87425500D01*
X162096252Y-87425500D01*
X162163291Y-87445185D01*
X162188400Y-87466526D01*
X162194126Y-87472885D01*
X162194130Y-87472889D01*
X162347265Y-87584148D01*
X162347270Y-87584151D01*
X162520192Y-87661142D01*
X162520197Y-87661144D01*
X162705354Y-87700500D01*
X162705355Y-87700500D01*
X162894644Y-87700500D01*
X162894646Y-87700500D01*
X163079803Y-87661144D01*
X163252730Y-87584151D01*
X163405871Y-87472888D01*
X163532533Y-87332216D01*
X163627179Y-87168284D01*
X163685674Y-86988256D01*
X163705460Y-86800000D01*
X163685674Y-86611744D01*
X163627179Y-86431716D01*
X163532533Y-86267784D01*
X163405871Y-86127112D01*
X163405870Y-86127111D01*
X163252734Y-86015851D01*
X163252729Y-86015848D01*
X163079807Y-85938857D01*
X163079802Y-85938855D01*
X162934001Y-85907865D01*
X162894646Y-85899500D01*
X162705354Y-85899500D01*
X162687321Y-85903333D01*
X162520197Y-85938855D01*
X162520192Y-85938857D01*
X162347270Y-86015848D01*
X162347265Y-86015851D01*
X162194130Y-86127110D01*
X162194126Y-86127114D01*
X162188400Y-86133474D01*
X162128913Y-86170121D01*
X162096252Y-86174500D01*
X156009452Y-86174500D01*
X155942413Y-86154815D01*
X155896658Y-86102011D01*
X155886714Y-86032853D01*
X155915739Y-85969297D01*
X155921772Y-85962817D01*
X155947773Y-85936817D01*
X156009097Y-85903333D01*
X156035453Y-85900500D01*
X156094644Y-85900500D01*
X156094646Y-85900500D01*
X156279803Y-85861144D01*
X156452730Y-85784151D01*
X156605871Y-85672888D01*
X156732533Y-85532216D01*
X156827179Y-85368284D01*
X156885674Y-85188256D01*
X156905460Y-85000000D01*
X156885674Y-84811744D01*
X156827179Y-84631716D01*
X156732533Y-84467784D01*
X156605871Y-84327112D01*
X156605870Y-84327111D01*
X156452734Y-84215851D01*
X156452729Y-84215848D01*
X156279807Y-84138857D01*
X156279802Y-84138855D01*
X156134001Y-84107865D01*
X156094646Y-84099500D01*
X155905354Y-84099500D01*
X155872897Y-84106398D01*
X155720197Y-84138855D01*
X155720192Y-84138857D01*
X155547270Y-84215848D01*
X155547265Y-84215851D01*
X155394129Y-84327111D01*
X155267466Y-84467785D01*
X155172821Y-84631715D01*
X155172818Y-84631722D01*
X155118142Y-84799999D01*
X155114326Y-84811744D01*
X155108890Y-84863464D01*
X155082306Y-84928076D01*
X155025009Y-84968061D01*
X154985570Y-84974500D01*
X154424835Y-84974500D01*
X154357796Y-84954815D01*
X154312041Y-84902011D01*
X154301514Y-84837540D01*
X154305460Y-84800000D01*
X154285674Y-84611744D01*
X154227179Y-84431716D01*
X154132533Y-84267784D01*
X154005871Y-84127112D01*
X154005870Y-84127111D01*
X153852734Y-84015851D01*
X153852729Y-84015848D01*
X153679807Y-83938857D01*
X153679802Y-83938855D01*
X153534001Y-83907865D01*
X153494646Y-83899500D01*
X153305354Y-83899500D01*
X153272897Y-83906398D01*
X153120197Y-83938855D01*
X153120192Y-83938857D01*
X152947271Y-84015848D01*
X152889986Y-84057468D01*
X152824179Y-84080947D01*
X152756125Y-84065121D01*
X152729420Y-84044830D01*
X147903390Y-79218800D01*
X147903370Y-79218778D01*
X147811925Y-79127333D01*
X147760701Y-79093107D01*
X147724409Y-79068857D01*
X147709478Y-79058880D01*
X147709475Y-79058878D01*
X147709472Y-79058877D01*
X147628984Y-79025539D01*
X147595646Y-79011730D01*
X147595647Y-79011730D01*
X147595644Y-79011729D01*
X147595640Y-79011728D01*
X147595636Y-79011727D01*
X147529320Y-78998536D01*
X147529319Y-78998536D01*
X147497963Y-78992299D01*
X147436052Y-78959915D01*
X147430003Y-78953653D01*
X147417983Y-78940303D01*
X147417982Y-78940302D01*
X147264847Y-78829043D01*
X147264842Y-78829040D01*
X147091920Y-78752049D01*
X147091915Y-78752047D01*
X146946114Y-78721057D01*
X146906759Y-78712692D01*
X146717467Y-78712692D01*
X146667488Y-78723315D01*
X146532312Y-78752047D01*
X146369786Y-78824409D01*
X146300536Y-78833693D01*
X146257355Y-78818519D01*
X146252730Y-78815849D01*
X146079807Y-78738857D01*
X146079802Y-78738855D01*
X145934001Y-78707865D01*
X145894646Y-78699500D01*
X145705354Y-78699500D01*
X145672897Y-78706398D01*
X145520197Y-78738855D01*
X145520192Y-78738857D01*
X145347270Y-78815848D01*
X145347265Y-78815851D01*
X145194129Y-78927111D01*
X145067466Y-79067785D01*
X144972821Y-79231715D01*
X144972818Y-79231722D01*
X144914327Y-79411740D01*
X144914326Y-79411744D01*
X144894540Y-79600000D01*
X138933119Y-79600000D01*
X140453124Y-78079995D01*
X165444592Y-78079995D01*
X165444592Y-78080004D01*
X165464196Y-78341620D01*
X165464197Y-78341625D01*
X165522576Y-78597402D01*
X165522578Y-78597411D01*
X165522580Y-78597416D01*
X165618432Y-78841643D01*
X165749614Y-79068857D01*
X165796248Y-79127334D01*
X165913198Y-79273985D01*
X166094753Y-79442441D01*
X166105521Y-79452433D01*
X166322296Y-79600228D01*
X166322301Y-79600230D01*
X166322302Y-79600231D01*
X166322303Y-79600232D01*
X166447843Y-79660688D01*
X166558673Y-79714061D01*
X166558674Y-79714061D01*
X166558677Y-79714063D01*
X166809385Y-79791396D01*
X167068818Y-79830500D01*
X167331182Y-79830500D01*
X167590615Y-79791396D01*
X167841323Y-79714063D01*
X168077704Y-79600228D01*
X168294479Y-79452433D01*
X168486805Y-79273981D01*
X168650386Y-79068857D01*
X168781568Y-78841643D01*
X168877420Y-78597416D01*
X168935802Y-78341630D01*
X168955408Y-78080000D01*
X168939963Y-77873901D01*
X168935803Y-77818379D01*
X168935802Y-77818374D01*
X168935802Y-77818370D01*
X168877420Y-77562584D01*
X168781568Y-77318357D01*
X168650386Y-77091143D01*
X168486805Y-76886019D01*
X168486804Y-76886018D01*
X168486801Y-76886014D01*
X168294479Y-76707567D01*
X168077704Y-76559772D01*
X168077700Y-76559770D01*
X168077697Y-76559768D01*
X168077696Y-76559767D01*
X167841325Y-76445938D01*
X167841327Y-76445938D01*
X167590623Y-76368606D01*
X167590619Y-76368605D01*
X167590615Y-76368604D01*
X167465823Y-76349794D01*
X167331187Y-76329500D01*
X167331182Y-76329500D01*
X167068818Y-76329500D01*
X167068812Y-76329500D01*
X166907247Y-76353853D01*
X166809385Y-76368604D01*
X166809382Y-76368605D01*
X166809376Y-76368606D01*
X166558673Y-76445938D01*
X166322303Y-76559767D01*
X166322302Y-76559768D01*
X166105520Y-76707567D01*
X165913198Y-76886014D01*
X165749614Y-77091143D01*
X165618432Y-77318356D01*
X165522582Y-77562578D01*
X165522576Y-77562597D01*
X165464197Y-77818374D01*
X165464196Y-77818379D01*
X165444592Y-78079995D01*
X140453124Y-78079995D01*
X144596300Y-73936819D01*
X144657623Y-73903334D01*
X144683981Y-73900500D01*
X145241532Y-73900500D01*
X145241533Y-73900499D01*
X145372036Y-73874541D01*
X145494969Y-73823620D01*
X145605606Y-73749695D01*
X146219073Y-73136227D01*
X146280394Y-73102744D01*
X146293793Y-73100589D01*
X146294631Y-73100500D01*
X146294646Y-73100500D01*
X146479803Y-73061144D01*
X146617144Y-72999995D01*
X165444592Y-72999995D01*
X165444592Y-73000004D01*
X165464196Y-73261620D01*
X165464197Y-73261625D01*
X165522576Y-73517402D01*
X165522578Y-73517411D01*
X165522580Y-73517416D01*
X165618432Y-73761643D01*
X165749614Y-73988857D01*
X165858843Y-74125826D01*
X165913198Y-74193985D01*
X166038234Y-74310000D01*
X166105521Y-74372433D01*
X166322296Y-74520228D01*
X166322301Y-74520230D01*
X166322302Y-74520231D01*
X166322303Y-74520232D01*
X166404883Y-74560000D01*
X166558673Y-74634061D01*
X166558674Y-74634061D01*
X166558677Y-74634063D01*
X166809385Y-74711396D01*
X167068818Y-74750500D01*
X167331182Y-74750500D01*
X167590615Y-74711396D01*
X167841323Y-74634063D01*
X168077704Y-74520228D01*
X168294479Y-74372433D01*
X168486805Y-74193981D01*
X168650386Y-73988857D01*
X168781568Y-73761643D01*
X168877420Y-73517416D01*
X168935802Y-73261630D01*
X168935803Y-73261620D01*
X168955408Y-73000004D01*
X168955408Y-72999995D01*
X168935803Y-72738379D01*
X168935802Y-72738374D01*
X168935802Y-72738370D01*
X168877420Y-72482584D01*
X168781568Y-72238357D01*
X168650386Y-72011143D01*
X168486805Y-71806019D01*
X168486804Y-71806018D01*
X168486801Y-71806014D01*
X168294479Y-71627567D01*
X168077704Y-71479772D01*
X168077700Y-71479770D01*
X168077697Y-71479768D01*
X168077696Y-71479767D01*
X167841325Y-71365938D01*
X167841327Y-71365938D01*
X167590623Y-71288606D01*
X167590619Y-71288605D01*
X167590615Y-71288604D01*
X167465823Y-71269794D01*
X167331187Y-71249500D01*
X167331182Y-71249500D01*
X167068818Y-71249500D01*
X167068812Y-71249500D01*
X166907247Y-71273853D01*
X166809385Y-71288604D01*
X166809382Y-71288605D01*
X166809376Y-71288606D01*
X166558673Y-71365938D01*
X166322303Y-71479767D01*
X166322302Y-71479768D01*
X166105520Y-71627567D01*
X165913198Y-71806014D01*
X165749614Y-72011143D01*
X165618432Y-72238356D01*
X165522582Y-72482578D01*
X165522576Y-72482597D01*
X165464197Y-72738374D01*
X165464196Y-72738379D01*
X165444592Y-72999995D01*
X146617144Y-72999995D01*
X146652730Y-72984151D01*
X146805871Y-72872888D01*
X146932533Y-72732216D01*
X147027179Y-72568284D01*
X147085674Y-72388256D01*
X147105460Y-72200000D01*
X147085674Y-72011744D01*
X147027179Y-71831716D01*
X146932533Y-71667784D01*
X146805871Y-71527112D01*
X146805867Y-71527109D01*
X146652734Y-71415851D01*
X146652729Y-71415848D01*
X146479807Y-71338857D01*
X146479802Y-71338855D01*
X146334001Y-71307865D01*
X146294646Y-71299500D01*
X146105354Y-71299500D01*
X146072897Y-71306398D01*
X145920197Y-71338855D01*
X145920192Y-71338857D01*
X145747270Y-71415848D01*
X145747265Y-71415851D01*
X145594132Y-71527109D01*
X145492150Y-71640371D01*
X145432663Y-71677019D01*
X145362806Y-71675688D01*
X145307850Y-71640371D01*
X145296321Y-71627567D01*
X145205871Y-71527112D01*
X145140713Y-71479772D01*
X145052734Y-71415851D01*
X145052729Y-71415848D01*
X144879807Y-71338857D01*
X144879802Y-71338855D01*
X144734001Y-71307865D01*
X144694646Y-71299500D01*
X144505354Y-71299500D01*
X144472897Y-71306398D01*
X144320197Y-71338855D01*
X144320192Y-71338857D01*
X144147270Y-71415848D01*
X144147265Y-71415851D01*
X143994129Y-71527111D01*
X143867466Y-71667785D01*
X143772821Y-71831715D01*
X143772818Y-71831722D01*
X143714327Y-72011739D01*
X143714327Y-72011740D01*
X143714326Y-72011744D01*
X143704983Y-72100636D01*
X143678398Y-72165250D01*
X143669343Y-72175354D01*
X135675307Y-80169390D01*
X135675304Y-80169394D01*
X135601383Y-80280024D01*
X135601378Y-80280034D01*
X135550459Y-80402962D01*
X135550459Y-80402964D01*
X135531058Y-80500500D01*
X135531058Y-80500502D01*
X135524500Y-80533468D01*
X133600000Y-80533468D01*
X133600000Y-71519999D01*
X134244341Y-71519999D01*
X134244341Y-71520000D01*
X134264936Y-71755403D01*
X134264938Y-71755413D01*
X134326094Y-71983655D01*
X134326096Y-71983659D01*
X134326097Y-71983663D01*
X134380643Y-72100636D01*
X134425965Y-72197830D01*
X134425967Y-72197834D01*
X134561501Y-72391395D01*
X134561506Y-72391402D01*
X134728597Y-72558493D01*
X134728603Y-72558498D01*
X134914594Y-72688730D01*
X134958219Y-72743307D01*
X134965413Y-72812805D01*
X134933890Y-72875160D01*
X134914595Y-72891880D01*
X134728922Y-73021890D01*
X134728920Y-73021891D01*
X134561891Y-73188920D01*
X134561886Y-73188926D01*
X134426400Y-73382420D01*
X134426399Y-73382422D01*
X134326570Y-73596507D01*
X134326567Y-73596513D01*
X134269364Y-73809999D01*
X134269364Y-73810000D01*
X135166988Y-73810000D01*
X135134075Y-73867007D01*
X135100000Y-73994174D01*
X135100000Y-74125826D01*
X135134075Y-74252993D01*
X135166988Y-74310000D01*
X134269364Y-74310000D01*
X134326567Y-74523486D01*
X134326570Y-74523492D01*
X134426399Y-74737578D01*
X134561894Y-74931082D01*
X134728917Y-75098105D01*
X134914595Y-75228119D01*
X134958219Y-75282696D01*
X134965412Y-75352195D01*
X134933890Y-75414549D01*
X134914595Y-75431269D01*
X134728594Y-75561508D01*
X134561505Y-75728597D01*
X134425965Y-75922169D01*
X134425964Y-75922171D01*
X134326098Y-76136335D01*
X134326094Y-76136344D01*
X134264938Y-76364586D01*
X134264936Y-76364596D01*
X134244341Y-76599999D01*
X134244341Y-76600000D01*
X134264936Y-76835403D01*
X134264938Y-76835413D01*
X134326094Y-77063655D01*
X134326096Y-77063659D01*
X134326097Y-77063663D01*
X134425965Y-77277830D01*
X134425967Y-77277834D01*
X134454342Y-77318357D01*
X134561505Y-77471401D01*
X134728599Y-77638495D01*
X134825384Y-77706265D01*
X134922165Y-77774032D01*
X134922167Y-77774033D01*
X134922170Y-77774035D01*
X135136337Y-77873903D01*
X135364592Y-77935063D01*
X135552918Y-77951539D01*
X135599999Y-77955659D01*
X135600000Y-77955659D01*
X135600001Y-77955659D01*
X135639234Y-77952226D01*
X135835408Y-77935063D01*
X136063663Y-77873903D01*
X136277830Y-77774035D01*
X136471401Y-77638495D01*
X136638495Y-77471401D01*
X136774035Y-77277830D01*
X136873903Y-77063663D01*
X136935063Y-76835408D01*
X136955659Y-76600000D01*
X136935063Y-76364592D01*
X136873903Y-76136337D01*
X136774035Y-75922171D01*
X136638495Y-75728599D01*
X136638494Y-75728597D01*
X136471402Y-75561506D01*
X136471401Y-75561505D01*
X136285405Y-75431269D01*
X136241781Y-75376692D01*
X136234588Y-75307193D01*
X136266110Y-75244839D01*
X136285405Y-75228119D01*
X136471082Y-75098105D01*
X136638105Y-74931082D01*
X136773600Y-74737578D01*
X136873429Y-74523492D01*
X136873432Y-74523486D01*
X136930636Y-74310000D01*
X136033012Y-74310000D01*
X136065925Y-74252993D01*
X136100000Y-74125826D01*
X136100000Y-73994174D01*
X136065925Y-73867007D01*
X136033012Y-73810000D01*
X136930636Y-73810000D01*
X136930635Y-73809999D01*
X136873432Y-73596513D01*
X136873429Y-73596507D01*
X136773600Y-73382422D01*
X136773599Y-73382420D01*
X136638113Y-73188926D01*
X136638108Y-73188920D01*
X136471078Y-73021890D01*
X136285405Y-72891879D01*
X136241780Y-72837302D01*
X136234588Y-72767804D01*
X136266110Y-72705449D01*
X136285406Y-72688730D01*
X136471401Y-72558495D01*
X136638495Y-72391401D01*
X136774035Y-72197830D01*
X136873903Y-71983663D01*
X136935063Y-71755408D01*
X136955659Y-71520000D01*
X136935063Y-71284592D01*
X136873903Y-71056337D01*
X136774035Y-70842171D01*
X136638495Y-70648599D01*
X136516567Y-70526671D01*
X136483084Y-70465351D01*
X136488068Y-70395659D01*
X136529939Y-70339725D01*
X136560915Y-70322810D01*
X136692331Y-70273796D01*
X136807546Y-70187546D01*
X136893796Y-70072331D01*
X136944091Y-69937483D01*
X136950500Y-69877873D01*
X136950499Y-68082128D01*
X136944091Y-68022517D01*
X136935693Y-68000000D01*
X148294540Y-68000000D01*
X148314326Y-68188256D01*
X148314327Y-68188259D01*
X148372818Y-68368277D01*
X148372821Y-68368284D01*
X148467467Y-68532216D01*
X148594129Y-68672888D01*
X148747265Y-68784148D01*
X148747270Y-68784151D01*
X148920192Y-68861142D01*
X148920197Y-68861144D01*
X149105354Y-68900500D01*
X149105355Y-68900500D01*
X149294644Y-68900500D01*
X149294646Y-68900500D01*
X149479803Y-68861144D01*
X149652730Y-68784151D01*
X149805871Y-68672888D01*
X149932533Y-68532216D01*
X150027179Y-68368284D01*
X150085674Y-68188256D01*
X150105460Y-68000000D01*
X150097051Y-67919995D01*
X165444592Y-67919995D01*
X165444592Y-67920004D01*
X165464196Y-68181620D01*
X165464197Y-68181625D01*
X165522576Y-68437402D01*
X165522578Y-68437411D01*
X165522580Y-68437416D01*
X165618432Y-68681643D01*
X165749614Y-68908857D01*
X165881736Y-69074533D01*
X165913198Y-69113985D01*
X166094753Y-69282441D01*
X166105521Y-69292433D01*
X166322296Y-69440228D01*
X166322301Y-69440230D01*
X166322302Y-69440231D01*
X166322303Y-69440232D01*
X166447843Y-69500688D01*
X166558673Y-69554061D01*
X166558674Y-69554061D01*
X166558677Y-69554063D01*
X166809385Y-69631396D01*
X167068818Y-69670500D01*
X167331182Y-69670500D01*
X167590615Y-69631396D01*
X167841323Y-69554063D01*
X168077704Y-69440228D01*
X168294479Y-69292433D01*
X168486805Y-69113981D01*
X168650386Y-68908857D01*
X168781568Y-68681643D01*
X168877420Y-68437416D01*
X168935802Y-68181630D01*
X168943258Y-68082135D01*
X168955408Y-67920004D01*
X168955408Y-67919995D01*
X168935803Y-67658379D01*
X168935802Y-67658374D01*
X168935802Y-67658370D01*
X168877420Y-67402584D01*
X168781568Y-67158357D01*
X168650386Y-66931143D01*
X168486805Y-66726019D01*
X168486804Y-66726018D01*
X168486801Y-66726014D01*
X168294479Y-66547567D01*
X168184945Y-66472888D01*
X168077704Y-66399772D01*
X168077700Y-66399770D01*
X168077697Y-66399768D01*
X168077696Y-66399767D01*
X167841325Y-66285938D01*
X167841327Y-66285938D01*
X167590623Y-66208606D01*
X167590619Y-66208605D01*
X167590615Y-66208604D01*
X167465823Y-66189794D01*
X167331187Y-66169500D01*
X167331182Y-66169500D01*
X167068818Y-66169500D01*
X167068812Y-66169500D01*
X166907247Y-66193853D01*
X166809385Y-66208604D01*
X166809382Y-66208605D01*
X166809376Y-66208606D01*
X166558673Y-66285938D01*
X166322303Y-66399767D01*
X166322302Y-66399768D01*
X166105520Y-66547567D01*
X165913198Y-66726014D01*
X165749614Y-66931143D01*
X165618432Y-67158356D01*
X165522582Y-67402578D01*
X165522576Y-67402597D01*
X165464197Y-67658374D01*
X165464196Y-67658379D01*
X165444592Y-67919995D01*
X150097051Y-67919995D01*
X150085674Y-67811744D01*
X150027179Y-67631716D01*
X149932533Y-67467784D01*
X149857350Y-67384284D01*
X149827120Y-67321292D01*
X149825500Y-67301312D01*
X149825500Y-66765847D01*
X149845185Y-66698808D01*
X149897989Y-66653053D01*
X149899005Y-66652594D01*
X150052730Y-66584151D01*
X150205871Y-66472888D01*
X150332533Y-66332216D01*
X150427179Y-66168284D01*
X150485674Y-65988256D01*
X150505460Y-65800000D01*
X150485674Y-65611744D01*
X150427179Y-65431716D01*
X150332533Y-65267784D01*
X150205871Y-65127112D01*
X150205870Y-65127111D01*
X150052734Y-65015851D01*
X150052729Y-65015848D01*
X149879807Y-64938857D01*
X149879802Y-64938855D01*
X149734001Y-64907865D01*
X149694646Y-64899500D01*
X149505354Y-64899500D01*
X149472897Y-64906398D01*
X149320197Y-64938855D01*
X149320192Y-64938857D01*
X149147270Y-65015848D01*
X149147265Y-65015851D01*
X148994129Y-65127111D01*
X148867466Y-65267785D01*
X148772821Y-65431715D01*
X148772818Y-65431722D01*
X148714327Y-65611740D01*
X148714326Y-65611744D01*
X148694540Y-65800000D01*
X148693925Y-65805853D01*
X148673706Y-65861783D01*
X148645687Y-65903714D01*
X148598540Y-66017538D01*
X148598535Y-66017554D01*
X148582875Y-66096287D01*
X148574500Y-66138389D01*
X148574500Y-67301312D01*
X148554815Y-67368351D01*
X148542650Y-67384284D01*
X148467466Y-67467784D01*
X148372821Y-67631715D01*
X148372818Y-67631722D01*
X148314327Y-67811740D01*
X148314326Y-67811744D01*
X148294540Y-68000000D01*
X136935693Y-68000000D01*
X136893796Y-67887669D01*
X136893795Y-67887668D01*
X136893793Y-67887664D01*
X136807547Y-67772455D01*
X136807544Y-67772452D01*
X136692335Y-67686206D01*
X136692328Y-67686202D01*
X136557482Y-67635908D01*
X136557483Y-67635908D01*
X136497883Y-67629501D01*
X136497881Y-67629500D01*
X136497873Y-67629500D01*
X136497864Y-67629500D01*
X134702129Y-67629500D01*
X134702123Y-67629501D01*
X134642516Y-67635908D01*
X134507671Y-67686202D01*
X134507664Y-67686206D01*
X134392455Y-67772452D01*
X134392452Y-67772455D01*
X134306206Y-67887664D01*
X134306202Y-67887671D01*
X134255908Y-68022517D01*
X134249501Y-68082116D01*
X134249501Y-68082123D01*
X134249500Y-68082135D01*
X134249500Y-69877870D01*
X134249501Y-69877876D01*
X134255908Y-69937483D01*
X134306202Y-70072328D01*
X134306206Y-70072335D01*
X134392452Y-70187544D01*
X134392455Y-70187547D01*
X134507664Y-70273793D01*
X134507671Y-70273797D01*
X134639081Y-70322810D01*
X134695015Y-70364681D01*
X134719432Y-70430145D01*
X134704580Y-70498418D01*
X134683430Y-70526673D01*
X134561503Y-70648600D01*
X134425965Y-70842169D01*
X134425964Y-70842171D01*
X134326098Y-71056335D01*
X134326094Y-71056344D01*
X134264938Y-71284586D01*
X134264936Y-71284596D01*
X134244341Y-71519999D01*
X133600000Y-71519999D01*
X133600000Y-66844263D01*
X133619685Y-66777224D01*
X133628029Y-66765742D01*
X133776605Y-66584150D01*
X135154955Y-64899500D01*
X135362790Y-64645479D01*
X135420477Y-64606058D01*
X135458761Y-64600000D01*
X170876000Y-64600000D01*
X170943039Y-64619685D01*
G37*
%TD.AperFunction*%
%TD*%
%TA.AperFunction,Conductor*%
%TO.N,GNDA*%
G36*
X222008520Y-64619685D02*
G01*
X222037200Y-64645172D01*
X223894121Y-66900004D01*
X227571719Y-71365659D01*
X227599142Y-71429922D01*
X227600000Y-71444486D01*
X227600000Y-128741921D01*
X227580315Y-128808960D01*
X227555383Y-128837180D01*
X225234489Y-130771259D01*
X225170386Y-130799055D01*
X225155106Y-130800000D01*
X181251362Y-130800000D01*
X181184323Y-130780315D01*
X181163681Y-130763681D01*
X179236319Y-128836319D01*
X179202834Y-128774996D01*
X179200000Y-128748638D01*
X179200000Y-120370000D01*
X209694564Y-120370000D01*
X209714287Y-120670918D01*
X209714288Y-120670930D01*
X209773118Y-120966683D01*
X209773122Y-120966698D01*
X209870053Y-121252247D01*
X209870062Y-121252268D01*
X210003431Y-121522713D01*
X210003435Y-121522720D01*
X210170973Y-121773459D01*
X210369810Y-122000189D01*
X210596540Y-122199026D01*
X210847279Y-122366564D01*
X210847286Y-122366568D01*
X211117731Y-122499937D01*
X211117736Y-122499939D01*
X211117748Y-122499945D01*
X211403309Y-122596880D01*
X211603251Y-122636651D01*
X211699069Y-122655711D01*
X211699070Y-122655711D01*
X211699080Y-122655713D01*
X212000000Y-122675436D01*
X212300920Y-122655713D01*
X212596691Y-122596880D01*
X212882252Y-122499945D01*
X213152718Y-122366566D01*
X213403461Y-122199025D01*
X213630189Y-122000189D01*
X213829025Y-121773461D01*
X213996566Y-121522718D01*
X214129945Y-121252252D01*
X214226880Y-120966691D01*
X214285713Y-120670920D01*
X214305436Y-120370000D01*
X214285713Y-120069080D01*
X214226880Y-119773309D01*
X214129945Y-119487748D01*
X213996566Y-119217282D01*
X213829025Y-118966539D01*
X213630189Y-118739810D01*
X213403459Y-118540973D01*
X213152720Y-118373435D01*
X213152713Y-118373431D01*
X212882268Y-118240062D01*
X212882247Y-118240053D01*
X212596698Y-118143122D01*
X212596692Y-118143120D01*
X212596691Y-118143120D01*
X212596689Y-118143119D01*
X212596683Y-118143118D01*
X212300930Y-118084288D01*
X212300921Y-118084287D01*
X212300920Y-118084287D01*
X212000000Y-118064564D01*
X211699080Y-118084287D01*
X211699079Y-118084287D01*
X211699069Y-118084288D01*
X211403316Y-118143118D01*
X211403301Y-118143122D01*
X211117752Y-118240053D01*
X211117731Y-118240062D01*
X210847286Y-118373431D01*
X210847279Y-118373435D01*
X210596540Y-118540973D01*
X210369810Y-118739810D01*
X210170973Y-118966540D01*
X210003435Y-119217279D01*
X210003431Y-119217286D01*
X209870062Y-119487731D01*
X209870053Y-119487752D01*
X209773122Y-119773301D01*
X209773118Y-119773316D01*
X209714288Y-120069069D01*
X209714287Y-120069081D01*
X209694564Y-120370000D01*
X179200000Y-120370000D01*
X179200000Y-100251362D01*
X179219685Y-100184323D01*
X179236319Y-100163681D01*
X181000005Y-98399995D01*
X190844592Y-98399995D01*
X190844592Y-98400004D01*
X190864196Y-98661620D01*
X190864197Y-98661625D01*
X190922576Y-98917402D01*
X190922578Y-98917411D01*
X190922580Y-98917416D01*
X191018432Y-99161643D01*
X191149614Y-99388857D01*
X191281736Y-99554533D01*
X191313198Y-99593985D01*
X191492121Y-99760000D01*
X191505521Y-99772433D01*
X191722296Y-99920228D01*
X191722301Y-99920230D01*
X191722302Y-99920231D01*
X191722303Y-99920232D01*
X191847843Y-99980688D01*
X191958673Y-100034061D01*
X191958674Y-100034061D01*
X191958677Y-100034063D01*
X192209385Y-100111396D01*
X192468818Y-100150500D01*
X192731182Y-100150500D01*
X192990615Y-100111396D01*
X193241323Y-100034063D01*
X193428111Y-99944110D01*
X193477696Y-99920232D01*
X193477696Y-99920231D01*
X193477704Y-99920228D01*
X193694479Y-99772433D01*
X193886805Y-99593981D01*
X194050386Y-99388857D01*
X194181568Y-99161643D01*
X194277420Y-98917416D01*
X194335802Y-98661630D01*
X194335803Y-98661620D01*
X194355408Y-98400004D01*
X194355408Y-98399995D01*
X194341332Y-98212155D01*
X204800000Y-98212155D01*
X204800000Y-100260000D01*
X205841759Y-100260000D01*
X205828822Y-100291233D01*
X205800000Y-100436131D01*
X205800000Y-100583869D01*
X205828822Y-100728767D01*
X205841759Y-100760000D01*
X204800000Y-100760000D01*
X204800000Y-102807844D01*
X204806401Y-102867372D01*
X204806403Y-102867379D01*
X204856645Y-103002086D01*
X204856649Y-103002093D01*
X204942809Y-103117187D01*
X204942812Y-103117190D01*
X205057906Y-103203350D01*
X205057913Y-103203354D01*
X205192620Y-103253596D01*
X205192627Y-103253598D01*
X205252155Y-103259999D01*
X205252172Y-103260000D01*
X206300000Y-103260000D01*
X206300000Y-101218240D01*
X206331233Y-101231178D01*
X206476131Y-101260000D01*
X206623869Y-101260000D01*
X206768767Y-101231178D01*
X206800000Y-101218240D01*
X206800000Y-103260000D01*
X207847828Y-103260000D01*
X207847844Y-103259999D01*
X207907372Y-103253598D01*
X207907379Y-103253596D01*
X208042086Y-103203354D01*
X208042093Y-103203350D01*
X208157187Y-103117190D01*
X208157190Y-103117187D01*
X208243350Y-103002093D01*
X208243354Y-103002086D01*
X208293596Y-102867379D01*
X208293598Y-102867372D01*
X208299999Y-102807844D01*
X208300000Y-102807827D01*
X208300000Y-100760000D01*
X207258241Y-100760000D01*
X207271178Y-100728767D01*
X207300000Y-100583869D01*
X207300000Y-100436131D01*
X207271178Y-100291233D01*
X207258241Y-100260000D01*
X208300000Y-100260000D01*
X208300000Y-99395258D01*
X210249500Y-99395258D01*
X210249500Y-101624741D01*
X210274446Y-101814215D01*
X210279452Y-101852238D01*
X210279453Y-101852240D01*
X210338842Y-102073887D01*
X210426650Y-102285876D01*
X210426657Y-102285890D01*
X210541392Y-102484617D01*
X210681081Y-102666661D01*
X210681089Y-102666670D01*
X210843330Y-102828911D01*
X210843338Y-102828918D01*
X211025382Y-102968607D01*
X211025385Y-102968608D01*
X211025388Y-102968611D01*
X211224112Y-103083344D01*
X211224117Y-103083346D01*
X211224123Y-103083349D01*
X211305816Y-103117187D01*
X211436113Y-103171158D01*
X211657762Y-103230548D01*
X211874312Y-103259057D01*
X211881460Y-103259999D01*
X211885266Y-103260500D01*
X211885273Y-103260500D01*
X212114727Y-103260500D01*
X212114734Y-103260500D01*
X212342238Y-103230548D01*
X212563887Y-103171158D01*
X212775888Y-103083344D01*
X212974612Y-102968611D01*
X213156661Y-102828919D01*
X213156665Y-102828914D01*
X213156670Y-102828911D01*
X213318911Y-102666670D01*
X213318914Y-102666665D01*
X213318919Y-102666661D01*
X213458611Y-102484612D01*
X213573344Y-102285888D01*
X213661158Y-102073887D01*
X213720548Y-101852238D01*
X213750500Y-101624734D01*
X213750500Y-99395266D01*
X213750499Y-99395258D01*
X215699500Y-99395258D01*
X215699500Y-101624741D01*
X215724446Y-101814215D01*
X215729452Y-101852238D01*
X215729453Y-101852240D01*
X215788842Y-102073887D01*
X215876650Y-102285876D01*
X215876657Y-102285890D01*
X215991392Y-102484617D01*
X216131081Y-102666661D01*
X216131089Y-102666670D01*
X216293330Y-102828911D01*
X216293338Y-102828918D01*
X216475382Y-102968607D01*
X216475385Y-102968608D01*
X216475388Y-102968611D01*
X216674112Y-103083344D01*
X216674117Y-103083346D01*
X216674123Y-103083349D01*
X216755816Y-103117187D01*
X216886113Y-103171158D01*
X217107762Y-103230548D01*
X217324312Y-103259057D01*
X217331460Y-103259999D01*
X217335266Y-103260500D01*
X217335273Y-103260500D01*
X217564727Y-103260500D01*
X217564734Y-103260500D01*
X217792238Y-103230548D01*
X218013887Y-103171158D01*
X218225888Y-103083344D01*
X218424612Y-102968611D01*
X218606661Y-102828919D01*
X218606665Y-102828914D01*
X218606670Y-102828911D01*
X218768911Y-102666670D01*
X218768914Y-102666665D01*
X218768919Y-102666661D01*
X218908611Y-102484612D01*
X219023344Y-102285888D01*
X219111158Y-102073887D01*
X219170548Y-101852238D01*
X219200500Y-101624734D01*
X219200500Y-99395266D01*
X219170548Y-99167762D01*
X219111158Y-98946113D01*
X219023344Y-98734112D01*
X218908611Y-98535388D01*
X218908608Y-98535385D01*
X218908607Y-98535382D01*
X218768918Y-98353338D01*
X218768911Y-98353330D01*
X218606670Y-98191089D01*
X218606661Y-98191081D01*
X218424617Y-98051392D01*
X218225890Y-97936657D01*
X218225876Y-97936650D01*
X218013887Y-97848842D01*
X217792238Y-97789452D01*
X217754215Y-97784446D01*
X217564741Y-97759500D01*
X217564734Y-97759500D01*
X217335266Y-97759500D01*
X217335258Y-97759500D01*
X217118715Y-97788009D01*
X217107762Y-97789452D01*
X217014076Y-97814554D01*
X216886112Y-97848842D01*
X216674123Y-97936650D01*
X216674109Y-97936657D01*
X216475382Y-98051392D01*
X216293338Y-98191081D01*
X216131081Y-98353338D01*
X215991392Y-98535382D01*
X215876657Y-98734109D01*
X215876650Y-98734123D01*
X215788842Y-98946112D01*
X215729453Y-99167759D01*
X215729451Y-99167770D01*
X215699500Y-99395258D01*
X213750499Y-99395258D01*
X213720548Y-99167762D01*
X213661158Y-98946113D01*
X213573344Y-98734112D01*
X213458611Y-98535388D01*
X213458608Y-98535385D01*
X213458607Y-98535382D01*
X213318918Y-98353338D01*
X213318911Y-98353330D01*
X213156670Y-98191089D01*
X213156661Y-98191081D01*
X212974617Y-98051392D01*
X212775890Y-97936657D01*
X212775876Y-97936650D01*
X212563887Y-97848842D01*
X212342238Y-97789452D01*
X212304215Y-97784446D01*
X212114741Y-97759500D01*
X212114734Y-97759500D01*
X211885266Y-97759500D01*
X211885258Y-97759500D01*
X211668715Y-97788009D01*
X211657762Y-97789452D01*
X211564076Y-97814554D01*
X211436112Y-97848842D01*
X211224123Y-97936650D01*
X211224109Y-97936657D01*
X211025382Y-98051392D01*
X210843338Y-98191081D01*
X210681081Y-98353338D01*
X210541392Y-98535382D01*
X210426657Y-98734109D01*
X210426650Y-98734123D01*
X210338842Y-98946112D01*
X210279453Y-99167759D01*
X210279451Y-99167770D01*
X210249500Y-99395258D01*
X208300000Y-99395258D01*
X208300000Y-98212172D01*
X208299999Y-98212155D01*
X208293598Y-98152627D01*
X208293596Y-98152620D01*
X208243354Y-98017913D01*
X208243350Y-98017906D01*
X208157190Y-97902812D01*
X208157187Y-97902809D01*
X208042093Y-97816649D01*
X208042086Y-97816645D01*
X207907379Y-97766403D01*
X207907372Y-97766401D01*
X207847844Y-97760000D01*
X206800000Y-97760000D01*
X206800000Y-99801759D01*
X206768767Y-99788822D01*
X206623869Y-99760000D01*
X206476131Y-99760000D01*
X206331233Y-99788822D01*
X206300000Y-99801759D01*
X206300000Y-97760000D01*
X205252155Y-97760000D01*
X205192627Y-97766401D01*
X205192620Y-97766403D01*
X205057913Y-97816645D01*
X205057906Y-97816649D01*
X204942812Y-97902809D01*
X204942809Y-97902812D01*
X204856649Y-98017906D01*
X204856645Y-98017913D01*
X204806403Y-98152620D01*
X204806401Y-98152627D01*
X204800000Y-98212155D01*
X194341332Y-98212155D01*
X194335803Y-98138379D01*
X194335802Y-98138374D01*
X194335802Y-98138370D01*
X194277420Y-97882584D01*
X194181568Y-97638357D01*
X194050386Y-97411143D01*
X193886805Y-97206019D01*
X193886804Y-97206018D01*
X193886801Y-97206014D01*
X193694479Y-97027567D01*
X193477704Y-96879772D01*
X193477700Y-96879770D01*
X193477697Y-96879768D01*
X193477696Y-96879767D01*
X193241325Y-96765938D01*
X193241327Y-96765938D01*
X192990623Y-96688606D01*
X192990619Y-96688605D01*
X192990615Y-96688604D01*
X192865823Y-96669794D01*
X192731187Y-96649500D01*
X192731182Y-96649500D01*
X192468818Y-96649500D01*
X192468812Y-96649500D01*
X192307247Y-96673853D01*
X192209385Y-96688604D01*
X192209382Y-96688605D01*
X192209376Y-96688606D01*
X191958673Y-96765938D01*
X191722303Y-96879767D01*
X191722302Y-96879768D01*
X191505520Y-97027567D01*
X191313198Y-97206014D01*
X191149614Y-97411143D01*
X191018432Y-97638356D01*
X190922582Y-97882578D01*
X190922576Y-97882597D01*
X190864197Y-98138374D01*
X190864196Y-98138379D01*
X190844592Y-98399995D01*
X181000005Y-98399995D01*
X183666769Y-95733231D01*
X186080005Y-93319995D01*
X190844592Y-93319995D01*
X190844592Y-93320004D01*
X190864196Y-93581620D01*
X190864197Y-93581625D01*
X190922576Y-93837402D01*
X190922578Y-93837411D01*
X190922580Y-93837416D01*
X191018432Y-94081643D01*
X191149614Y-94308857D01*
X191233719Y-94414321D01*
X191313198Y-94513985D01*
X191494753Y-94682441D01*
X191505521Y-94692433D01*
X191722296Y-94840228D01*
X191722301Y-94840230D01*
X191722302Y-94840231D01*
X191722303Y-94840232D01*
X191847843Y-94900688D01*
X191958673Y-94954061D01*
X191958674Y-94954061D01*
X191958677Y-94954063D01*
X192209385Y-95031396D01*
X192468818Y-95070500D01*
X192731182Y-95070500D01*
X192990615Y-95031396D01*
X193241323Y-94954063D01*
X193477704Y-94840228D01*
X193694479Y-94692433D01*
X193886805Y-94513981D01*
X193977706Y-94399995D01*
X209894732Y-94399995D01*
X209894732Y-94400004D01*
X209913777Y-94654154D01*
X209956247Y-94840228D01*
X209970492Y-94902637D01*
X210063607Y-95139888D01*
X210191041Y-95360612D01*
X210349950Y-95559877D01*
X210536783Y-95733232D01*
X210747366Y-95876805D01*
X210747371Y-95876807D01*
X210747372Y-95876808D01*
X210747373Y-95876809D01*
X210869328Y-95935538D01*
X210976992Y-95987387D01*
X210976993Y-95987387D01*
X210976996Y-95987389D01*
X211220542Y-96062513D01*
X211472565Y-96100500D01*
X211727435Y-96100500D01*
X211979458Y-96062513D01*
X212223004Y-95987389D01*
X212452634Y-95876805D01*
X212663217Y-95733232D01*
X212850050Y-95559877D01*
X213008959Y-95360612D01*
X213136393Y-95139888D01*
X213229508Y-94902637D01*
X213286222Y-94654157D01*
X213296726Y-94513985D01*
X213305268Y-94400004D01*
X213305268Y-94399995D01*
X213286222Y-94145845D01*
X213275758Y-94100000D01*
X213229508Y-93897363D01*
X213136393Y-93660112D01*
X213008959Y-93439388D01*
X212850050Y-93240123D01*
X212663217Y-93066768D01*
X212452634Y-92923195D01*
X212452630Y-92923193D01*
X212452627Y-92923191D01*
X212452626Y-92923190D01*
X212223006Y-92812612D01*
X212223008Y-92812612D01*
X211979466Y-92737489D01*
X211979462Y-92737488D01*
X211979458Y-92737487D01*
X211858231Y-92719214D01*
X211727440Y-92699500D01*
X211727435Y-92699500D01*
X211472565Y-92699500D01*
X211472559Y-92699500D01*
X211315609Y-92723157D01*
X211220542Y-92737487D01*
X211220539Y-92737488D01*
X211220533Y-92737489D01*
X210976992Y-92812612D01*
X210747373Y-92923190D01*
X210747372Y-92923191D01*
X210536782Y-93066768D01*
X210349952Y-93240121D01*
X210349950Y-93240123D01*
X210191041Y-93439388D01*
X210063608Y-93660109D01*
X209970492Y-93897362D01*
X209970490Y-93897369D01*
X209913777Y-94145845D01*
X209894732Y-94399995D01*
X193977706Y-94399995D01*
X194050386Y-94308857D01*
X194181568Y-94081643D01*
X194277420Y-93837416D01*
X194335802Y-93581630D01*
X194335803Y-93581620D01*
X194355408Y-93320004D01*
X194355408Y-93319995D01*
X194335803Y-93058379D01*
X194335802Y-93058374D01*
X194335802Y-93058370D01*
X194277420Y-92802584D01*
X194181568Y-92558357D01*
X194050386Y-92331143D01*
X193886805Y-92126019D01*
X193886804Y-92126018D01*
X193886801Y-92126014D01*
X193694479Y-91947567D01*
X193477704Y-91799772D01*
X193477700Y-91799770D01*
X193477697Y-91799768D01*
X193477696Y-91799767D01*
X193241325Y-91685938D01*
X193241327Y-91685938D01*
X192990623Y-91608606D01*
X192990619Y-91608605D01*
X192990615Y-91608604D01*
X192865823Y-91589794D01*
X192731187Y-91569500D01*
X192731182Y-91569500D01*
X192468818Y-91569500D01*
X192468812Y-91569500D01*
X192307247Y-91593853D01*
X192209385Y-91608604D01*
X192209382Y-91608605D01*
X192209376Y-91608606D01*
X191958673Y-91685938D01*
X191722303Y-91799767D01*
X191722302Y-91799768D01*
X191505520Y-91947567D01*
X191313198Y-92126014D01*
X191149614Y-92331143D01*
X191018432Y-92558356D01*
X190922582Y-92802578D01*
X190922576Y-92802597D01*
X190864197Y-93058374D01*
X190864196Y-93058379D01*
X190844592Y-93319995D01*
X186080005Y-93319995D01*
X188200000Y-91200000D01*
X188200000Y-90648879D01*
X223299500Y-90648879D01*
X223299500Y-91551122D01*
X223299501Y-91551125D01*
X223302399Y-91593886D01*
X223302399Y-91593887D01*
X223348360Y-91778696D01*
X223432967Y-91949292D01*
X223432969Y-91949295D01*
X223552277Y-92097721D01*
X223552278Y-92097722D01*
X223700704Y-92217030D01*
X223700707Y-92217032D01*
X223866075Y-92299046D01*
X223871307Y-92301641D01*
X223871311Y-92301642D01*
X223877617Y-92303959D01*
X223876797Y-92306188D01*
X223927640Y-92335911D01*
X223959319Y-92398187D01*
X223952300Y-92467703D01*
X223908812Y-92522389D01*
X223898981Y-92528313D01*
X223899009Y-92528359D01*
X223894864Y-92530898D01*
X223735678Y-92646555D01*
X223596555Y-92785678D01*
X223480904Y-92944856D01*
X223391581Y-93120162D01*
X223330781Y-93307283D01*
X223324016Y-93350000D01*
X224366988Y-93350000D01*
X224334075Y-93407007D01*
X224300000Y-93534174D01*
X224300000Y-93665826D01*
X224334075Y-93792993D01*
X224366988Y-93850000D01*
X223324016Y-93850000D01*
X223330781Y-93892716D01*
X223391581Y-94079837D01*
X223480904Y-94255143D01*
X223596555Y-94414321D01*
X223735678Y-94553444D01*
X223894856Y-94669095D01*
X224070164Y-94758418D01*
X224257294Y-94819221D01*
X224451618Y-94850000D01*
X224550000Y-94850000D01*
X224550000Y-94033012D01*
X224607007Y-94065925D01*
X224734174Y-94100000D01*
X224865826Y-94100000D01*
X224992993Y-94065925D01*
X225050000Y-94033012D01*
X225050000Y-94850000D01*
X225148382Y-94850000D01*
X225342705Y-94819221D01*
X225529835Y-94758418D01*
X225705143Y-94669095D01*
X225864321Y-94553444D01*
X226003444Y-94414321D01*
X226119095Y-94255143D01*
X226208418Y-94079837D01*
X226269218Y-93892716D01*
X226275984Y-93850000D01*
X225233012Y-93850000D01*
X225265925Y-93792993D01*
X225300000Y-93665826D01*
X225300000Y-93534174D01*
X225265925Y-93407007D01*
X225233012Y-93350000D01*
X226275984Y-93350000D01*
X226269218Y-93307283D01*
X226208418Y-93120162D01*
X226119095Y-92944856D01*
X226003444Y-92785678D01*
X225864321Y-92646555D01*
X225705135Y-92530898D01*
X225700991Y-92528359D01*
X225701714Y-92527178D01*
X225655468Y-92483493D01*
X225638679Y-92415671D01*
X225661223Y-92349538D01*
X225715942Y-92306092D01*
X225722395Y-92303993D01*
X225722383Y-92303959D01*
X225728685Y-92301642D01*
X225728693Y-92301641D01*
X225899296Y-92217030D01*
X226047722Y-92097722D01*
X226167030Y-91949296D01*
X226251641Y-91778693D01*
X226297600Y-91593889D01*
X226300500Y-91551123D01*
X226300499Y-90648878D01*
X226297600Y-90606111D01*
X226251641Y-90421307D01*
X226249046Y-90416075D01*
X226167032Y-90250707D01*
X226167030Y-90250704D01*
X226047722Y-90102278D01*
X226047721Y-90102277D01*
X225899295Y-89982969D01*
X225899292Y-89982967D01*
X225728697Y-89898360D01*
X225543892Y-89852400D01*
X225522506Y-89850950D01*
X225501123Y-89849500D01*
X225501120Y-89849500D01*
X224098877Y-89849500D01*
X224098874Y-89849501D01*
X224056113Y-89852399D01*
X224056112Y-89852399D01*
X223871303Y-89898360D01*
X223700707Y-89982967D01*
X223700704Y-89982969D01*
X223552278Y-90102277D01*
X223552277Y-90102278D01*
X223432969Y-90250704D01*
X223432967Y-90250707D01*
X223348360Y-90421302D01*
X223302400Y-90606107D01*
X223299500Y-90648879D01*
X188200000Y-90648879D01*
X188200000Y-88239995D01*
X190845093Y-88239995D01*
X190845093Y-88240004D01*
X190864692Y-88501545D01*
X190864693Y-88501550D01*
X190923058Y-88757270D01*
X191018883Y-89001426D01*
X191018882Y-89001426D01*
X191150027Y-89228573D01*
X191197874Y-89288571D01*
X191884152Y-88602293D01*
X191891049Y-88618942D01*
X191978599Y-88749970D01*
X192090030Y-88861401D01*
X192221058Y-88948951D01*
X192237705Y-88955846D01*
X191550830Y-89642720D01*
X191722546Y-89759793D01*
X191722550Y-89759795D01*
X191958854Y-89873594D01*
X191958858Y-89873595D01*
X192209494Y-89950907D01*
X192209500Y-89950909D01*
X192468848Y-89989999D01*
X192468857Y-89990000D01*
X192731143Y-89990000D01*
X192731151Y-89989999D01*
X192990499Y-89950909D01*
X192990505Y-89950907D01*
X193241143Y-89873595D01*
X193477445Y-89759798D01*
X193477447Y-89759797D01*
X193649168Y-89642720D01*
X192962294Y-88955846D01*
X192978942Y-88948951D01*
X193109970Y-88861401D01*
X193221401Y-88749970D01*
X193308951Y-88618942D01*
X193315846Y-88602293D01*
X194002125Y-89288572D01*
X194049971Y-89228573D01*
X194181116Y-89001426D01*
X194276941Y-88757270D01*
X194335306Y-88501550D01*
X194335307Y-88501545D01*
X194354907Y-88240004D01*
X194354907Y-88239995D01*
X194335307Y-87978454D01*
X194335306Y-87978449D01*
X194276941Y-87722729D01*
X194181116Y-87478573D01*
X194181117Y-87478573D01*
X194049972Y-87251426D01*
X194002124Y-87191427D01*
X193315846Y-87877705D01*
X193308951Y-87861058D01*
X193221401Y-87730030D01*
X193109970Y-87618599D01*
X192978942Y-87531049D01*
X192962294Y-87524153D01*
X193649168Y-86837278D01*
X193477454Y-86720206D01*
X193477445Y-86720201D01*
X193241142Y-86606404D01*
X193241144Y-86606404D01*
X192990505Y-86529092D01*
X192990499Y-86529090D01*
X192731151Y-86490000D01*
X192468848Y-86490000D01*
X192209500Y-86529090D01*
X192209494Y-86529092D01*
X191958858Y-86606404D01*
X191958854Y-86606405D01*
X191722547Y-86720205D01*
X191722539Y-86720210D01*
X191550830Y-86837277D01*
X192237706Y-87524153D01*
X192221058Y-87531049D01*
X192090030Y-87618599D01*
X191978599Y-87730030D01*
X191891049Y-87861058D01*
X191884153Y-87877705D01*
X191197874Y-87191427D01*
X191150028Y-87251425D01*
X191018883Y-87478573D01*
X190923058Y-87722729D01*
X190864693Y-87978449D01*
X190864692Y-87978454D01*
X190845093Y-88239995D01*
X188200000Y-88239995D01*
X188200000Y-83159995D01*
X190845093Y-83159995D01*
X190845093Y-83160004D01*
X190864692Y-83421545D01*
X190864693Y-83421550D01*
X190923058Y-83677270D01*
X191018883Y-83921426D01*
X191018882Y-83921426D01*
X191150027Y-84148573D01*
X191197874Y-84208571D01*
X191884152Y-83522293D01*
X191891049Y-83538942D01*
X191978599Y-83669970D01*
X192090030Y-83781401D01*
X192221058Y-83868951D01*
X192237705Y-83875846D01*
X191550830Y-84562720D01*
X191722546Y-84679793D01*
X191722550Y-84679795D01*
X191958854Y-84793594D01*
X191958858Y-84793595D01*
X192209494Y-84870907D01*
X192209500Y-84870909D01*
X192468848Y-84909999D01*
X192468857Y-84910000D01*
X192731143Y-84910000D01*
X192731151Y-84909999D01*
X192990499Y-84870909D01*
X192990505Y-84870907D01*
X193241143Y-84793595D01*
X193477445Y-84679798D01*
X193477447Y-84679797D01*
X193649168Y-84562720D01*
X192962294Y-83875846D01*
X192978942Y-83868951D01*
X193109970Y-83781401D01*
X193221401Y-83669970D01*
X193308951Y-83538942D01*
X193315846Y-83522293D01*
X194002125Y-84208572D01*
X194049971Y-84148573D01*
X194181116Y-83921426D01*
X194276941Y-83677270D01*
X194335306Y-83421550D01*
X194335307Y-83421545D01*
X194354907Y-83160004D01*
X194354907Y-83159995D01*
X194335307Y-82898454D01*
X194335306Y-82898449D01*
X194276941Y-82642729D01*
X194181116Y-82398573D01*
X194181117Y-82398573D01*
X194049972Y-82171426D01*
X194002124Y-82111427D01*
X193315846Y-82797705D01*
X193308951Y-82781058D01*
X193221401Y-82650030D01*
X193109970Y-82538599D01*
X192978942Y-82451049D01*
X192962294Y-82444153D01*
X193649168Y-81757278D01*
X193477454Y-81640206D01*
X193477445Y-81640201D01*
X193241142Y-81526404D01*
X193241144Y-81526404D01*
X192990505Y-81449092D01*
X192990499Y-81449090D01*
X192731151Y-81410000D01*
X192468848Y-81410000D01*
X192209500Y-81449090D01*
X192209494Y-81449092D01*
X191958858Y-81526404D01*
X191958854Y-81526405D01*
X191722547Y-81640205D01*
X191722539Y-81640210D01*
X191550830Y-81757277D01*
X192237706Y-82444153D01*
X192221058Y-82451049D01*
X192090030Y-82538599D01*
X191978599Y-82650030D01*
X191891049Y-82781058D01*
X191884153Y-82797705D01*
X191197874Y-82111427D01*
X191150028Y-82171425D01*
X191018883Y-82398573D01*
X190923058Y-82642729D01*
X190864693Y-82898449D01*
X190864692Y-82898454D01*
X190845093Y-83159995D01*
X188200000Y-83159995D01*
X188200000Y-78079995D01*
X190844592Y-78079995D01*
X190844592Y-78080004D01*
X190864196Y-78341620D01*
X190864197Y-78341625D01*
X190922576Y-78597402D01*
X190922578Y-78597411D01*
X190922580Y-78597416D01*
X191018432Y-78841643D01*
X191149614Y-79068857D01*
X191281736Y-79234533D01*
X191313198Y-79273985D01*
X191494753Y-79442441D01*
X191505521Y-79452433D01*
X191722296Y-79600228D01*
X191722301Y-79600230D01*
X191722302Y-79600231D01*
X191722303Y-79600232D01*
X191847843Y-79660688D01*
X191958673Y-79714061D01*
X191958674Y-79714061D01*
X191958677Y-79714063D01*
X192209385Y-79791396D01*
X192468818Y-79830500D01*
X192731182Y-79830500D01*
X192990615Y-79791396D01*
X193241323Y-79714063D01*
X193477704Y-79600228D01*
X193694479Y-79452433D01*
X193886805Y-79273981D01*
X194050386Y-79068857D01*
X194181568Y-78841643D01*
X194277420Y-78597416D01*
X194335802Y-78341630D01*
X194355408Y-78080000D01*
X194335802Y-77818370D01*
X194277420Y-77562584D01*
X194181568Y-77318357D01*
X194050386Y-77091143D01*
X193886805Y-76886019D01*
X193886804Y-76886018D01*
X193886801Y-76886014D01*
X193694479Y-76707567D01*
X193477704Y-76559772D01*
X193477700Y-76559770D01*
X193477697Y-76559768D01*
X193477696Y-76559767D01*
X193241325Y-76445938D01*
X193241327Y-76445938D01*
X192990623Y-76368606D01*
X192990619Y-76368605D01*
X192990615Y-76368604D01*
X192865823Y-76349794D01*
X192731187Y-76329500D01*
X192731182Y-76329500D01*
X192468818Y-76329500D01*
X192468812Y-76329500D01*
X192307247Y-76353853D01*
X192209385Y-76368604D01*
X192209382Y-76368605D01*
X192209376Y-76368606D01*
X191958673Y-76445938D01*
X191722303Y-76559767D01*
X191722302Y-76559768D01*
X191505520Y-76707567D01*
X191313198Y-76886014D01*
X191149614Y-77091143D01*
X191018432Y-77318356D01*
X190922582Y-77562578D01*
X190922576Y-77562597D01*
X190864197Y-77818374D01*
X190864196Y-77818379D01*
X190844592Y-78079995D01*
X188200000Y-78079995D01*
X188200000Y-72999995D01*
X190844592Y-72999995D01*
X190844592Y-73000004D01*
X190864196Y-73261620D01*
X190864197Y-73261625D01*
X190922576Y-73517402D01*
X190922578Y-73517411D01*
X190922580Y-73517416D01*
X191018432Y-73761643D01*
X191149614Y-73988857D01*
X191281736Y-74154533D01*
X191313198Y-74193985D01*
X191494753Y-74362441D01*
X191505521Y-74372433D01*
X191722296Y-74520228D01*
X191722301Y-74520230D01*
X191722302Y-74520231D01*
X191722303Y-74520232D01*
X191847843Y-74580688D01*
X191958673Y-74634061D01*
X191958674Y-74634061D01*
X191958677Y-74634063D01*
X192209385Y-74711396D01*
X192468818Y-74750500D01*
X192731182Y-74750500D01*
X192990615Y-74711396D01*
X193241323Y-74634063D01*
X193477704Y-74520228D01*
X193694479Y-74372433D01*
X193886805Y-74193981D01*
X194050386Y-73988857D01*
X194181568Y-73761643D01*
X194277420Y-73517416D01*
X194335802Y-73261630D01*
X194355408Y-73000000D01*
X194335802Y-72738370D01*
X194277420Y-72482584D01*
X194181568Y-72238357D01*
X194050386Y-72011143D01*
X193886805Y-71806019D01*
X193886804Y-71806018D01*
X193886801Y-71806014D01*
X193694479Y-71627567D01*
X193477704Y-71479772D01*
X193477700Y-71479770D01*
X193477697Y-71479768D01*
X193477696Y-71479767D01*
X193241325Y-71365938D01*
X193241327Y-71365938D01*
X192990623Y-71288606D01*
X192990619Y-71288605D01*
X192990615Y-71288604D01*
X192865823Y-71269794D01*
X192731187Y-71249500D01*
X192731182Y-71249500D01*
X192468818Y-71249500D01*
X192468812Y-71249500D01*
X192307247Y-71273853D01*
X192209385Y-71288604D01*
X192209382Y-71288605D01*
X192209376Y-71288606D01*
X191958673Y-71365938D01*
X191722303Y-71479767D01*
X191722302Y-71479768D01*
X191505520Y-71627567D01*
X191313198Y-71806014D01*
X191149614Y-72011143D01*
X191018432Y-72238356D01*
X190922582Y-72482578D01*
X190922576Y-72482597D01*
X190864197Y-72738374D01*
X190864196Y-72738379D01*
X190844592Y-72999995D01*
X188200000Y-72999995D01*
X188200000Y-67919995D01*
X190844592Y-67919995D01*
X190844592Y-67920004D01*
X190864196Y-68181620D01*
X190864197Y-68181625D01*
X190922576Y-68437402D01*
X190922578Y-68437411D01*
X190922580Y-68437416D01*
X191018432Y-68681643D01*
X191149614Y-68908857D01*
X191281736Y-69074533D01*
X191313198Y-69113985D01*
X191494753Y-69282441D01*
X191505521Y-69292433D01*
X191722296Y-69440228D01*
X191722301Y-69440230D01*
X191722302Y-69440231D01*
X191722303Y-69440232D01*
X191847843Y-69500688D01*
X191958673Y-69554061D01*
X191958674Y-69554061D01*
X191958677Y-69554063D01*
X192209385Y-69631396D01*
X192468818Y-69670500D01*
X192731182Y-69670500D01*
X192990615Y-69631396D01*
X193241323Y-69554063D01*
X193477704Y-69440228D01*
X193694479Y-69292433D01*
X193886805Y-69113981D01*
X194050386Y-68908857D01*
X194181568Y-68681643D01*
X194277420Y-68437416D01*
X194335802Y-68181630D01*
X194355408Y-67920000D01*
X194335802Y-67658370D01*
X194277432Y-67402637D01*
X194277423Y-67402597D01*
X194277422Y-67402596D01*
X194277420Y-67402584D01*
X194181568Y-67158357D01*
X194050386Y-66931143D01*
X194025546Y-66899995D01*
X209894732Y-66899995D01*
X209894732Y-66900004D01*
X209913777Y-67154154D01*
X209970482Y-67402597D01*
X209970492Y-67402637D01*
X210063607Y-67639888D01*
X210191041Y-67860612D01*
X210349950Y-68059877D01*
X210536783Y-68233232D01*
X210747366Y-68376805D01*
X210747371Y-68376807D01*
X210747372Y-68376808D01*
X210747373Y-68376809D01*
X210869328Y-68435538D01*
X210976992Y-68487387D01*
X210976993Y-68487387D01*
X210976996Y-68487389D01*
X211220542Y-68562513D01*
X211472565Y-68600500D01*
X211727435Y-68600500D01*
X211979458Y-68562513D01*
X212223004Y-68487389D01*
X212452634Y-68376805D01*
X212663217Y-68233232D01*
X212850050Y-68059877D01*
X213008959Y-67860612D01*
X213136393Y-67639888D01*
X213229508Y-67402637D01*
X213286222Y-67154157D01*
X213305268Y-66900000D01*
X213286222Y-66645843D01*
X213229508Y-66397363D01*
X213136393Y-66160112D01*
X213008959Y-65939388D01*
X212850050Y-65740123D01*
X212663217Y-65566768D01*
X212452634Y-65423195D01*
X212452630Y-65423193D01*
X212452627Y-65423191D01*
X212452626Y-65423190D01*
X212223006Y-65312612D01*
X212223008Y-65312612D01*
X211979466Y-65237489D01*
X211979462Y-65237488D01*
X211979458Y-65237487D01*
X211858231Y-65219214D01*
X211727440Y-65199500D01*
X211727435Y-65199500D01*
X211472565Y-65199500D01*
X211472559Y-65199500D01*
X211315609Y-65223157D01*
X211220542Y-65237487D01*
X211220539Y-65237488D01*
X211220533Y-65237489D01*
X210976992Y-65312612D01*
X210747373Y-65423190D01*
X210747372Y-65423191D01*
X210536782Y-65566768D01*
X210349952Y-65740121D01*
X210349950Y-65740123D01*
X210191041Y-65939388D01*
X210063608Y-66160109D01*
X209970492Y-66397362D01*
X209970490Y-66397369D01*
X209913777Y-66645845D01*
X209894732Y-66899995D01*
X194025546Y-66899995D01*
X193886805Y-66726019D01*
X193886804Y-66726018D01*
X193886801Y-66726014D01*
X193694479Y-66547567D01*
X193477704Y-66399772D01*
X193477700Y-66399770D01*
X193477697Y-66399768D01*
X193477696Y-66399767D01*
X193241325Y-66285938D01*
X193241327Y-66285938D01*
X192990623Y-66208606D01*
X192990619Y-66208605D01*
X192990615Y-66208604D01*
X192865823Y-66189794D01*
X192731187Y-66169500D01*
X192731182Y-66169500D01*
X192468818Y-66169500D01*
X192468812Y-66169500D01*
X192307247Y-66193853D01*
X192209385Y-66208604D01*
X192209382Y-66208605D01*
X192209376Y-66208606D01*
X191958673Y-66285938D01*
X191722303Y-66399767D01*
X191722302Y-66399768D01*
X191505520Y-66547567D01*
X191313198Y-66726014D01*
X191149614Y-66931143D01*
X191018432Y-67158356D01*
X190922582Y-67402578D01*
X190922576Y-67402597D01*
X190864197Y-67658374D01*
X190864196Y-67658379D01*
X190844592Y-67919995D01*
X188200000Y-67919995D01*
X188200000Y-64724000D01*
X188219685Y-64656961D01*
X188272489Y-64611206D01*
X188324000Y-64600000D01*
X221941481Y-64600000D01*
X222008520Y-64619685D01*
G37*
%TD.AperFunction*%
%TD*%
M02*
